G04 #@! TF.GenerationSoftware,KiCad,Pcbnew,5.1.1-8be2ce7~80~ubuntu16.04.1*
G04 #@! TF.CreationDate,2019-04-17T15:24:41+02:00*
G04 #@! TF.ProjectId,ConNano,436f6e4e-616e-46f2-9e6b-696361645f70,rev?*
G04 #@! TF.SameCoordinates,Original*
G04 #@! TF.FileFunction,Legend,Top*
G04 #@! TF.FilePolarity,Positive*
%FSLAX46Y46*%
G04 Gerber Fmt 4.6, Leading zero omitted, Abs format (unit mm)*
G04 Created by KiCad (PCBNEW 5.1.1-8be2ce7~80~ubuntu16.04.1) date 2019-04-17 15:24:41*
%MOMM*%
%LPD*%
G04 APERTURE LIST*
%ADD10C,0.100000*%
%ADD11C,0.150000*%
%ADD12C,0.120000*%
G04 APERTURE END LIST*
D10*
X61833333Y-56726190D02*
X62000000Y-57226190D01*
X62166666Y-56726190D01*
X62619047Y-57178571D02*
X62595238Y-57202380D01*
X62523809Y-57226190D01*
X62476190Y-57226190D01*
X62404761Y-57202380D01*
X62357142Y-57154761D01*
X62333333Y-57107142D01*
X62309523Y-57011904D01*
X62309523Y-56940476D01*
X62333333Y-56845238D01*
X62357142Y-56797619D01*
X62404761Y-56750000D01*
X62476190Y-56726190D01*
X62523809Y-56726190D01*
X62595238Y-56750000D01*
X62619047Y-56773809D01*
X63119047Y-57178571D02*
X63095238Y-57202380D01*
X63023809Y-57226190D01*
X62976190Y-57226190D01*
X62904761Y-57202380D01*
X62857142Y-57154761D01*
X62833333Y-57107142D01*
X62809523Y-57011904D01*
X62809523Y-56940476D01*
X62833333Y-56845238D01*
X62857142Y-56797619D01*
X62904761Y-56750000D01*
X62976190Y-56726190D01*
X63023809Y-56726190D01*
X63095238Y-56750000D01*
X63119047Y-56773809D01*
X62119047Y-59250000D02*
X62071428Y-59226190D01*
X62000000Y-59226190D01*
X61928571Y-59250000D01*
X61880952Y-59297619D01*
X61857142Y-59345238D01*
X61833333Y-59440476D01*
X61833333Y-59511904D01*
X61857142Y-59607142D01*
X61880952Y-59654761D01*
X61928571Y-59702380D01*
X62000000Y-59726190D01*
X62047619Y-59726190D01*
X62119047Y-59702380D01*
X62142857Y-59678571D01*
X62142857Y-59511904D01*
X62047619Y-59511904D01*
X62357142Y-59726190D02*
X62357142Y-59226190D01*
X62642857Y-59726190D01*
X62642857Y-59226190D01*
X62880952Y-59726190D02*
X62880952Y-59226190D01*
X63000000Y-59226190D01*
X63071428Y-59250000D01*
X63119047Y-59297619D01*
X63142857Y-59345238D01*
X63166666Y-59440476D01*
X63166666Y-59511904D01*
X63142857Y-59607142D01*
X63119047Y-59654761D01*
X63071428Y-59702380D01*
X63000000Y-59726190D01*
X62880952Y-59726190D01*
X62333333Y-85202380D02*
X62404761Y-85226190D01*
X62523809Y-85226190D01*
X62571428Y-85202380D01*
X62595238Y-85178571D01*
X62619047Y-85130952D01*
X62619047Y-85083333D01*
X62595238Y-85035714D01*
X62571428Y-85011904D01*
X62523809Y-84988095D01*
X62428571Y-84964285D01*
X62380952Y-84940476D01*
X62357142Y-84916666D01*
X62333333Y-84869047D01*
X62333333Y-84821428D01*
X62357142Y-84773809D01*
X62380952Y-84750000D01*
X62428571Y-84726190D01*
X62547619Y-84726190D01*
X62619047Y-84750000D01*
X63023809Y-85202380D02*
X62976190Y-85226190D01*
X62880952Y-85226190D01*
X62833333Y-85202380D01*
X62809523Y-85154761D01*
X62809523Y-84964285D01*
X62833333Y-84916666D01*
X62880952Y-84892857D01*
X62976190Y-84892857D01*
X63023809Y-84916666D01*
X63047619Y-84964285D01*
X63047619Y-85011904D01*
X62809523Y-85059523D01*
X63261904Y-84892857D02*
X63261904Y-85226190D01*
X63261904Y-84940476D02*
X63285714Y-84916666D01*
X63333333Y-84892857D01*
X63404761Y-84892857D01*
X63452380Y-84916666D01*
X63476190Y-84964285D01*
X63476190Y-85226190D01*
X63690476Y-85202380D02*
X63738095Y-85226190D01*
X63833333Y-85226190D01*
X63880952Y-85202380D01*
X63904761Y-85154761D01*
X63904761Y-85130952D01*
X63880952Y-85083333D01*
X63833333Y-85059523D01*
X63761904Y-85059523D01*
X63714285Y-85035714D01*
X63690476Y-84988095D01*
X63690476Y-84964285D01*
X63714285Y-84916666D01*
X63761904Y-84892857D01*
X63833333Y-84892857D01*
X63880952Y-84916666D01*
X64190476Y-85226190D02*
X64142857Y-85202380D01*
X64119047Y-85178571D01*
X64095238Y-85130952D01*
X64095238Y-84988095D01*
X64119047Y-84940476D01*
X64142857Y-84916666D01*
X64190476Y-84892857D01*
X64261904Y-84892857D01*
X64309523Y-84916666D01*
X64333333Y-84940476D01*
X64357142Y-84988095D01*
X64357142Y-85130952D01*
X64333333Y-85178571D01*
X64309523Y-85202380D01*
X64261904Y-85226190D01*
X64190476Y-85226190D01*
X64571428Y-85226190D02*
X64571428Y-84892857D01*
X64571428Y-84988095D02*
X64595238Y-84940476D01*
X64619047Y-84916666D01*
X64666666Y-84892857D01*
X64714285Y-84892857D01*
X62440476Y-82726190D02*
X62202380Y-82726190D01*
X62202380Y-82226190D01*
X62821428Y-82726190D02*
X62821428Y-82464285D01*
X62797619Y-82416666D01*
X62750000Y-82392857D01*
X62654761Y-82392857D01*
X62607142Y-82416666D01*
X62821428Y-82702380D02*
X62773809Y-82726190D01*
X62654761Y-82726190D01*
X62607142Y-82702380D01*
X62583333Y-82654761D01*
X62583333Y-82607142D01*
X62607142Y-82559523D01*
X62654761Y-82535714D01*
X62773809Y-82535714D01*
X62821428Y-82511904D01*
X63059523Y-82726190D02*
X63059523Y-82226190D01*
X63059523Y-82416666D02*
X63107142Y-82392857D01*
X63202380Y-82392857D01*
X63250000Y-82416666D01*
X63273809Y-82440476D01*
X63297619Y-82488095D01*
X63297619Y-82630952D01*
X63273809Y-82678571D01*
X63250000Y-82702380D01*
X63202380Y-82726190D01*
X63107142Y-82726190D01*
X63059523Y-82702380D01*
X63511904Y-82392857D02*
X63511904Y-82821428D01*
X63488095Y-82869047D01*
X63440476Y-82892857D01*
X63416666Y-82892857D01*
X63511904Y-82226190D02*
X63488095Y-82250000D01*
X63511904Y-82273809D01*
X63535714Y-82250000D01*
X63511904Y-82226190D01*
X63511904Y-82273809D01*
X63964285Y-82726190D02*
X63964285Y-82464285D01*
X63940476Y-82416666D01*
X63892857Y-82392857D01*
X63797619Y-82392857D01*
X63750000Y-82416666D01*
X63964285Y-82702380D02*
X63916666Y-82726190D01*
X63797619Y-82726190D01*
X63750000Y-82702380D01*
X63726190Y-82654761D01*
X63726190Y-82607142D01*
X63750000Y-82559523D01*
X63797619Y-82535714D01*
X63916666Y-82535714D01*
X63964285Y-82511904D01*
X64416666Y-82702380D02*
X64369047Y-82726190D01*
X64273809Y-82726190D01*
X64226190Y-82702380D01*
X64202380Y-82678571D01*
X64178571Y-82630952D01*
X64178571Y-82488095D01*
X64202380Y-82440476D01*
X64226190Y-82416666D01*
X64273809Y-82392857D01*
X64369047Y-82392857D01*
X64416666Y-82416666D01*
X64630952Y-82726190D02*
X64630952Y-82226190D01*
X64678571Y-82535714D02*
X64821428Y-82726190D01*
X64821428Y-82392857D02*
X64630952Y-82583333D01*
X40928571Y-79726190D02*
X40928571Y-79226190D01*
X40928571Y-79416666D02*
X40976190Y-79392857D01*
X41071428Y-79392857D01*
X41119047Y-79416666D01*
X41142857Y-79440476D01*
X41166666Y-79488095D01*
X41166666Y-79630952D01*
X41142857Y-79678571D01*
X41119047Y-79702380D01*
X41071428Y-79726190D01*
X40976190Y-79726190D01*
X40928571Y-79702380D01*
X41380952Y-79726190D02*
X41380952Y-79226190D01*
X41500000Y-79226190D01*
X41571428Y-79250000D01*
X41619047Y-79297619D01*
X41642857Y-79345238D01*
X41666666Y-79440476D01*
X41666666Y-79511904D01*
X41642857Y-79607142D01*
X41619047Y-79654761D01*
X41571428Y-79702380D01*
X41500000Y-79726190D01*
X41380952Y-79726190D01*
X41952380Y-79726190D02*
X41904761Y-79702380D01*
X41880952Y-79678571D01*
X41857142Y-79630952D01*
X41857142Y-79488095D01*
X41880952Y-79440476D01*
X41904761Y-79416666D01*
X41952380Y-79392857D01*
X42023809Y-79392857D01*
X42071428Y-79416666D01*
X42095238Y-79440476D01*
X42119047Y-79488095D01*
X42119047Y-79630952D01*
X42095238Y-79678571D01*
X42071428Y-79702380D01*
X42023809Y-79726190D01*
X41952380Y-79726190D01*
X42285714Y-79392857D02*
X42380952Y-79726190D01*
X42476190Y-79488095D01*
X42571428Y-79726190D01*
X42666666Y-79392857D01*
X42857142Y-79392857D02*
X42857142Y-79726190D01*
X42857142Y-79440476D02*
X42880952Y-79416666D01*
X42928571Y-79392857D01*
X42999999Y-79392857D01*
X43047619Y-79416666D01*
X43071428Y-79464285D01*
X43071428Y-79726190D01*
X41904761Y-77226190D02*
X41904761Y-76726190D01*
X41904761Y-76916666D02*
X41952380Y-76892857D01*
X42047619Y-76892857D01*
X42095238Y-76916666D01*
X42119047Y-76940476D01*
X42142857Y-76988095D01*
X42142857Y-77130952D01*
X42119047Y-77178571D01*
X42095238Y-77202380D01*
X42047619Y-77226190D01*
X41952380Y-77226190D01*
X41904761Y-77202380D01*
X42357142Y-76726190D02*
X42357142Y-77130952D01*
X42380952Y-77178571D01*
X42404761Y-77202380D01*
X42452380Y-77226190D01*
X42547619Y-77226190D01*
X42595238Y-77202380D01*
X42619047Y-77178571D01*
X42642857Y-77130952D01*
X42642857Y-76726190D01*
X42880952Y-76892857D02*
X42880952Y-77392857D01*
X42880952Y-76916666D02*
X42928571Y-76892857D01*
X43023809Y-76892857D01*
X43071428Y-76916666D01*
X43095238Y-76940476D01*
X43119047Y-76988095D01*
X43119047Y-77130952D01*
X43095238Y-77178571D01*
X43071428Y-77202380D01*
X43023809Y-77226190D01*
X42928571Y-77226190D01*
X42880952Y-77202380D01*
X41988095Y-74726190D02*
X41988095Y-74226190D01*
X42107142Y-74226190D01*
X42178571Y-74250000D01*
X42226190Y-74297619D01*
X42250000Y-74345238D01*
X42273809Y-74440476D01*
X42273809Y-74511904D01*
X42250000Y-74607142D01*
X42226190Y-74654761D01*
X42178571Y-74702380D01*
X42107142Y-74726190D01*
X41988095Y-74726190D01*
X42488095Y-74726190D02*
X42488095Y-74226190D01*
X42821428Y-74226190D02*
X42916666Y-74226190D01*
X42964285Y-74250000D01*
X43011904Y-74297619D01*
X43035714Y-74392857D01*
X43035714Y-74559523D01*
X43011904Y-74654761D01*
X42964285Y-74702380D01*
X42916666Y-74726190D01*
X42821428Y-74726190D01*
X42773809Y-74702380D01*
X42726190Y-74654761D01*
X42702380Y-74559523D01*
X42702380Y-74392857D01*
X42726190Y-74297619D01*
X42773809Y-74250000D01*
X42821428Y-74226190D01*
X42202380Y-72178571D02*
X42178571Y-72202380D01*
X42107142Y-72226190D01*
X42059523Y-72226190D01*
X41988095Y-72202380D01*
X41940476Y-72154761D01*
X41916666Y-72107142D01*
X41892857Y-72011904D01*
X41892857Y-71940476D01*
X41916666Y-71845238D01*
X41940476Y-71797619D01*
X41988095Y-71750000D01*
X42059523Y-71726190D01*
X42107142Y-71726190D01*
X42178571Y-71750000D01*
X42202380Y-71773809D01*
X42654761Y-72226190D02*
X42416666Y-72226190D01*
X42416666Y-71726190D01*
X42821428Y-72226190D02*
X42821428Y-71726190D01*
X43107142Y-72226190D02*
X42892857Y-71940476D01*
X43107142Y-71726190D02*
X42821428Y-72011904D01*
X41797619Y-69726190D02*
X41797619Y-69226190D01*
X41988095Y-69226190D01*
X42035714Y-69250000D01*
X42059523Y-69273809D01*
X42083333Y-69321428D01*
X42083333Y-69392857D01*
X42059523Y-69440476D01*
X42035714Y-69464285D01*
X41988095Y-69488095D01*
X41797619Y-69488095D01*
X42250000Y-69226190D02*
X42369047Y-69726190D01*
X42464285Y-69369047D01*
X42559523Y-69726190D01*
X42678571Y-69226190D01*
X42869047Y-69726190D02*
X42869047Y-69226190D01*
X43035714Y-69583333D01*
X43202380Y-69226190D01*
X43202380Y-69726190D01*
X42047619Y-67226190D02*
X42047619Y-66726190D01*
X42285714Y-67226190D02*
X42285714Y-66726190D01*
X42571428Y-67226190D01*
X42571428Y-66726190D01*
X42738095Y-66726190D02*
X43023809Y-66726190D01*
X42880952Y-67226190D02*
X42880952Y-66726190D01*
X36833333Y-76726190D02*
X37000000Y-77226190D01*
X37166666Y-76726190D01*
X37619047Y-77178571D02*
X37595238Y-77202380D01*
X37523809Y-77226190D01*
X37476190Y-77226190D01*
X37404761Y-77202380D01*
X37357142Y-77154761D01*
X37333333Y-77107142D01*
X37309523Y-77011904D01*
X37309523Y-76940476D01*
X37333333Y-76845238D01*
X37357142Y-76797619D01*
X37404761Y-76750000D01*
X37476190Y-76726190D01*
X37523809Y-76726190D01*
X37595238Y-76750000D01*
X37619047Y-76773809D01*
X38119047Y-77178571D02*
X38095238Y-77202380D01*
X38023809Y-77226190D01*
X37976190Y-77226190D01*
X37904761Y-77202380D01*
X37857142Y-77154761D01*
X37833333Y-77107142D01*
X37809523Y-77011904D01*
X37809523Y-76940476D01*
X37833333Y-76845238D01*
X37857142Y-76797619D01*
X37904761Y-76750000D01*
X37976190Y-76726190D01*
X38023809Y-76726190D01*
X38095238Y-76750000D01*
X38119047Y-76773809D01*
X37071428Y-78226190D02*
X37071428Y-77726190D01*
X37261904Y-77726190D01*
X37309523Y-77750000D01*
X37333333Y-77773809D01*
X37357142Y-77821428D01*
X37357142Y-77892857D01*
X37333333Y-77940476D01*
X37309523Y-77964285D01*
X37261904Y-77988095D01*
X37071428Y-77988095D01*
X37642857Y-78226190D02*
X37595238Y-78202380D01*
X37571428Y-78178571D01*
X37547619Y-78130952D01*
X37547619Y-77988095D01*
X37571428Y-77940476D01*
X37595238Y-77916666D01*
X37642857Y-77892857D01*
X37714285Y-77892857D01*
X37761904Y-77916666D01*
X37785714Y-77940476D01*
X37809523Y-77988095D01*
X37809523Y-78130952D01*
X37785714Y-78178571D01*
X37761904Y-78202380D01*
X37714285Y-78226190D01*
X37642857Y-78226190D01*
X37976190Y-77892857D02*
X38071428Y-78226190D01*
X38166666Y-77988095D01*
X38261904Y-78226190D01*
X38357142Y-77892857D01*
X38738095Y-78202380D02*
X38690476Y-78226190D01*
X38595238Y-78226190D01*
X38547619Y-78202380D01*
X38523809Y-78154761D01*
X38523809Y-77964285D01*
X38547619Y-77916666D01*
X38595238Y-77892857D01*
X38690476Y-77892857D01*
X38738095Y-77916666D01*
X38761904Y-77964285D01*
X38761904Y-78011904D01*
X38523809Y-78059523D01*
X38976190Y-78226190D02*
X38976190Y-77892857D01*
X38976190Y-77988095D02*
X39000000Y-77940476D01*
X39023809Y-77916666D01*
X39071428Y-77892857D01*
X39119047Y-77892857D01*
X39285714Y-78226190D02*
X39285714Y-77726190D01*
X39523809Y-77892857D02*
X39523809Y-78226190D01*
X39523809Y-77940476D02*
X39547619Y-77916666D01*
X39595238Y-77892857D01*
X39666666Y-77892857D01*
X39714285Y-77916666D01*
X39738095Y-77964285D01*
X39738095Y-78226190D01*
X39976190Y-77892857D02*
X39976190Y-78392857D01*
X39976190Y-77916666D02*
X40023809Y-77892857D01*
X40119047Y-77892857D01*
X40166666Y-77916666D01*
X40190476Y-77940476D01*
X40214285Y-77988095D01*
X40214285Y-78130952D01*
X40190476Y-78178571D01*
X40166666Y-78202380D01*
X40119047Y-78226190D01*
X40023809Y-78226190D01*
X39976190Y-78202380D01*
X40642857Y-77892857D02*
X40642857Y-78226190D01*
X40428571Y-77892857D02*
X40428571Y-78154761D01*
X40452380Y-78202380D01*
X40500000Y-78226190D01*
X40571428Y-78226190D01*
X40619047Y-78202380D01*
X40642857Y-78178571D01*
X40809523Y-77892857D02*
X41000000Y-77892857D01*
X40880952Y-77726190D02*
X40880952Y-78154761D01*
X40904761Y-78202380D01*
X40952380Y-78226190D01*
X41000000Y-78226190D01*
X37119047Y-70750000D02*
X37071428Y-70726190D01*
X37000000Y-70726190D01*
X36928571Y-70750000D01*
X36880952Y-70797619D01*
X36857142Y-70845238D01*
X36833333Y-70940476D01*
X36833333Y-71011904D01*
X36857142Y-71107142D01*
X36880952Y-71154761D01*
X36928571Y-71202380D01*
X37000000Y-71226190D01*
X37047619Y-71226190D01*
X37119047Y-71202380D01*
X37142857Y-71178571D01*
X37142857Y-71011904D01*
X37047619Y-71011904D01*
X37357142Y-71226190D02*
X37357142Y-70726190D01*
X37642857Y-71226190D01*
X37642857Y-70726190D01*
X37880952Y-71226190D02*
X37880952Y-70726190D01*
X38000000Y-70726190D01*
X38071428Y-70750000D01*
X38119047Y-70797619D01*
X38142857Y-70845238D01*
X38166666Y-70940476D01*
X38166666Y-71011904D01*
X38142857Y-71107142D01*
X38119047Y-71154761D01*
X38071428Y-71202380D01*
X38000000Y-71226190D01*
X37880952Y-71226190D01*
X37071428Y-72226190D02*
X36833333Y-72226190D01*
X36833333Y-71726190D01*
X37238095Y-72226190D02*
X37238095Y-71726190D01*
X37642857Y-71964285D02*
X37714285Y-71988095D01*
X37738095Y-72011904D01*
X37761904Y-72059523D01*
X37761904Y-72130952D01*
X37738095Y-72178571D01*
X37714285Y-72202380D01*
X37666666Y-72226190D01*
X37476190Y-72226190D01*
X37476190Y-71726190D01*
X37642857Y-71726190D01*
X37690476Y-71750000D01*
X37714285Y-71773809D01*
X37738095Y-71821428D01*
X37738095Y-71869047D01*
X37714285Y-71916666D01*
X37690476Y-71940476D01*
X37642857Y-71964285D01*
X37476190Y-71964285D01*
X38261904Y-72226190D02*
X38095238Y-71988095D01*
X37976190Y-72226190D02*
X37976190Y-71726190D01*
X38166666Y-71726190D01*
X38214285Y-71750000D01*
X38238095Y-71773809D01*
X38261904Y-71821428D01*
X38261904Y-71892857D01*
X38238095Y-71940476D01*
X38214285Y-71964285D01*
X38166666Y-71988095D01*
X37976190Y-71988095D01*
X38476190Y-71964285D02*
X38642857Y-71964285D01*
X38714285Y-72226190D02*
X38476190Y-72226190D01*
X38476190Y-71726190D01*
X38714285Y-71726190D01*
X39190476Y-72226190D02*
X38904761Y-72226190D01*
X39047619Y-72226190D02*
X39047619Y-71726190D01*
X39000000Y-71797619D01*
X38952380Y-71845238D01*
X38904761Y-71869047D01*
X37071428Y-73226190D02*
X36833333Y-73226190D01*
X36833333Y-72726190D01*
X37238095Y-73226190D02*
X37238095Y-72726190D01*
X37642857Y-72964285D02*
X37714285Y-72988095D01*
X37738095Y-73011904D01*
X37761904Y-73059523D01*
X37761904Y-73130952D01*
X37738095Y-73178571D01*
X37714285Y-73202380D01*
X37666666Y-73226190D01*
X37476190Y-73226190D01*
X37476190Y-72726190D01*
X37642857Y-72726190D01*
X37690476Y-72750000D01*
X37714285Y-72773809D01*
X37738095Y-72821428D01*
X37738095Y-72869047D01*
X37714285Y-72916666D01*
X37690476Y-72940476D01*
X37642857Y-72964285D01*
X37476190Y-72964285D01*
X38261904Y-73226190D02*
X38095238Y-72988095D01*
X37976190Y-73226190D02*
X37976190Y-72726190D01*
X38166666Y-72726190D01*
X38214285Y-72750000D01*
X38238095Y-72773809D01*
X38261904Y-72821428D01*
X38261904Y-72892857D01*
X38238095Y-72940476D01*
X38214285Y-72964285D01*
X38166666Y-72988095D01*
X37976190Y-72988095D01*
X38476190Y-72964285D02*
X38642857Y-72964285D01*
X38714285Y-73226190D02*
X38476190Y-73226190D01*
X38476190Y-72726190D01*
X38714285Y-72726190D01*
X38904761Y-72773809D02*
X38928571Y-72750000D01*
X38976190Y-72726190D01*
X39095238Y-72726190D01*
X39142857Y-72750000D01*
X39166666Y-72773809D01*
X39190476Y-72821428D01*
X39190476Y-72869047D01*
X39166666Y-72940476D01*
X38880952Y-73226190D01*
X39190476Y-73226190D01*
X37119047Y-73750000D02*
X37071428Y-73726190D01*
X37000000Y-73726190D01*
X36928571Y-73750000D01*
X36880952Y-73797619D01*
X36857142Y-73845238D01*
X36833333Y-73940476D01*
X36833333Y-74011904D01*
X36857142Y-74107142D01*
X36880952Y-74154761D01*
X36928571Y-74202380D01*
X37000000Y-74226190D01*
X37047619Y-74226190D01*
X37119047Y-74202380D01*
X37142857Y-74178571D01*
X37142857Y-74011904D01*
X37047619Y-74011904D01*
X37357142Y-74226190D02*
X37357142Y-73726190D01*
X37642857Y-74226190D01*
X37642857Y-73726190D01*
X37880952Y-74226190D02*
X37880952Y-73726190D01*
X38000000Y-73726190D01*
X38071428Y-73750000D01*
X38119047Y-73797619D01*
X38142857Y-73845238D01*
X38166666Y-73940476D01*
X38166666Y-74011904D01*
X38142857Y-74107142D01*
X38119047Y-74154761D01*
X38071428Y-74202380D01*
X38000000Y-74226190D01*
X37880952Y-74226190D01*
X36797619Y-75226190D02*
X36797619Y-74726190D01*
X36988095Y-74726190D01*
X37035714Y-74750000D01*
X37059523Y-74773809D01*
X37083333Y-74821428D01*
X37083333Y-74892857D01*
X37059523Y-74940476D01*
X37035714Y-74964285D01*
X36988095Y-74988095D01*
X36797619Y-74988095D01*
X37250000Y-74726190D02*
X37369047Y-75226190D01*
X37464285Y-74869047D01*
X37559523Y-75226190D01*
X37678571Y-74726190D01*
X37869047Y-75226190D02*
X37869047Y-74726190D01*
X38035714Y-75083333D01*
X38202380Y-74726190D01*
X38202380Y-75226190D01*
X36833333Y-75726190D02*
X37000000Y-76226190D01*
X37166666Y-75726190D01*
X37619047Y-76178571D02*
X37595238Y-76202380D01*
X37523809Y-76226190D01*
X37476190Y-76226190D01*
X37404761Y-76202380D01*
X37357142Y-76154761D01*
X37333333Y-76107142D01*
X37309523Y-76011904D01*
X37309523Y-75940476D01*
X37333333Y-75845238D01*
X37357142Y-75797619D01*
X37404761Y-75750000D01*
X37476190Y-75726190D01*
X37523809Y-75726190D01*
X37595238Y-75750000D01*
X37619047Y-75773809D01*
X38119047Y-76178571D02*
X38095238Y-76202380D01*
X38023809Y-76226190D01*
X37976190Y-76226190D01*
X37904761Y-76202380D01*
X37857142Y-76154761D01*
X37833333Y-76107142D01*
X37809523Y-76011904D01*
X37809523Y-75940476D01*
X37833333Y-75845238D01*
X37857142Y-75797619D01*
X37904761Y-75750000D01*
X37976190Y-75726190D01*
X38023809Y-75726190D01*
X38095238Y-75750000D01*
X38119047Y-75773809D01*
D11*
X136738095Y-95000000D02*
X136642857Y-94952380D01*
X136500000Y-94952380D01*
X136357142Y-95000000D01*
X136261904Y-95095238D01*
X136214285Y-95190476D01*
X136166666Y-95380952D01*
X136166666Y-95523809D01*
X136214285Y-95714285D01*
X136261904Y-95809523D01*
X136357142Y-95904761D01*
X136500000Y-95952380D01*
X136595238Y-95952380D01*
X136738095Y-95904761D01*
X136785714Y-95857142D01*
X136785714Y-95523809D01*
X136595238Y-95523809D01*
X137214285Y-95952380D02*
X137214285Y-94952380D01*
X137785714Y-95952380D01*
X137785714Y-94952380D01*
X138261904Y-95952380D02*
X138261904Y-94952380D01*
X138500000Y-94952380D01*
X138642857Y-95000000D01*
X138738095Y-95095238D01*
X138785714Y-95190476D01*
X138833333Y-95380952D01*
X138833333Y-95523809D01*
X138785714Y-95714285D01*
X138738095Y-95809523D01*
X138642857Y-95904761D01*
X138500000Y-95952380D01*
X138261904Y-95952380D01*
X113738095Y-95000000D02*
X113642857Y-94952380D01*
X113500000Y-94952380D01*
X113357142Y-95000000D01*
X113261904Y-95095238D01*
X113214285Y-95190476D01*
X113166666Y-95380952D01*
X113166666Y-95523809D01*
X113214285Y-95714285D01*
X113261904Y-95809523D01*
X113357142Y-95904761D01*
X113500000Y-95952380D01*
X113595238Y-95952380D01*
X113738095Y-95904761D01*
X113785714Y-95857142D01*
X113785714Y-95523809D01*
X113595238Y-95523809D01*
X114214285Y-95952380D02*
X114214285Y-94952380D01*
X114785714Y-95952380D01*
X114785714Y-94952380D01*
X115261904Y-95952380D02*
X115261904Y-94952380D01*
X115500000Y-94952380D01*
X115642857Y-95000000D01*
X115738095Y-95095238D01*
X115785714Y-95190476D01*
X115833333Y-95380952D01*
X115833333Y-95523809D01*
X115785714Y-95714285D01*
X115738095Y-95809523D01*
X115642857Y-95904761D01*
X115500000Y-95952380D01*
X115261904Y-95952380D01*
X105166666Y-94952380D02*
X105500000Y-95952380D01*
X105833333Y-94952380D01*
X106738095Y-95857142D02*
X106690476Y-95904761D01*
X106547619Y-95952380D01*
X106452380Y-95952380D01*
X106309523Y-95904761D01*
X106214285Y-95809523D01*
X106166666Y-95714285D01*
X106119047Y-95523809D01*
X106119047Y-95380952D01*
X106166666Y-95190476D01*
X106214285Y-95095238D01*
X106309523Y-95000000D01*
X106452380Y-94952380D01*
X106547619Y-94952380D01*
X106690476Y-95000000D01*
X106738095Y-95047619D01*
X107738095Y-95857142D02*
X107690476Y-95904761D01*
X107547619Y-95952380D01*
X107452380Y-95952380D01*
X107309523Y-95904761D01*
X107214285Y-95809523D01*
X107166666Y-95714285D01*
X107119047Y-95523809D01*
X107119047Y-95380952D01*
X107166666Y-95190476D01*
X107214285Y-95095238D01*
X107309523Y-95000000D01*
X107452380Y-94952380D01*
X107547619Y-94952380D01*
X107690476Y-95000000D01*
X107738095Y-95047619D01*
X73214285Y-71452380D02*
X72738095Y-71452380D01*
X72738095Y-70452380D01*
X73738095Y-70452380D02*
X73928571Y-70452380D01*
X74023809Y-70500000D01*
X74119047Y-70595238D01*
X74166666Y-70785714D01*
X74166666Y-71119047D01*
X74119047Y-71309523D01*
X74023809Y-71404761D01*
X73928571Y-71452380D01*
X73738095Y-71452380D01*
X73642857Y-71404761D01*
X73547619Y-71309523D01*
X73500000Y-71119047D01*
X73500000Y-70785714D01*
X73547619Y-70595238D01*
X73642857Y-70500000D01*
X73738095Y-70452380D01*
X74500000Y-70452380D02*
X74738095Y-71452380D01*
X74928571Y-70738095D01*
X75119047Y-71452380D01*
X75357142Y-70452380D01*
X72452380Y-67452380D02*
X72452380Y-66452380D01*
X72452380Y-66928571D02*
X73023809Y-66928571D01*
X73023809Y-67452380D02*
X73023809Y-66452380D01*
X73500000Y-67452380D02*
X73500000Y-66452380D01*
X74500000Y-66500000D02*
X74404761Y-66452380D01*
X74261904Y-66452380D01*
X74119047Y-66500000D01*
X74023809Y-66595238D01*
X73976190Y-66690476D01*
X73928571Y-66880952D01*
X73928571Y-67023809D01*
X73976190Y-67214285D01*
X74023809Y-67309523D01*
X74119047Y-67404761D01*
X74261904Y-67452380D01*
X74357142Y-67452380D01*
X74500000Y-67404761D01*
X74547619Y-67357142D01*
X74547619Y-67023809D01*
X74357142Y-67023809D01*
X74976190Y-67452380D02*
X74976190Y-66452380D01*
X74976190Y-66928571D02*
X75547619Y-66928571D01*
X75547619Y-67452380D02*
X75547619Y-66452380D01*
X56285714Y-92952380D02*
X56285714Y-91952380D01*
X56523809Y-91952380D01*
X56666666Y-92000000D01*
X56761904Y-92095238D01*
X56809523Y-92190476D01*
X56857142Y-92380952D01*
X56857142Y-92523809D01*
X56809523Y-92714285D01*
X56761904Y-92809523D01*
X56666666Y-92904761D01*
X56523809Y-92952380D01*
X56285714Y-92952380D01*
X57809523Y-92952380D02*
X57238095Y-92952380D01*
X57523809Y-92952380D02*
X57523809Y-91952380D01*
X57428571Y-92095238D01*
X57333333Y-92190476D01*
X57238095Y-92238095D01*
X58142857Y-91952380D02*
X58761904Y-91952380D01*
X58428571Y-92333333D01*
X58571428Y-92333333D01*
X58666666Y-92380952D01*
X58714285Y-92428571D01*
X58761904Y-92523809D01*
X58761904Y-92761904D01*
X58714285Y-92857142D01*
X58666666Y-92904761D01*
X58571428Y-92952380D01*
X58285714Y-92952380D01*
X58190476Y-92904761D01*
X58142857Y-92857142D01*
X56261904Y-89452380D02*
X56880952Y-89452380D01*
X56547619Y-89833333D01*
X56690476Y-89833333D01*
X56785714Y-89880952D01*
X56833333Y-89928571D01*
X56880952Y-90023809D01*
X56880952Y-90261904D01*
X56833333Y-90357142D01*
X56785714Y-90404761D01*
X56690476Y-90452380D01*
X56404761Y-90452380D01*
X56309523Y-90404761D01*
X56261904Y-90357142D01*
X57166666Y-89452380D02*
X57500000Y-90452380D01*
X57833333Y-89452380D01*
X58071428Y-89452380D02*
X58690476Y-89452380D01*
X58357142Y-89833333D01*
X58500000Y-89833333D01*
X58595238Y-89880952D01*
X58642857Y-89928571D01*
X58690476Y-90023809D01*
X58690476Y-90261904D01*
X58642857Y-90357142D01*
X58595238Y-90404761D01*
X58500000Y-90452380D01*
X58214285Y-90452380D01*
X58119047Y-90404761D01*
X58071428Y-90357142D01*
X56928571Y-87952380D02*
X56595238Y-87476190D01*
X56357142Y-87952380D02*
X56357142Y-86952380D01*
X56738095Y-86952380D01*
X56833333Y-87000000D01*
X56880952Y-87047619D01*
X56928571Y-87142857D01*
X56928571Y-87285714D01*
X56880952Y-87380952D01*
X56833333Y-87428571D01*
X56738095Y-87476190D01*
X56357142Y-87476190D01*
X57357142Y-87428571D02*
X57690476Y-87428571D01*
X57833333Y-87952380D02*
X57357142Y-87952380D01*
X57357142Y-86952380D01*
X57833333Y-86952380D01*
X58595238Y-87428571D02*
X58261904Y-87428571D01*
X58261904Y-87952380D02*
X58261904Y-86952380D01*
X58738095Y-86952380D01*
X57285714Y-85166666D02*
X57761904Y-85166666D01*
X57190476Y-85452380D02*
X57523809Y-84452380D01*
X57857142Y-85452380D01*
X58380952Y-84452380D02*
X58476190Y-84452380D01*
X58571428Y-84500000D01*
X58619047Y-84547619D01*
X58666666Y-84642857D01*
X58714285Y-84833333D01*
X58714285Y-85071428D01*
X58666666Y-85261904D01*
X58619047Y-85357142D01*
X58571428Y-85404761D01*
X58476190Y-85452380D01*
X58380952Y-85452380D01*
X58285714Y-85404761D01*
X58238095Y-85357142D01*
X58190476Y-85261904D01*
X58142857Y-85071428D01*
X58142857Y-84833333D01*
X58190476Y-84642857D01*
X58238095Y-84547619D01*
X58285714Y-84500000D01*
X58380952Y-84452380D01*
X57285714Y-82666666D02*
X57761904Y-82666666D01*
X57190476Y-82952380D02*
X57523809Y-81952380D01*
X57857142Y-82952380D01*
X58714285Y-82952380D02*
X58142857Y-82952380D01*
X58428571Y-82952380D02*
X58428571Y-81952380D01*
X58333333Y-82095238D01*
X58238095Y-82190476D01*
X58142857Y-82238095D01*
X57285714Y-80166666D02*
X57761904Y-80166666D01*
X57190476Y-80452380D02*
X57523809Y-79452380D01*
X57857142Y-80452380D01*
X58142857Y-79547619D02*
X58190476Y-79500000D01*
X58285714Y-79452380D01*
X58523809Y-79452380D01*
X58619047Y-79500000D01*
X58666666Y-79547619D01*
X58714285Y-79642857D01*
X58714285Y-79738095D01*
X58666666Y-79880952D01*
X58095238Y-80452380D01*
X58714285Y-80452380D01*
X57285714Y-77666666D02*
X57761904Y-77666666D01*
X57190476Y-77952380D02*
X57523809Y-76952380D01*
X57857142Y-77952380D01*
X58095238Y-76952380D02*
X58714285Y-76952380D01*
X58380952Y-77333333D01*
X58523809Y-77333333D01*
X58619047Y-77380952D01*
X58666666Y-77428571D01*
X58714285Y-77523809D01*
X58714285Y-77761904D01*
X58666666Y-77857142D01*
X58619047Y-77904761D01*
X58523809Y-77952380D01*
X58238095Y-77952380D01*
X58142857Y-77904761D01*
X58095238Y-77857142D01*
X57285714Y-74666666D02*
X57761904Y-74666666D01*
X57190476Y-74952380D02*
X57523809Y-73952380D01*
X57857142Y-74952380D01*
X58619047Y-74285714D02*
X58619047Y-74952380D01*
X58380952Y-73904761D02*
X58142857Y-74619047D01*
X58761904Y-74619047D01*
X57285714Y-72166666D02*
X57761904Y-72166666D01*
X57190476Y-72452380D02*
X57523809Y-71452380D01*
X57857142Y-72452380D01*
X58666666Y-71452380D02*
X58190476Y-71452380D01*
X58142857Y-71928571D01*
X58190476Y-71880952D01*
X58285714Y-71833333D01*
X58523809Y-71833333D01*
X58619047Y-71880952D01*
X58666666Y-71928571D01*
X58714285Y-72023809D01*
X58714285Y-72261904D01*
X58666666Y-72357142D01*
X58619047Y-72404761D01*
X58523809Y-72452380D01*
X58285714Y-72452380D01*
X58190476Y-72404761D01*
X58142857Y-72357142D01*
X57285714Y-69666666D02*
X57761904Y-69666666D01*
X57190476Y-69952380D02*
X57523809Y-68952380D01*
X57857142Y-69952380D01*
X58619047Y-68952380D02*
X58428571Y-68952380D01*
X58333333Y-69000000D01*
X58285714Y-69047619D01*
X58190476Y-69190476D01*
X58142857Y-69380952D01*
X58142857Y-69761904D01*
X58190476Y-69857142D01*
X58238095Y-69904761D01*
X58333333Y-69952380D01*
X58523809Y-69952380D01*
X58619047Y-69904761D01*
X58666666Y-69857142D01*
X58714285Y-69761904D01*
X58714285Y-69523809D01*
X58666666Y-69428571D01*
X58619047Y-69380952D01*
X58523809Y-69333333D01*
X58333333Y-69333333D01*
X58238095Y-69380952D01*
X58190476Y-69428571D01*
X58142857Y-69523809D01*
X57285714Y-67166666D02*
X57761904Y-67166666D01*
X57190476Y-67452380D02*
X57523809Y-66452380D01*
X57857142Y-67452380D01*
X58095238Y-66452380D02*
X58761904Y-66452380D01*
X58333333Y-67452380D01*
X57309523Y-63952380D02*
X56833333Y-63952380D01*
X56785714Y-64428571D01*
X56833333Y-64380952D01*
X56928571Y-64333333D01*
X57166666Y-64333333D01*
X57261904Y-64380952D01*
X57309523Y-64428571D01*
X57357142Y-64523809D01*
X57357142Y-64761904D01*
X57309523Y-64857142D01*
X57261904Y-64904761D01*
X57166666Y-64952380D01*
X56928571Y-64952380D01*
X56833333Y-64904761D01*
X56785714Y-64857142D01*
X57642857Y-63952380D02*
X57976190Y-64952380D01*
X58309523Y-63952380D01*
X56952380Y-62452380D02*
X56619047Y-61976190D01*
X56380952Y-62452380D02*
X56380952Y-61452380D01*
X56761904Y-61452380D01*
X56857142Y-61500000D01*
X56904761Y-61547619D01*
X56952380Y-61642857D01*
X56952380Y-61785714D01*
X56904761Y-61880952D01*
X56857142Y-61928571D01*
X56761904Y-61976190D01*
X56380952Y-61976190D01*
X57333333Y-62404761D02*
X57476190Y-62452380D01*
X57714285Y-62452380D01*
X57809523Y-62404761D01*
X57857142Y-62357142D01*
X57904761Y-62261904D01*
X57904761Y-62166666D01*
X57857142Y-62071428D01*
X57809523Y-62023809D01*
X57714285Y-61976190D01*
X57523809Y-61928571D01*
X57428571Y-61880952D01*
X57380952Y-61833333D01*
X57333333Y-61738095D01*
X57333333Y-61642857D01*
X57380952Y-61547619D01*
X57428571Y-61500000D01*
X57523809Y-61452380D01*
X57761904Y-61452380D01*
X57904761Y-61500000D01*
X58190476Y-61452380D02*
X58761904Y-61452380D01*
X58476190Y-62452380D02*
X58476190Y-61452380D01*
X56738095Y-59000000D02*
X56642857Y-58952380D01*
X56500000Y-58952380D01*
X56357142Y-59000000D01*
X56261904Y-59095238D01*
X56214285Y-59190476D01*
X56166666Y-59380952D01*
X56166666Y-59523809D01*
X56214285Y-59714285D01*
X56261904Y-59809523D01*
X56357142Y-59904761D01*
X56500000Y-59952380D01*
X56595238Y-59952380D01*
X56738095Y-59904761D01*
X56785714Y-59857142D01*
X56785714Y-59523809D01*
X56595238Y-59523809D01*
X57214285Y-59952380D02*
X57214285Y-58952380D01*
X57785714Y-59952380D01*
X57785714Y-58952380D01*
X58261904Y-59952380D02*
X58261904Y-58952380D01*
X58500000Y-58952380D01*
X58642857Y-59000000D01*
X58738095Y-59095238D01*
X58785714Y-59190476D01*
X58833333Y-59380952D01*
X58833333Y-59523809D01*
X58785714Y-59714285D01*
X58738095Y-59809523D01*
X58642857Y-59904761D01*
X58500000Y-59952380D01*
X58261904Y-59952380D01*
X56404761Y-56452380D02*
X56738095Y-57452380D01*
X57071428Y-56452380D01*
X57404761Y-57452380D02*
X57404761Y-56452380D01*
X57880952Y-57452380D02*
X57880952Y-56452380D01*
X58452380Y-57452380D01*
X58452380Y-56452380D01*
X46761904Y-56952380D02*
X47333333Y-56952380D01*
X47047619Y-57952380D02*
X47047619Y-56952380D01*
X47571428Y-56952380D02*
X48238095Y-57952380D01*
X48238095Y-56952380D02*
X47571428Y-57952380D01*
X49142857Y-57952380D02*
X48571428Y-57952380D01*
X48857142Y-57952380D02*
X48857142Y-56952380D01*
X48761904Y-57095238D01*
X48666666Y-57190476D01*
X48571428Y-57238095D01*
X47357142Y-60452380D02*
X47023809Y-59976190D01*
X46785714Y-60452380D02*
X46785714Y-59452380D01*
X47166666Y-59452380D01*
X47261904Y-59500000D01*
X47309523Y-59547619D01*
X47357142Y-59642857D01*
X47357142Y-59785714D01*
X47309523Y-59880952D01*
X47261904Y-59928571D01*
X47166666Y-59976190D01*
X46785714Y-59976190D01*
X47690476Y-59452380D02*
X48357142Y-60452380D01*
X48357142Y-59452380D02*
X47690476Y-60452380D01*
X48928571Y-59452380D02*
X49023809Y-59452380D01*
X49119047Y-59500000D01*
X49166666Y-59547619D01*
X49214285Y-59642857D01*
X49261904Y-59833333D01*
X49261904Y-60071428D01*
X49214285Y-60261904D01*
X49166666Y-60357142D01*
X49119047Y-60404761D01*
X49023809Y-60452380D01*
X48928571Y-60452380D01*
X48833333Y-60404761D01*
X48785714Y-60357142D01*
X48738095Y-60261904D01*
X48690476Y-60071428D01*
X48690476Y-59833333D01*
X48738095Y-59642857D01*
X48785714Y-59547619D01*
X48833333Y-59500000D01*
X48928571Y-59452380D01*
X47452380Y-62952380D02*
X47119047Y-62476190D01*
X46880952Y-62952380D02*
X46880952Y-61952380D01*
X47261904Y-61952380D01*
X47357142Y-62000000D01*
X47404761Y-62047619D01*
X47452380Y-62142857D01*
X47452380Y-62285714D01*
X47404761Y-62380952D01*
X47357142Y-62428571D01*
X47261904Y-62476190D01*
X46880952Y-62476190D01*
X47833333Y-62904761D02*
X47976190Y-62952380D01*
X48214285Y-62952380D01*
X48309523Y-62904761D01*
X48357142Y-62857142D01*
X48404761Y-62761904D01*
X48404761Y-62666666D01*
X48357142Y-62571428D01*
X48309523Y-62523809D01*
X48214285Y-62476190D01*
X48023809Y-62428571D01*
X47928571Y-62380952D01*
X47880952Y-62333333D01*
X47833333Y-62238095D01*
X47833333Y-62142857D01*
X47880952Y-62047619D01*
X47928571Y-62000000D01*
X48023809Y-61952380D01*
X48261904Y-61952380D01*
X48404761Y-62000000D01*
X48690476Y-61952380D02*
X49261904Y-61952380D01*
X48976190Y-62952380D02*
X48976190Y-61952380D01*
X47238095Y-64500000D02*
X47142857Y-64452380D01*
X47000000Y-64452380D01*
X46857142Y-64500000D01*
X46761904Y-64595238D01*
X46714285Y-64690476D01*
X46666666Y-64880952D01*
X46666666Y-65023809D01*
X46714285Y-65214285D01*
X46761904Y-65309523D01*
X46857142Y-65404761D01*
X47000000Y-65452380D01*
X47095238Y-65452380D01*
X47238095Y-65404761D01*
X47285714Y-65357142D01*
X47285714Y-65023809D01*
X47095238Y-65023809D01*
X47714285Y-65452380D02*
X47714285Y-64452380D01*
X48285714Y-65452380D01*
X48285714Y-64452380D01*
X48761904Y-65452380D02*
X48761904Y-64452380D01*
X49000000Y-64452380D01*
X49142857Y-64500000D01*
X49238095Y-64595238D01*
X49285714Y-64690476D01*
X49333333Y-64880952D01*
X49333333Y-65023809D01*
X49285714Y-65214285D01*
X49238095Y-65309523D01*
X49142857Y-65404761D01*
X49000000Y-65452380D01*
X48761904Y-65452380D01*
X46761904Y-67952380D02*
X46761904Y-66952380D01*
X47000000Y-66952380D01*
X47142857Y-67000000D01*
X47238095Y-67095238D01*
X47285714Y-67190476D01*
X47333333Y-67380952D01*
X47333333Y-67523809D01*
X47285714Y-67714285D01*
X47238095Y-67809523D01*
X47142857Y-67904761D01*
X47000000Y-67952380D01*
X46761904Y-67952380D01*
X47714285Y-67047619D02*
X47761904Y-67000000D01*
X47857142Y-66952380D01*
X48095238Y-66952380D01*
X48190476Y-67000000D01*
X48238095Y-67047619D01*
X48285714Y-67142857D01*
X48285714Y-67238095D01*
X48238095Y-67380952D01*
X47666666Y-67952380D01*
X48285714Y-67952380D01*
X46761904Y-70452380D02*
X46761904Y-69452380D01*
X47000000Y-69452380D01*
X47142857Y-69500000D01*
X47238095Y-69595238D01*
X47285714Y-69690476D01*
X47333333Y-69880952D01*
X47333333Y-70023809D01*
X47285714Y-70214285D01*
X47238095Y-70309523D01*
X47142857Y-70404761D01*
X47000000Y-70452380D01*
X46761904Y-70452380D01*
X47666666Y-69452380D02*
X48285714Y-69452380D01*
X47952380Y-69833333D01*
X48095238Y-69833333D01*
X48190476Y-69880952D01*
X48238095Y-69928571D01*
X48285714Y-70023809D01*
X48285714Y-70261904D01*
X48238095Y-70357142D01*
X48190476Y-70404761D01*
X48095238Y-70452380D01*
X47809523Y-70452380D01*
X47714285Y-70404761D01*
X47666666Y-70357142D01*
X46761904Y-72952380D02*
X46761904Y-71952380D01*
X47000000Y-71952380D01*
X47142857Y-72000000D01*
X47238095Y-72095238D01*
X47285714Y-72190476D01*
X47333333Y-72380952D01*
X47333333Y-72523809D01*
X47285714Y-72714285D01*
X47238095Y-72809523D01*
X47142857Y-72904761D01*
X47000000Y-72952380D01*
X46761904Y-72952380D01*
X48190476Y-72285714D02*
X48190476Y-72952380D01*
X47952380Y-71904761D02*
X47714285Y-72619047D01*
X48333333Y-72619047D01*
X46761904Y-75452380D02*
X46761904Y-74452380D01*
X47000000Y-74452380D01*
X47142857Y-74500000D01*
X47238095Y-74595238D01*
X47285714Y-74690476D01*
X47333333Y-74880952D01*
X47333333Y-75023809D01*
X47285714Y-75214285D01*
X47238095Y-75309523D01*
X47142857Y-75404761D01*
X47000000Y-75452380D01*
X46761904Y-75452380D01*
X48238095Y-74452380D02*
X47761904Y-74452380D01*
X47714285Y-74928571D01*
X47761904Y-74880952D01*
X47857142Y-74833333D01*
X48095238Y-74833333D01*
X48190476Y-74880952D01*
X48238095Y-74928571D01*
X48285714Y-75023809D01*
X48285714Y-75261904D01*
X48238095Y-75357142D01*
X48190476Y-75404761D01*
X48095238Y-75452380D01*
X47857142Y-75452380D01*
X47761904Y-75404761D01*
X47714285Y-75357142D01*
X46761904Y-77952380D02*
X46761904Y-76952380D01*
X47000000Y-76952380D01*
X47142857Y-77000000D01*
X47238095Y-77095238D01*
X47285714Y-77190476D01*
X47333333Y-77380952D01*
X47333333Y-77523809D01*
X47285714Y-77714285D01*
X47238095Y-77809523D01*
X47142857Y-77904761D01*
X47000000Y-77952380D01*
X46761904Y-77952380D01*
X48190476Y-76952380D02*
X48000000Y-76952380D01*
X47904761Y-77000000D01*
X47857142Y-77047619D01*
X47761904Y-77190476D01*
X47714285Y-77380952D01*
X47714285Y-77761904D01*
X47761904Y-77857142D01*
X47809523Y-77904761D01*
X47904761Y-77952380D01*
X48095238Y-77952380D01*
X48190476Y-77904761D01*
X48238095Y-77857142D01*
X48285714Y-77761904D01*
X48285714Y-77523809D01*
X48238095Y-77428571D01*
X48190476Y-77380952D01*
X48095238Y-77333333D01*
X47904761Y-77333333D01*
X47809523Y-77380952D01*
X47761904Y-77428571D01*
X47714285Y-77523809D01*
X46761904Y-80452380D02*
X46761904Y-79452380D01*
X47000000Y-79452380D01*
X47142857Y-79500000D01*
X47238095Y-79595238D01*
X47285714Y-79690476D01*
X47333333Y-79880952D01*
X47333333Y-80023809D01*
X47285714Y-80214285D01*
X47238095Y-80309523D01*
X47142857Y-80404761D01*
X47000000Y-80452380D01*
X46761904Y-80452380D01*
X47666666Y-79452380D02*
X48333333Y-79452380D01*
X47904761Y-80452380D01*
X46761904Y-82952380D02*
X46761904Y-81952380D01*
X47000000Y-81952380D01*
X47142857Y-82000000D01*
X47238095Y-82095238D01*
X47285714Y-82190476D01*
X47333333Y-82380952D01*
X47333333Y-82523809D01*
X47285714Y-82714285D01*
X47238095Y-82809523D01*
X47142857Y-82904761D01*
X47000000Y-82952380D01*
X46761904Y-82952380D01*
X47904761Y-82380952D02*
X47809523Y-82333333D01*
X47761904Y-82285714D01*
X47714285Y-82190476D01*
X47714285Y-82142857D01*
X47761904Y-82047619D01*
X47809523Y-82000000D01*
X47904761Y-81952380D01*
X48095238Y-81952380D01*
X48190476Y-82000000D01*
X48238095Y-82047619D01*
X48285714Y-82142857D01*
X48285714Y-82190476D01*
X48238095Y-82285714D01*
X48190476Y-82333333D01*
X48095238Y-82380952D01*
X47904761Y-82380952D01*
X47809523Y-82428571D01*
X47761904Y-82476190D01*
X47714285Y-82571428D01*
X47714285Y-82761904D01*
X47761904Y-82857142D01*
X47809523Y-82904761D01*
X47904761Y-82952380D01*
X48095238Y-82952380D01*
X48190476Y-82904761D01*
X48238095Y-82857142D01*
X48285714Y-82761904D01*
X48285714Y-82571428D01*
X48238095Y-82476190D01*
X48190476Y-82428571D01*
X48095238Y-82380952D01*
X46761904Y-85452380D02*
X46761904Y-84452380D01*
X47000000Y-84452380D01*
X47142857Y-84500000D01*
X47238095Y-84595238D01*
X47285714Y-84690476D01*
X47333333Y-84880952D01*
X47333333Y-85023809D01*
X47285714Y-85214285D01*
X47238095Y-85309523D01*
X47142857Y-85404761D01*
X47000000Y-85452380D01*
X46761904Y-85452380D01*
X47809523Y-85452380D02*
X48000000Y-85452380D01*
X48095238Y-85404761D01*
X48142857Y-85357142D01*
X48238095Y-85214285D01*
X48285714Y-85023809D01*
X48285714Y-84642857D01*
X48238095Y-84547619D01*
X48190476Y-84500000D01*
X48095238Y-84452380D01*
X47904761Y-84452380D01*
X47809523Y-84500000D01*
X47761904Y-84547619D01*
X47714285Y-84642857D01*
X47714285Y-84880952D01*
X47761904Y-84976190D01*
X47809523Y-85023809D01*
X47904761Y-85071428D01*
X48095238Y-85071428D01*
X48190476Y-85023809D01*
X48238095Y-84976190D01*
X48285714Y-84880952D01*
X46785714Y-87952380D02*
X46785714Y-86952380D01*
X47023809Y-86952380D01*
X47166666Y-87000000D01*
X47261904Y-87095238D01*
X47309523Y-87190476D01*
X47357142Y-87380952D01*
X47357142Y-87523809D01*
X47309523Y-87714285D01*
X47261904Y-87809523D01*
X47166666Y-87904761D01*
X47023809Y-87952380D01*
X46785714Y-87952380D01*
X48309523Y-87952380D02*
X47738095Y-87952380D01*
X48023809Y-87952380D02*
X48023809Y-86952380D01*
X47928571Y-87095238D01*
X47833333Y-87190476D01*
X47738095Y-87238095D01*
X48928571Y-86952380D02*
X49023809Y-86952380D01*
X49119047Y-87000000D01*
X49166666Y-87047619D01*
X49214285Y-87142857D01*
X49261904Y-87333333D01*
X49261904Y-87571428D01*
X49214285Y-87761904D01*
X49166666Y-87857142D01*
X49119047Y-87904761D01*
X49023809Y-87952380D01*
X48928571Y-87952380D01*
X48833333Y-87904761D01*
X48785714Y-87857142D01*
X48738095Y-87761904D01*
X48690476Y-87571428D01*
X48690476Y-87333333D01*
X48738095Y-87142857D01*
X48785714Y-87047619D01*
X48833333Y-87000000D01*
X48928571Y-86952380D01*
X46785714Y-90952380D02*
X46785714Y-89952380D01*
X47023809Y-89952380D01*
X47166666Y-90000000D01*
X47261904Y-90095238D01*
X47309523Y-90190476D01*
X47357142Y-90380952D01*
X47357142Y-90523809D01*
X47309523Y-90714285D01*
X47261904Y-90809523D01*
X47166666Y-90904761D01*
X47023809Y-90952380D01*
X46785714Y-90952380D01*
X48309523Y-90952380D02*
X47738095Y-90952380D01*
X48023809Y-90952380D02*
X48023809Y-89952380D01*
X47928571Y-90095238D01*
X47833333Y-90190476D01*
X47738095Y-90238095D01*
X49261904Y-90952380D02*
X48690476Y-90952380D01*
X48976190Y-90952380D02*
X48976190Y-89952380D01*
X48880952Y-90095238D01*
X48785714Y-90190476D01*
X48690476Y-90238095D01*
X46785714Y-93452380D02*
X46785714Y-92452380D01*
X47023809Y-92452380D01*
X47166666Y-92500000D01*
X47261904Y-92595238D01*
X47309523Y-92690476D01*
X47357142Y-92880952D01*
X47357142Y-93023809D01*
X47309523Y-93214285D01*
X47261904Y-93309523D01*
X47166666Y-93404761D01*
X47023809Y-93452380D01*
X46785714Y-93452380D01*
X48309523Y-93452380D02*
X47738095Y-93452380D01*
X48023809Y-93452380D02*
X48023809Y-92452380D01*
X47928571Y-92595238D01*
X47833333Y-92690476D01*
X47738095Y-92738095D01*
X48690476Y-92547619D02*
X48738095Y-92500000D01*
X48833333Y-92452380D01*
X49071428Y-92452380D01*
X49166666Y-92500000D01*
X49214285Y-92547619D01*
X49261904Y-92642857D01*
X49261904Y-92738095D01*
X49214285Y-92880952D01*
X48642857Y-93452380D01*
X49261904Y-93452380D01*
D12*
X100000000Y-80000000D02*
X100000000Y-56000000D01*
X142000000Y-80000000D02*
X100000000Y-80000000D01*
X142000000Y-56000000D02*
X142000000Y-80000000D01*
X100000000Y-56000000D02*
X142000000Y-56000000D01*
X46270000Y-58270000D02*
X46270000Y-55730000D01*
X46270000Y-55730000D02*
X43600000Y-55730000D01*
X43600000Y-58270000D02*
X43600000Y-96500000D01*
X43600000Y-53060000D02*
X43600000Y-55730000D01*
X58970000Y-55730000D02*
X61640000Y-55730000D01*
X58970000Y-55730000D02*
X58970000Y-93830000D01*
X58970000Y-93830000D02*
X61640000Y-93830000D01*
X46270000Y-58270000D02*
X43600000Y-58270000D01*
X46270000Y-58270000D02*
X46270000Y-93830000D01*
X46270000Y-93830000D02*
X43600000Y-93830000D01*
X43600000Y-96500000D02*
X61640000Y-96500000D01*
X61640000Y-96500000D02*
X61640000Y-53060000D01*
X61640000Y-53060000D02*
X43600000Y-53060000D01*
X93200000Y-94100000D02*
X79800000Y-94100000D01*
X93200000Y-88100000D02*
X88250000Y-88100000D01*
X93200000Y-88100000D02*
X93200000Y-90700000D01*
X79800000Y-88100000D02*
X79800000Y-90700000D01*
X79800000Y-88100000D02*
X84750000Y-88100000D01*
X126800000Y-88100000D02*
X131750000Y-88100000D01*
X126800000Y-88100000D02*
X126800000Y-90700000D01*
X140200000Y-88100000D02*
X140200000Y-90700000D01*
X140200000Y-88100000D02*
X135250000Y-88100000D01*
X140200000Y-94100000D02*
X126800000Y-94100000D01*
X103800000Y-88100000D02*
X108750000Y-88100000D01*
X103800000Y-88100000D02*
X103800000Y-90700000D01*
X117200000Y-88100000D02*
X117200000Y-90700000D01*
X117200000Y-88100000D02*
X112250000Y-88100000D01*
X117200000Y-94100000D02*
X103800000Y-94100000D01*
X80100000Y-55350000D02*
X92400000Y-55350000D01*
X92400000Y-59930000D02*
X92400000Y-63070000D01*
X92400000Y-67650000D02*
X80100000Y-67650000D01*
X80100000Y-58070000D02*
X80100000Y-55350000D01*
X90929050Y-61540000D02*
G75*
G03X90929050Y-61540000I-4579050J0D01*
G01*
X80100000Y-67650000D02*
X80100000Y-64930000D01*
X80100000Y-63070000D02*
X80100000Y-59930000D01*
X92400000Y-64930000D02*
X92400000Y-67650000D01*
X92400000Y-55350000D02*
X92400000Y-58070000D01*
X92400000Y-68350000D02*
X92400000Y-71070000D01*
X92400000Y-77930000D02*
X92400000Y-80650000D01*
X80100000Y-76070000D02*
X80100000Y-72930000D01*
X80100000Y-80650000D02*
X80100000Y-77930000D01*
X90929050Y-74540000D02*
G75*
G03X90929050Y-74540000I-4579050J0D01*
G01*
X80100000Y-71070000D02*
X80100000Y-68350000D01*
X92400000Y-80650000D02*
X80100000Y-80650000D01*
X92400000Y-72930000D02*
X92400000Y-76070000D01*
X80100000Y-68350000D02*
X92400000Y-68350000D01*
X67740000Y-73410000D02*
X67740000Y-64590000D01*
X67740000Y-64590000D02*
X68050000Y-64590000D01*
X72260000Y-64590000D02*
X72260000Y-73410000D01*
X68050000Y-73410000D02*
X67740000Y-73410000D01*
X72260000Y-73410000D02*
X71950000Y-73410000D01*
X72260000Y-64590000D02*
X71950000Y-64590000D01*
X67040000Y-71500000D02*
X67540000Y-71000000D01*
X67540000Y-71000000D02*
X67040000Y-70500000D01*
X67040000Y-70500000D02*
X67040000Y-71500000D01*
X66550000Y-84070000D02*
X66550000Y-85570000D01*
X66550000Y-85570000D02*
X66820000Y-85570000D01*
X66820000Y-85570000D02*
X66820000Y-88400000D01*
X73450000Y-84070000D02*
X73450000Y-85570000D01*
X73450000Y-85570000D02*
X73180000Y-85570000D01*
X73180000Y-85570000D02*
X73180000Y-86670000D01*
X34815000Y-78560000D02*
X34190000Y-78560000D01*
X34190000Y-78560000D02*
X34190000Y-70440000D01*
X34190000Y-70440000D02*
X35105507Y-70440000D01*
X34190000Y-78210000D02*
X32190000Y-78210000D01*
X32190000Y-78210000D02*
X32190000Y-77790000D01*
X32190000Y-77790000D02*
X34190000Y-77790000D01*
X34190000Y-78150000D02*
X32190000Y-78150000D01*
X34190000Y-78030000D02*
X32190000Y-78030000D01*
X34190000Y-77910000D02*
X32190000Y-77910000D01*
X34815000Y-77500000D02*
X34190000Y-77500000D01*
X34190000Y-77210000D02*
X32190000Y-77210000D01*
X32190000Y-77210000D02*
X32190000Y-76790000D01*
X32190000Y-76790000D02*
X34190000Y-76790000D01*
X35031785Y-76500000D02*
X34190000Y-76500000D01*
X34190000Y-76210000D02*
X32190000Y-76210000D01*
X32190000Y-76210000D02*
X32190000Y-75790000D01*
X32190000Y-75790000D02*
X34190000Y-75790000D01*
X35031785Y-75500000D02*
X34190000Y-75500000D01*
X34190000Y-75210000D02*
X32190000Y-75210000D01*
X32190000Y-75210000D02*
X32190000Y-74790000D01*
X32190000Y-74790000D02*
X34190000Y-74790000D01*
X35031785Y-74500000D02*
X34190000Y-74500000D01*
X34190000Y-74210000D02*
X32190000Y-74210000D01*
X32190000Y-74210000D02*
X32190000Y-73790000D01*
X32190000Y-73790000D02*
X34190000Y-73790000D01*
X35031785Y-73500000D02*
X34190000Y-73500000D01*
X34190000Y-73210000D02*
X32190000Y-73210000D01*
X32190000Y-73210000D02*
X32190000Y-72790000D01*
X32190000Y-72790000D02*
X34190000Y-72790000D01*
X35031785Y-72500000D02*
X34190000Y-72500000D01*
X34190000Y-72210000D02*
X32190000Y-72210000D01*
X32190000Y-72210000D02*
X32190000Y-71790000D01*
X32190000Y-71790000D02*
X34190000Y-71790000D01*
X35031785Y-71500000D02*
X34190000Y-71500000D01*
X34190000Y-71210000D02*
X32190000Y-71210000D01*
X32190000Y-71210000D02*
X32190000Y-70790000D01*
X32190000Y-70790000D02*
X34190000Y-70790000D01*
X36185000Y-78000000D02*
X36185000Y-78685000D01*
X36185000Y-78685000D02*
X35500000Y-78685000D01*
D11*
X113766666Y-81052380D02*
X114338095Y-81052380D01*
X114052380Y-82052380D02*
X114052380Y-81052380D01*
X114671428Y-82052380D02*
X114671428Y-81052380D01*
X115004761Y-81766666D01*
X115338095Y-81052380D01*
X115338095Y-82052380D01*
X116338095Y-82052380D02*
X115766666Y-82052380D01*
X116052380Y-82052380D02*
X116052380Y-81052380D01*
X115957142Y-81195238D01*
X115861904Y-81290476D01*
X115766666Y-81338095D01*
X117195238Y-81052380D02*
X117004761Y-81052380D01*
X116909523Y-81100000D01*
X116861904Y-81147619D01*
X116766666Y-81290476D01*
X116719047Y-81480952D01*
X116719047Y-81861904D01*
X116766666Y-81957142D01*
X116814285Y-82004761D01*
X116909523Y-82052380D01*
X117100000Y-82052380D01*
X117195238Y-82004761D01*
X117242857Y-81957142D01*
X117290476Y-81861904D01*
X117290476Y-81623809D01*
X117242857Y-81528571D01*
X117195238Y-81480952D01*
X117100000Y-81433333D01*
X116909523Y-81433333D01*
X116814285Y-81480952D01*
X116766666Y-81528571D01*
X116719047Y-81623809D01*
X117623809Y-81052380D02*
X118242857Y-81052380D01*
X117909523Y-81433333D01*
X118052380Y-81433333D01*
X118147619Y-81480952D01*
X118195238Y-81528571D01*
X118242857Y-81623809D01*
X118242857Y-81861904D01*
X118195238Y-81957142D01*
X118147619Y-82004761D01*
X118052380Y-82052380D01*
X117766666Y-82052380D01*
X117671428Y-82004761D01*
X117623809Y-81957142D01*
X118576190Y-81052380D02*
X119242857Y-81052380D01*
X118814285Y-82052380D01*
X120385714Y-82052380D02*
X120385714Y-81052380D01*
X120623809Y-81052380D01*
X120766666Y-81100000D01*
X120861904Y-81195238D01*
X120909523Y-81290476D01*
X120957142Y-81480952D01*
X120957142Y-81623809D01*
X120909523Y-81814285D01*
X120861904Y-81909523D01*
X120766666Y-82004761D01*
X120623809Y-82052380D01*
X120385714Y-82052380D01*
X121385714Y-82052380D02*
X121385714Y-81385714D01*
X121385714Y-81052380D02*
X121338095Y-81100000D01*
X121385714Y-81147619D01*
X121433333Y-81100000D01*
X121385714Y-81052380D01*
X121385714Y-81147619D01*
X121814285Y-82004761D02*
X121909523Y-82052380D01*
X122100000Y-82052380D01*
X122195238Y-82004761D01*
X122242857Y-81909523D01*
X122242857Y-81861904D01*
X122195238Y-81766666D01*
X122100000Y-81719047D01*
X121957142Y-81719047D01*
X121861904Y-81671428D01*
X121814285Y-81576190D01*
X121814285Y-81528571D01*
X121861904Y-81433333D01*
X121957142Y-81385714D01*
X122100000Y-81385714D01*
X122195238Y-81433333D01*
X122671428Y-81385714D02*
X122671428Y-82385714D01*
X122671428Y-81433333D02*
X122766666Y-81385714D01*
X122957142Y-81385714D01*
X123052380Y-81433333D01*
X123100000Y-81480952D01*
X123147619Y-81576190D01*
X123147619Y-81861904D01*
X123100000Y-81957142D01*
X123052380Y-82004761D01*
X122957142Y-82052380D01*
X122766666Y-82052380D01*
X122671428Y-82004761D01*
X123719047Y-82052380D02*
X123623809Y-82004761D01*
X123576190Y-81909523D01*
X123576190Y-81052380D01*
X124528571Y-82052380D02*
X124528571Y-81528571D01*
X124480952Y-81433333D01*
X124385714Y-81385714D01*
X124195238Y-81385714D01*
X124100000Y-81433333D01*
X124528571Y-82004761D02*
X124433333Y-82052380D01*
X124195238Y-82052380D01*
X124100000Y-82004761D01*
X124052380Y-81909523D01*
X124052380Y-81814285D01*
X124100000Y-81719047D01*
X124195238Y-81671428D01*
X124433333Y-81671428D01*
X124528571Y-81623809D01*
X124909523Y-81385714D02*
X125147619Y-82052380D01*
X125385714Y-81385714D02*
X125147619Y-82052380D01*
X125052380Y-82290476D01*
X125004761Y-82338095D01*
X124909523Y-82385714D01*
X139838095Y-71500000D02*
X139742857Y-71452380D01*
X139600000Y-71452380D01*
X139457142Y-71500000D01*
X139361904Y-71595238D01*
X139314285Y-71690476D01*
X139266666Y-71880952D01*
X139266666Y-72023809D01*
X139314285Y-72214285D01*
X139361904Y-72309523D01*
X139457142Y-72404761D01*
X139600000Y-72452380D01*
X139695238Y-72452380D01*
X139838095Y-72404761D01*
X139885714Y-72357142D01*
X139885714Y-72023809D01*
X139695238Y-72023809D01*
X140314285Y-72452380D02*
X140314285Y-71452380D01*
X140885714Y-72452380D01*
X140885714Y-71452380D01*
X141361904Y-72452380D02*
X141361904Y-71452380D01*
X141600000Y-71452380D01*
X141742857Y-71500000D01*
X141838095Y-71595238D01*
X141885714Y-71690476D01*
X141933333Y-71880952D01*
X141933333Y-72023809D01*
X141885714Y-72214285D01*
X141838095Y-72309523D01*
X141742857Y-72404761D01*
X141600000Y-72452380D01*
X141361904Y-72452380D01*
X139376190Y-67252380D02*
X139376190Y-66252380D01*
X139614285Y-66252380D01*
X139757142Y-66300000D01*
X139852380Y-66395238D01*
X139900000Y-66490476D01*
X139947619Y-66680952D01*
X139947619Y-66823809D01*
X139900000Y-67014285D01*
X139852380Y-67109523D01*
X139757142Y-67204761D01*
X139614285Y-67252380D01*
X139376190Y-67252380D01*
X140376190Y-67252380D02*
X140376190Y-66252380D01*
X141042857Y-66252380D02*
X141233333Y-66252380D01*
X141328571Y-66300000D01*
X141423809Y-66395238D01*
X141471428Y-66585714D01*
X141471428Y-66919047D01*
X141423809Y-67109523D01*
X141328571Y-67204761D01*
X141233333Y-67252380D01*
X141042857Y-67252380D01*
X140947619Y-67204761D01*
X140852380Y-67109523D01*
X140804761Y-66919047D01*
X140804761Y-66585714D01*
X140852380Y-66395238D01*
X140947619Y-66300000D01*
X141042857Y-66252380D01*
X139804761Y-64557142D02*
X139757142Y-64604761D01*
X139614285Y-64652380D01*
X139519047Y-64652380D01*
X139376190Y-64604761D01*
X139280952Y-64509523D01*
X139233333Y-64414285D01*
X139185714Y-64223809D01*
X139185714Y-64080952D01*
X139233333Y-63890476D01*
X139280952Y-63795238D01*
X139376190Y-63700000D01*
X139519047Y-63652380D01*
X139614285Y-63652380D01*
X139757142Y-63700000D01*
X139804761Y-63747619D01*
X140709523Y-64652380D02*
X140233333Y-64652380D01*
X140233333Y-63652380D01*
X141042857Y-64652380D02*
X141042857Y-63652380D01*
X141614285Y-64652380D02*
X141185714Y-64080952D01*
X141614285Y-63652380D02*
X141042857Y-64223809D01*
X139409523Y-68652380D02*
X139742857Y-69652380D01*
X140076190Y-68652380D01*
X140838095Y-69604761D02*
X140742857Y-69652380D01*
X140552380Y-69652380D01*
X140457142Y-69604761D01*
X140409523Y-69557142D01*
X140361904Y-69461904D01*
X140361904Y-69176190D01*
X140409523Y-69080952D01*
X140457142Y-69033333D01*
X140552380Y-68985714D01*
X140742857Y-68985714D01*
X140838095Y-69033333D01*
X141695238Y-69604761D02*
X141600000Y-69652380D01*
X141409523Y-69652380D01*
X141314285Y-69604761D01*
X141266666Y-69557142D01*
X141219047Y-69461904D01*
X141219047Y-69176190D01*
X141266666Y-69080952D01*
X141314285Y-69033333D01*
X141409523Y-68985714D01*
X141600000Y-68985714D01*
X141695238Y-69033333D01*
X48143809Y-52086666D02*
X48620000Y-52086666D01*
X48048571Y-52372380D02*
X48381904Y-51372380D01*
X48715238Y-52372380D01*
X49048571Y-52372380D02*
X49048571Y-51705714D01*
X49048571Y-51896190D02*
X49096190Y-51800952D01*
X49143809Y-51753333D01*
X49239047Y-51705714D01*
X49334285Y-51705714D01*
X50096190Y-52372380D02*
X50096190Y-51372380D01*
X50096190Y-52324761D02*
X50000952Y-52372380D01*
X49810476Y-52372380D01*
X49715238Y-52324761D01*
X49667619Y-52277142D01*
X49620000Y-52181904D01*
X49620000Y-51896190D01*
X49667619Y-51800952D01*
X49715238Y-51753333D01*
X49810476Y-51705714D01*
X50000952Y-51705714D01*
X50096190Y-51753333D01*
X51000952Y-51705714D02*
X51000952Y-52372380D01*
X50572380Y-51705714D02*
X50572380Y-52229523D01*
X50620000Y-52324761D01*
X50715238Y-52372380D01*
X50858095Y-52372380D01*
X50953333Y-52324761D01*
X51000952Y-52277142D01*
X51477142Y-52372380D02*
X51477142Y-51705714D01*
X51477142Y-51372380D02*
X51429523Y-51420000D01*
X51477142Y-51467619D01*
X51524761Y-51420000D01*
X51477142Y-51372380D01*
X51477142Y-51467619D01*
X51953333Y-51705714D02*
X51953333Y-52372380D01*
X51953333Y-51800952D02*
X52000952Y-51753333D01*
X52096190Y-51705714D01*
X52239047Y-51705714D01*
X52334285Y-51753333D01*
X52381904Y-51848571D01*
X52381904Y-52372380D01*
X53000952Y-52372380D02*
X52905714Y-52324761D01*
X52858095Y-52277142D01*
X52810476Y-52181904D01*
X52810476Y-51896190D01*
X52858095Y-51800952D01*
X52905714Y-51753333D01*
X53000952Y-51705714D01*
X53143809Y-51705714D01*
X53239047Y-51753333D01*
X53286666Y-51800952D01*
X53334285Y-51896190D01*
X53334285Y-52181904D01*
X53286666Y-52277142D01*
X53239047Y-52324761D01*
X53143809Y-52372380D01*
X53000952Y-52372380D01*
X53762857Y-52372380D02*
X53762857Y-51372380D01*
X54334285Y-52372380D01*
X54334285Y-51372380D01*
X55239047Y-52372380D02*
X55239047Y-51848571D01*
X55191428Y-51753333D01*
X55096190Y-51705714D01*
X54905714Y-51705714D01*
X54810476Y-51753333D01*
X55239047Y-52324761D02*
X55143809Y-52372380D01*
X54905714Y-52372380D01*
X54810476Y-52324761D01*
X54762857Y-52229523D01*
X54762857Y-52134285D01*
X54810476Y-52039047D01*
X54905714Y-51991428D01*
X55143809Y-51991428D01*
X55239047Y-51943809D01*
X55715238Y-51705714D02*
X55715238Y-52372380D01*
X55715238Y-51800952D02*
X55762857Y-51753333D01*
X55858095Y-51705714D01*
X56000952Y-51705714D01*
X56096190Y-51753333D01*
X56143809Y-51848571D01*
X56143809Y-52372380D01*
X56762857Y-52372380D02*
X56667619Y-52324761D01*
X56620000Y-52277142D01*
X56572380Y-52181904D01*
X56572380Y-51896190D01*
X56620000Y-51800952D01*
X56667619Y-51753333D01*
X56762857Y-51705714D01*
X56905714Y-51705714D01*
X57000952Y-51753333D01*
X57048571Y-51800952D01*
X57096190Y-51896190D01*
X57096190Y-52181904D01*
X57048571Y-52277142D01*
X57000952Y-52324761D01*
X56905714Y-52372380D01*
X56762857Y-52372380D01*
X83904761Y-86116666D02*
X84380952Y-86116666D01*
X83809523Y-86402380D02*
X84142857Y-85402380D01*
X84476190Y-86402380D01*
X84809523Y-86402380D02*
X84809523Y-85735714D01*
X84809523Y-85926190D02*
X84857142Y-85830952D01*
X84904761Y-85783333D01*
X85000000Y-85735714D01*
X85095238Y-85735714D01*
X85857142Y-86402380D02*
X85857142Y-85402380D01*
X85857142Y-86354761D02*
X85761904Y-86402380D01*
X85571428Y-86402380D01*
X85476190Y-86354761D01*
X85428571Y-86307142D01*
X85380952Y-86211904D01*
X85380952Y-85926190D01*
X85428571Y-85830952D01*
X85476190Y-85783333D01*
X85571428Y-85735714D01*
X85761904Y-85735714D01*
X85857142Y-85783333D01*
X86761904Y-85735714D02*
X86761904Y-86402380D01*
X86333333Y-85735714D02*
X86333333Y-86259523D01*
X86380952Y-86354761D01*
X86476190Y-86402380D01*
X86619047Y-86402380D01*
X86714285Y-86354761D01*
X86761904Y-86307142D01*
X87238095Y-86402380D02*
X87238095Y-85735714D01*
X87238095Y-85402380D02*
X87190476Y-85450000D01*
X87238095Y-85497619D01*
X87285714Y-85450000D01*
X87238095Y-85402380D01*
X87238095Y-85497619D01*
X87714285Y-85735714D02*
X87714285Y-86402380D01*
X87714285Y-85830952D02*
X87761904Y-85783333D01*
X87857142Y-85735714D01*
X88000000Y-85735714D01*
X88095238Y-85783333D01*
X88142857Y-85878571D01*
X88142857Y-86402380D01*
X88761904Y-86402380D02*
X88666666Y-86354761D01*
X88619047Y-86307142D01*
X88571428Y-86211904D01*
X88571428Y-85926190D01*
X88619047Y-85830952D01*
X88666666Y-85783333D01*
X88761904Y-85735714D01*
X88904761Y-85735714D01*
X89000000Y-85783333D01*
X89047619Y-85830952D01*
X89095238Y-85926190D01*
X89095238Y-86211904D01*
X89047619Y-86307142D01*
X89000000Y-86354761D01*
X88904761Y-86402380D01*
X88761904Y-86402380D01*
X68348333Y-91187142D02*
X68300714Y-91234761D01*
X68157857Y-91282380D01*
X68062619Y-91282380D01*
X67919761Y-91234761D01*
X67824523Y-91139523D01*
X67776904Y-91044285D01*
X67729285Y-90853809D01*
X67729285Y-90710952D01*
X67776904Y-90520476D01*
X67824523Y-90425238D01*
X67919761Y-90330000D01*
X68062619Y-90282380D01*
X68157857Y-90282380D01*
X68300714Y-90330000D01*
X68348333Y-90377619D01*
X69300714Y-91282380D02*
X68729285Y-91282380D01*
X69015000Y-91282380D02*
X69015000Y-90282380D01*
X68919761Y-90425238D01*
X68824523Y-90520476D01*
X68729285Y-90568095D01*
X74527142Y-91681666D02*
X74574761Y-91729285D01*
X74622380Y-91872142D01*
X74622380Y-91967380D01*
X74574761Y-92110238D01*
X74479523Y-92205476D01*
X74384285Y-92253095D01*
X74193809Y-92300714D01*
X74050952Y-92300714D01*
X73860476Y-92253095D01*
X73765238Y-92205476D01*
X73670000Y-92110238D01*
X73622380Y-91967380D01*
X73622380Y-91872142D01*
X73670000Y-91729285D01*
X73717619Y-91681666D01*
X73717619Y-91300714D02*
X73670000Y-91253095D01*
X73622380Y-91157857D01*
X73622380Y-90919761D01*
X73670000Y-90824523D01*
X73717619Y-90776904D01*
X73812857Y-90729285D01*
X73908095Y-90729285D01*
X74050952Y-90776904D01*
X74622380Y-91348333D01*
X74622380Y-90729285D01*
X131380952Y-86402380D02*
X130904761Y-86402380D01*
X130904761Y-85402380D01*
X132142857Y-86402380D02*
X132142857Y-85878571D01*
X132095238Y-85783333D01*
X132000000Y-85735714D01*
X131809523Y-85735714D01*
X131714285Y-85783333D01*
X132142857Y-86354761D02*
X132047619Y-86402380D01*
X131809523Y-86402380D01*
X131714285Y-86354761D01*
X131666666Y-86259523D01*
X131666666Y-86164285D01*
X131714285Y-86069047D01*
X131809523Y-86021428D01*
X132047619Y-86021428D01*
X132142857Y-85973809D01*
X132619047Y-86402380D02*
X132619047Y-85402380D01*
X132619047Y-85783333D02*
X132714285Y-85735714D01*
X132904761Y-85735714D01*
X133000000Y-85783333D01*
X133047619Y-85830952D01*
X133095238Y-85926190D01*
X133095238Y-86211904D01*
X133047619Y-86307142D01*
X133000000Y-86354761D01*
X132904761Y-86402380D01*
X132714285Y-86402380D01*
X132619047Y-86354761D01*
X133523809Y-85735714D02*
X133523809Y-86592857D01*
X133476190Y-86688095D01*
X133380952Y-86735714D01*
X133333333Y-86735714D01*
X133523809Y-85402380D02*
X133476190Y-85450000D01*
X133523809Y-85497619D01*
X133571428Y-85450000D01*
X133523809Y-85402380D01*
X133523809Y-85497619D01*
X134428571Y-86402380D02*
X134428571Y-85878571D01*
X134380952Y-85783333D01*
X134285714Y-85735714D01*
X134095238Y-85735714D01*
X134000000Y-85783333D01*
X134428571Y-86354761D02*
X134333333Y-86402380D01*
X134095238Y-86402380D01*
X134000000Y-86354761D01*
X133952380Y-86259523D01*
X133952380Y-86164285D01*
X134000000Y-86069047D01*
X134095238Y-86021428D01*
X134333333Y-86021428D01*
X134428571Y-85973809D01*
X135333333Y-86354761D02*
X135238095Y-86402380D01*
X135047619Y-86402380D01*
X134952380Y-86354761D01*
X134904761Y-86307142D01*
X134857142Y-86211904D01*
X134857142Y-85926190D01*
X134904761Y-85830952D01*
X134952380Y-85783333D01*
X135047619Y-85735714D01*
X135238095Y-85735714D01*
X135333333Y-85783333D01*
X135761904Y-86402380D02*
X135761904Y-85402380D01*
X135857142Y-86021428D02*
X136142857Y-86402380D01*
X136142857Y-85735714D02*
X135761904Y-86116666D01*
X108166666Y-86354761D02*
X108309523Y-86402380D01*
X108547619Y-86402380D01*
X108642857Y-86354761D01*
X108690476Y-86307142D01*
X108738095Y-86211904D01*
X108738095Y-86116666D01*
X108690476Y-86021428D01*
X108642857Y-85973809D01*
X108547619Y-85926190D01*
X108357142Y-85878571D01*
X108261904Y-85830952D01*
X108214285Y-85783333D01*
X108166666Y-85688095D01*
X108166666Y-85592857D01*
X108214285Y-85497619D01*
X108261904Y-85450000D01*
X108357142Y-85402380D01*
X108595238Y-85402380D01*
X108738095Y-85450000D01*
X109547619Y-86354761D02*
X109452380Y-86402380D01*
X109261904Y-86402380D01*
X109166666Y-86354761D01*
X109119047Y-86259523D01*
X109119047Y-85878571D01*
X109166666Y-85783333D01*
X109261904Y-85735714D01*
X109452380Y-85735714D01*
X109547619Y-85783333D01*
X109595238Y-85878571D01*
X109595238Y-85973809D01*
X109119047Y-86069047D01*
X110023809Y-85735714D02*
X110023809Y-86402380D01*
X110023809Y-85830952D02*
X110071428Y-85783333D01*
X110166666Y-85735714D01*
X110309523Y-85735714D01*
X110404761Y-85783333D01*
X110452380Y-85878571D01*
X110452380Y-86402380D01*
X110880952Y-86354761D02*
X110976190Y-86402380D01*
X111166666Y-86402380D01*
X111261904Y-86354761D01*
X111309523Y-86259523D01*
X111309523Y-86211904D01*
X111261904Y-86116666D01*
X111166666Y-86069047D01*
X111023809Y-86069047D01*
X110928571Y-86021428D01*
X110880952Y-85926190D01*
X110880952Y-85878571D01*
X110928571Y-85783333D01*
X111023809Y-85735714D01*
X111166666Y-85735714D01*
X111261904Y-85783333D01*
X111880952Y-86402380D02*
X111785714Y-86354761D01*
X111738095Y-86307142D01*
X111690476Y-86211904D01*
X111690476Y-85926190D01*
X111738095Y-85830952D01*
X111785714Y-85783333D01*
X111880952Y-85735714D01*
X112023809Y-85735714D01*
X112119047Y-85783333D01*
X112166666Y-85830952D01*
X112214285Y-85926190D01*
X112214285Y-86211904D01*
X112166666Y-86307142D01*
X112119047Y-86354761D01*
X112023809Y-86402380D01*
X111880952Y-86402380D01*
X112642857Y-86402380D02*
X112642857Y-85735714D01*
X112642857Y-85926190D02*
X112690476Y-85830952D01*
X112738095Y-85783333D01*
X112833333Y-85735714D01*
X112928571Y-85735714D01*
X83166666Y-54428571D02*
X83309523Y-54476190D01*
X83357142Y-54523809D01*
X83404761Y-54619047D01*
X83404761Y-54761904D01*
X83357142Y-54857142D01*
X83309523Y-54904761D01*
X83214285Y-54952380D01*
X82833333Y-54952380D01*
X82833333Y-53952380D01*
X83166666Y-53952380D01*
X83261904Y-54000000D01*
X83309523Y-54047619D01*
X83357142Y-54142857D01*
X83357142Y-54238095D01*
X83309523Y-54333333D01*
X83261904Y-54380952D01*
X83166666Y-54428571D01*
X82833333Y-54428571D01*
X84261904Y-54285714D02*
X84261904Y-54952380D01*
X83833333Y-54285714D02*
X83833333Y-54809523D01*
X83880952Y-54904761D01*
X83976190Y-54952380D01*
X84119047Y-54952380D01*
X84214285Y-54904761D01*
X84261904Y-54857142D01*
X84595238Y-54285714D02*
X84976190Y-54285714D01*
X84738095Y-53952380D02*
X84738095Y-54809523D01*
X84785714Y-54904761D01*
X84880952Y-54952380D01*
X84976190Y-54952380D01*
X85166666Y-54285714D02*
X85547619Y-54285714D01*
X85309523Y-53952380D02*
X85309523Y-54809523D01*
X85357142Y-54904761D01*
X85452380Y-54952380D01*
X85547619Y-54952380D01*
X86023809Y-54952380D02*
X85928571Y-54904761D01*
X85880952Y-54857142D01*
X85833333Y-54761904D01*
X85833333Y-54476190D01*
X85880952Y-54380952D01*
X85928571Y-54333333D01*
X86023809Y-54285714D01*
X86166666Y-54285714D01*
X86261904Y-54333333D01*
X86309523Y-54380952D01*
X86357142Y-54476190D01*
X86357142Y-54761904D01*
X86309523Y-54857142D01*
X86261904Y-54904761D01*
X86166666Y-54952380D01*
X86023809Y-54952380D01*
X86785714Y-54285714D02*
X86785714Y-54952380D01*
X86785714Y-54380952D02*
X86833333Y-54333333D01*
X86928571Y-54285714D01*
X87071428Y-54285714D01*
X87166666Y-54333333D01*
X87214285Y-54428571D01*
X87214285Y-54952380D01*
X87690476Y-53952380D02*
X87690476Y-54761904D01*
X87738095Y-54857142D01*
X87785714Y-54904761D01*
X87880952Y-54952380D01*
X88071428Y-54952380D01*
X88166666Y-54904761D01*
X88214285Y-54857142D01*
X88261904Y-54761904D01*
X88261904Y-53952380D01*
X88738095Y-54285714D02*
X88738095Y-55285714D01*
X88738095Y-54333333D02*
X88833333Y-54285714D01*
X89023809Y-54285714D01*
X89119047Y-54333333D01*
X89166666Y-54380952D01*
X89214285Y-54476190D01*
X89214285Y-54761904D01*
X89166666Y-54857142D01*
X89119047Y-54904761D01*
X89023809Y-54952380D01*
X88833333Y-54952380D01*
X88738095Y-54904761D01*
X82214285Y-81428571D02*
X82357142Y-81476190D01*
X82404761Y-81523809D01*
X82452380Y-81619047D01*
X82452380Y-81761904D01*
X82404761Y-81857142D01*
X82357142Y-81904761D01*
X82261904Y-81952380D01*
X81880952Y-81952380D01*
X81880952Y-80952380D01*
X82214285Y-80952380D01*
X82309523Y-81000000D01*
X82357142Y-81047619D01*
X82404761Y-81142857D01*
X82404761Y-81238095D01*
X82357142Y-81333333D01*
X82309523Y-81380952D01*
X82214285Y-81428571D01*
X81880952Y-81428571D01*
X83309523Y-81285714D02*
X83309523Y-81952380D01*
X82880952Y-81285714D02*
X82880952Y-81809523D01*
X82928571Y-81904761D01*
X83023809Y-81952380D01*
X83166666Y-81952380D01*
X83261904Y-81904761D01*
X83309523Y-81857142D01*
X83642857Y-81285714D02*
X84023809Y-81285714D01*
X83785714Y-80952380D02*
X83785714Y-81809523D01*
X83833333Y-81904761D01*
X83928571Y-81952380D01*
X84023809Y-81952380D01*
X84214285Y-81285714D02*
X84595238Y-81285714D01*
X84357142Y-80952380D02*
X84357142Y-81809523D01*
X84404761Y-81904761D01*
X84500000Y-81952380D01*
X84595238Y-81952380D01*
X85071428Y-81952380D02*
X84976190Y-81904761D01*
X84928571Y-81857142D01*
X84880952Y-81761904D01*
X84880952Y-81476190D01*
X84928571Y-81380952D01*
X84976190Y-81333333D01*
X85071428Y-81285714D01*
X85214285Y-81285714D01*
X85309523Y-81333333D01*
X85357142Y-81380952D01*
X85404761Y-81476190D01*
X85404761Y-81761904D01*
X85357142Y-81857142D01*
X85309523Y-81904761D01*
X85214285Y-81952380D01*
X85071428Y-81952380D01*
X85833333Y-81285714D02*
X85833333Y-81952380D01*
X85833333Y-81380952D02*
X85880952Y-81333333D01*
X85976190Y-81285714D01*
X86119047Y-81285714D01*
X86214285Y-81333333D01*
X86261904Y-81428571D01*
X86261904Y-81952380D01*
X86738095Y-81952380D02*
X86738095Y-80952380D01*
X86976190Y-80952380D01*
X87119047Y-81000000D01*
X87214285Y-81095238D01*
X87261904Y-81190476D01*
X87309523Y-81380952D01*
X87309523Y-81523809D01*
X87261904Y-81714285D01*
X87214285Y-81809523D01*
X87119047Y-81904761D01*
X86976190Y-81952380D01*
X86738095Y-81952380D01*
X87880952Y-81952380D02*
X87785714Y-81904761D01*
X87738095Y-81857142D01*
X87690476Y-81761904D01*
X87690476Y-81476190D01*
X87738095Y-81380952D01*
X87785714Y-81333333D01*
X87880952Y-81285714D01*
X88023809Y-81285714D01*
X88119047Y-81333333D01*
X88166666Y-81380952D01*
X88214285Y-81476190D01*
X88214285Y-81761904D01*
X88166666Y-81857142D01*
X88119047Y-81904761D01*
X88023809Y-81952380D01*
X87880952Y-81952380D01*
X88547619Y-81285714D02*
X88738095Y-81952380D01*
X88928571Y-81476190D01*
X89119047Y-81952380D01*
X89309523Y-81285714D01*
X89690476Y-81285714D02*
X89690476Y-81952380D01*
X89690476Y-81380952D02*
X89738095Y-81333333D01*
X89833333Y-81285714D01*
X89976190Y-81285714D01*
X90071428Y-81333333D01*
X90119047Y-81428571D01*
X90119047Y-81952380D01*
X67462380Y-72738095D02*
X66462380Y-72738095D01*
X66795714Y-72261904D02*
X67462380Y-72261904D01*
X66890952Y-72261904D02*
X66843333Y-72214285D01*
X66795714Y-72119047D01*
X66795714Y-71976190D01*
X66843333Y-71880952D01*
X66938571Y-71833333D01*
X67462380Y-71833333D01*
X66795714Y-71500000D02*
X66795714Y-71119047D01*
X66462380Y-71357142D02*
X67319523Y-71357142D01*
X67414761Y-71309523D01*
X67462380Y-71214285D01*
X67462380Y-71119047D01*
X67414761Y-70404761D02*
X67462380Y-70500000D01*
X67462380Y-70690476D01*
X67414761Y-70785714D01*
X67319523Y-70833333D01*
X66938571Y-70833333D01*
X66843333Y-70785714D01*
X66795714Y-70690476D01*
X66795714Y-70500000D01*
X66843333Y-70404761D01*
X66938571Y-70357142D01*
X67033809Y-70357142D01*
X67129047Y-70833333D01*
X67462380Y-69928571D02*
X66795714Y-69928571D01*
X66986190Y-69928571D02*
X66890952Y-69880952D01*
X66843333Y-69833333D01*
X66795714Y-69738095D01*
X66795714Y-69642857D01*
X67462380Y-69309523D02*
X66795714Y-69309523D01*
X66986190Y-69309523D02*
X66890952Y-69261904D01*
X66843333Y-69214285D01*
X66795714Y-69119047D01*
X66795714Y-69023809D01*
X66795714Y-68261904D02*
X67462380Y-68261904D01*
X66795714Y-68690476D02*
X67319523Y-68690476D01*
X67414761Y-68642857D01*
X67462380Y-68547619D01*
X67462380Y-68404761D01*
X67414761Y-68309523D01*
X67367142Y-68261904D01*
X66795714Y-67785714D02*
X67795714Y-67785714D01*
X66843333Y-67785714D02*
X66795714Y-67690476D01*
X66795714Y-67500000D01*
X66843333Y-67404761D01*
X66890952Y-67357142D01*
X66986190Y-67309523D01*
X67271904Y-67309523D01*
X67367142Y-67357142D01*
X67414761Y-67404761D01*
X67462380Y-67500000D01*
X67462380Y-67690476D01*
X67414761Y-67785714D01*
X66795714Y-67023809D02*
X66795714Y-66642857D01*
X66462380Y-66880952D02*
X67319523Y-66880952D01*
X67414761Y-66833333D01*
X67462380Y-66738095D01*
X67462380Y-66642857D01*
X67462380Y-66166666D02*
X67414761Y-66261904D01*
X67367142Y-66309523D01*
X67271904Y-66357142D01*
X66986190Y-66357142D01*
X66890952Y-66309523D01*
X66843333Y-66261904D01*
X66795714Y-66166666D01*
X66795714Y-66023809D01*
X66843333Y-65928571D01*
X66890952Y-65880952D01*
X66986190Y-65833333D01*
X67271904Y-65833333D01*
X67367142Y-65880952D01*
X67414761Y-65928571D01*
X67462380Y-66023809D01*
X67462380Y-66166666D01*
X67462380Y-65404761D02*
X66795714Y-65404761D01*
X66986190Y-65404761D02*
X66890952Y-65357142D01*
X66843333Y-65309523D01*
X66795714Y-65214285D01*
X66795714Y-65119047D01*
X65952380Y-83952380D02*
X65476190Y-84285714D01*
X65952380Y-84523809D02*
X64952380Y-84523809D01*
X64952380Y-84142857D01*
X65000000Y-84047619D01*
X65047619Y-84000000D01*
X65142857Y-83952380D01*
X65285714Y-83952380D01*
X65380952Y-84000000D01*
X65428571Y-84047619D01*
X65476190Y-84142857D01*
X65476190Y-84523809D01*
X65904761Y-83142857D02*
X65952380Y-83238095D01*
X65952380Y-83428571D01*
X65904761Y-83523809D01*
X65809523Y-83571428D01*
X65428571Y-83571428D01*
X65333333Y-83523809D01*
X65285714Y-83428571D01*
X65285714Y-83238095D01*
X65333333Y-83142857D01*
X65428571Y-83095238D01*
X65523809Y-83095238D01*
X65619047Y-83571428D01*
X65285714Y-82238095D02*
X66095238Y-82238095D01*
X66190476Y-82285714D01*
X66238095Y-82333333D01*
X66285714Y-82428571D01*
X66285714Y-82571428D01*
X66238095Y-82666666D01*
X65904761Y-82238095D02*
X65952380Y-82333333D01*
X65952380Y-82523809D01*
X65904761Y-82619047D01*
X65857142Y-82666666D01*
X65761904Y-82714285D01*
X65476190Y-82714285D01*
X65380952Y-82666666D01*
X65333333Y-82619047D01*
X65285714Y-82523809D01*
X65285714Y-82333333D01*
X65333333Y-82238095D01*
X65285714Y-81333333D02*
X65952380Y-81333333D01*
X65285714Y-81761904D02*
X65809523Y-81761904D01*
X65904761Y-81714285D01*
X65952380Y-81619047D01*
X65952380Y-81476190D01*
X65904761Y-81380952D01*
X65857142Y-81333333D01*
X65952380Y-80714285D02*
X65904761Y-80809523D01*
X65809523Y-80857142D01*
X64952380Y-80857142D01*
X65952380Y-79904761D02*
X65428571Y-79904761D01*
X65333333Y-79952380D01*
X65285714Y-80047619D01*
X65285714Y-80238095D01*
X65333333Y-80333333D01*
X65904761Y-79904761D02*
X65952380Y-80000000D01*
X65952380Y-80238095D01*
X65904761Y-80333333D01*
X65809523Y-80380952D01*
X65714285Y-80380952D01*
X65619047Y-80333333D01*
X65571428Y-80238095D01*
X65571428Y-80000000D01*
X65523809Y-79904761D01*
X65952380Y-79000000D02*
X64952380Y-79000000D01*
X65904761Y-79000000D02*
X65952380Y-79095238D01*
X65952380Y-79285714D01*
X65904761Y-79380952D01*
X65857142Y-79428571D01*
X65761904Y-79476190D01*
X65476190Y-79476190D01*
X65380952Y-79428571D01*
X65333333Y-79380952D01*
X65285714Y-79285714D01*
X65285714Y-79095238D01*
X65333333Y-79000000D01*
X65952380Y-78380952D02*
X65904761Y-78476190D01*
X65857142Y-78523809D01*
X65761904Y-78571428D01*
X65476190Y-78571428D01*
X65380952Y-78523809D01*
X65333333Y-78476190D01*
X65285714Y-78380952D01*
X65285714Y-78238095D01*
X65333333Y-78142857D01*
X65380952Y-78095238D01*
X65476190Y-78047619D01*
X65761904Y-78047619D01*
X65857142Y-78095238D01*
X65904761Y-78142857D01*
X65952380Y-78238095D01*
X65952380Y-78380952D01*
X65952380Y-77619047D02*
X65285714Y-77619047D01*
X65476190Y-77619047D02*
X65380952Y-77571428D01*
X65333333Y-77523809D01*
X65285714Y-77428571D01*
X65285714Y-77333333D01*
X30785714Y-80071428D02*
X31785714Y-80071428D01*
X30833333Y-80071428D02*
X30785714Y-79976190D01*
X30785714Y-79785714D01*
X30833333Y-79690476D01*
X30880952Y-79642857D01*
X30976190Y-79595238D01*
X31261904Y-79595238D01*
X31357142Y-79642857D01*
X31404761Y-79690476D01*
X31452380Y-79785714D01*
X31452380Y-79976190D01*
X31404761Y-80071428D01*
X31452380Y-78738095D02*
X30928571Y-78738095D01*
X30833333Y-78785714D01*
X30785714Y-78880952D01*
X30785714Y-79071428D01*
X30833333Y-79166666D01*
X31404761Y-78738095D02*
X31452380Y-78833333D01*
X31452380Y-79071428D01*
X31404761Y-79166666D01*
X31309523Y-79214285D01*
X31214285Y-79214285D01*
X31119047Y-79166666D01*
X31071428Y-79071428D01*
X31071428Y-78833333D01*
X31023809Y-78738095D01*
X30928571Y-77928571D02*
X30928571Y-78261904D01*
X31452380Y-78261904D02*
X30452380Y-78261904D01*
X30452380Y-77785714D01*
X30785714Y-76976190D02*
X31452380Y-76976190D01*
X30785714Y-77404761D02*
X31309523Y-77404761D01*
X31404761Y-77357142D01*
X31452380Y-77261904D01*
X31452380Y-77119047D01*
X31404761Y-77023809D01*
X31357142Y-76976190D01*
X31404761Y-76119047D02*
X31452380Y-76214285D01*
X31452380Y-76404761D01*
X31404761Y-76500000D01*
X31309523Y-76547619D01*
X30928571Y-76547619D01*
X30833333Y-76500000D01*
X30785714Y-76404761D01*
X30785714Y-76214285D01*
X30833333Y-76119047D01*
X30928571Y-76071428D01*
X31023809Y-76071428D01*
X31119047Y-76547619D01*
X31452380Y-75642857D02*
X30785714Y-75642857D01*
X30976190Y-75642857D02*
X30880952Y-75595238D01*
X30833333Y-75547619D01*
X30785714Y-75452380D01*
X30785714Y-75357142D01*
X31452380Y-74595238D02*
X30928571Y-74595238D01*
X30833333Y-74642857D01*
X30785714Y-74738095D01*
X30785714Y-74928571D01*
X30833333Y-75023809D01*
X31404761Y-74595238D02*
X31452380Y-74690476D01*
X31452380Y-74928571D01*
X31404761Y-75023809D01*
X31309523Y-75071428D01*
X31214285Y-75071428D01*
X31119047Y-75023809D01*
X31071428Y-74928571D01*
X31071428Y-74690476D01*
X31023809Y-74595238D01*
X31071428Y-74119047D02*
X31071428Y-73357142D01*
X31452380Y-73738095D02*
X30690476Y-73738095D01*
X31452380Y-72880952D02*
X30452380Y-72880952D01*
X30452380Y-72500000D01*
X30500000Y-72404761D01*
X30547619Y-72357142D01*
X30642857Y-72309523D01*
X30785714Y-72309523D01*
X30880952Y-72357142D01*
X30928571Y-72404761D01*
X30976190Y-72500000D01*
X30976190Y-72880952D01*
X31452380Y-71738095D02*
X31404761Y-71833333D01*
X31357142Y-71880952D01*
X31261904Y-71928571D01*
X30976190Y-71928571D01*
X30880952Y-71880952D01*
X30833333Y-71833333D01*
X30785714Y-71738095D01*
X30785714Y-71595238D01*
X30833333Y-71500000D01*
X30880952Y-71452380D01*
X30976190Y-71404761D01*
X31261904Y-71404761D01*
X31357142Y-71452380D01*
X31404761Y-71500000D01*
X31452380Y-71595238D01*
X31452380Y-71738095D01*
X30785714Y-71071428D02*
X31452380Y-70880952D01*
X30976190Y-70690476D01*
X31452380Y-70500000D01*
X30785714Y-70309523D01*
X31404761Y-69547619D02*
X31452380Y-69642857D01*
X31452380Y-69833333D01*
X31404761Y-69928571D01*
X31309523Y-69976190D01*
X30928571Y-69976190D01*
X30833333Y-69928571D01*
X30785714Y-69833333D01*
X30785714Y-69642857D01*
X30833333Y-69547619D01*
X30928571Y-69500000D01*
X31023809Y-69500000D01*
X31119047Y-69976190D01*
X31452380Y-69071428D02*
X30785714Y-69071428D01*
X30976190Y-69071428D02*
X30880952Y-69023809D01*
X30833333Y-68976190D01*
X30785714Y-68880952D01*
X30785714Y-68785714D01*
M02*
