G04 #@! TF.GenerationSoftware,KiCad,Pcbnew,5.1.1-8be2ce7~80~ubuntu16.04.1*
G04 #@! TF.CreationDate,2019-04-17T15:24:41+02:00*
G04 #@! TF.ProjectId,ConNano,436f6e4e-616e-46f2-9e6b-696361645f70,rev?*
G04 #@! TF.SameCoordinates,Original*
G04 #@! TF.FileFunction,Soldermask,Top*
G04 #@! TF.FilePolarity,Negative*
%FSLAX46Y46*%
G04 Gerber Fmt 4.6, Leading zero omitted, Abs format (unit mm)*
G04 Created by KiCad (PCBNEW 5.1.1-8be2ce7~80~ubuntu16.04.1) date 2019-04-17 15:24:41*
%MOMM*%
%LPD*%
G04 APERTURE LIST*
%ADD10C,0.100000*%
G04 APERTURE END LIST*
D10*
G36*
X80126228Y-90913483D02*
G01*
X80314922Y-90970723D01*
X80488815Y-91063671D01*
X80641239Y-91188761D01*
X80766329Y-91341185D01*
X80859277Y-91515078D01*
X80916517Y-91703772D01*
X80931000Y-91850825D01*
X80931000Y-92949175D01*
X80916517Y-93096228D01*
X80859277Y-93284922D01*
X80766329Y-93458815D01*
X80641239Y-93611239D01*
X80488815Y-93736329D01*
X80314921Y-93829277D01*
X80126227Y-93886517D01*
X79930000Y-93905843D01*
X79733772Y-93886517D01*
X79545078Y-93829277D01*
X79371185Y-93736329D01*
X79218761Y-93611239D01*
X79093671Y-93458815D01*
X79000723Y-93284921D01*
X78943483Y-93096227D01*
X78929000Y-92949174D01*
X78929000Y-91850825D01*
X78943483Y-91703769D01*
X79000722Y-91515081D01*
X79093672Y-91341185D01*
X79218762Y-91188761D01*
X79371186Y-91063671D01*
X79545079Y-90970723D01*
X79733773Y-90913483D01*
X79930000Y-90894157D01*
X80126228Y-90913483D01*
X80126228Y-90913483D01*
G37*
G36*
X93266227Y-90913483D02*
G01*
X93454921Y-90970723D01*
X93628815Y-91063671D01*
X93781239Y-91188761D01*
X93906329Y-91341185D01*
X93999277Y-91515078D01*
X94056517Y-91703772D01*
X94071000Y-91850825D01*
X94071000Y-92949175D01*
X94056517Y-93096228D01*
X93999277Y-93284922D01*
X93906329Y-93458815D01*
X93781239Y-93611239D01*
X93628815Y-93736329D01*
X93454922Y-93829277D01*
X93266228Y-93886517D01*
X93070000Y-93905843D01*
X92873773Y-93886517D01*
X92685079Y-93829277D01*
X92511186Y-93736329D01*
X92358762Y-93611239D01*
X92233672Y-93458815D01*
X92140722Y-93284919D01*
X92083483Y-93096231D01*
X92069000Y-92949175D01*
X92069000Y-91850826D01*
X92083483Y-91703773D01*
X92140723Y-91515079D01*
X92233671Y-91341185D01*
X92358761Y-91188761D01*
X92511185Y-91063671D01*
X92685078Y-90970723D01*
X92873772Y-90913483D01*
X93070000Y-90894157D01*
X93266227Y-90913483D01*
X93266227Y-90913483D01*
G37*
G36*
X127126228Y-90913483D02*
G01*
X127314922Y-90970723D01*
X127488815Y-91063671D01*
X127641239Y-91188761D01*
X127766329Y-91341185D01*
X127859277Y-91515078D01*
X127916517Y-91703772D01*
X127931000Y-91850825D01*
X127931000Y-92949175D01*
X127916517Y-93096228D01*
X127859277Y-93284922D01*
X127766329Y-93458815D01*
X127641239Y-93611239D01*
X127488815Y-93736329D01*
X127314921Y-93829277D01*
X127126227Y-93886517D01*
X126930000Y-93905843D01*
X126733772Y-93886517D01*
X126545078Y-93829277D01*
X126371185Y-93736329D01*
X126218761Y-93611239D01*
X126093671Y-93458815D01*
X126000723Y-93284921D01*
X125943483Y-93096227D01*
X125929000Y-92949174D01*
X125929000Y-91850825D01*
X125943483Y-91703769D01*
X126000722Y-91515081D01*
X126093672Y-91341185D01*
X126218762Y-91188761D01*
X126371186Y-91063671D01*
X126545079Y-90970723D01*
X126733773Y-90913483D01*
X126930000Y-90894157D01*
X127126228Y-90913483D01*
X127126228Y-90913483D01*
G37*
G36*
X140266227Y-90913483D02*
G01*
X140454921Y-90970723D01*
X140628815Y-91063671D01*
X140781239Y-91188761D01*
X140906329Y-91341185D01*
X140999277Y-91515078D01*
X141056517Y-91703772D01*
X141071000Y-91850825D01*
X141071000Y-92949175D01*
X141056517Y-93096228D01*
X140999277Y-93284922D01*
X140906329Y-93458815D01*
X140781239Y-93611239D01*
X140628815Y-93736329D01*
X140454922Y-93829277D01*
X140266228Y-93886517D01*
X140070000Y-93905843D01*
X139873773Y-93886517D01*
X139685079Y-93829277D01*
X139511186Y-93736329D01*
X139358762Y-93611239D01*
X139233672Y-93458815D01*
X139140722Y-93284919D01*
X139083483Y-93096231D01*
X139069000Y-92949175D01*
X139069000Y-91850826D01*
X139083483Y-91703773D01*
X139140723Y-91515079D01*
X139233671Y-91341185D01*
X139358761Y-91188761D01*
X139511185Y-91063671D01*
X139685078Y-90970723D01*
X139873772Y-90913483D01*
X140070000Y-90894157D01*
X140266227Y-90913483D01*
X140266227Y-90913483D01*
G37*
G36*
X117266227Y-90913483D02*
G01*
X117454921Y-90970723D01*
X117628815Y-91063671D01*
X117781239Y-91188761D01*
X117906329Y-91341185D01*
X117999277Y-91515078D01*
X118056517Y-91703772D01*
X118071000Y-91850825D01*
X118071000Y-92949175D01*
X118056517Y-93096228D01*
X117999277Y-93284922D01*
X117906329Y-93458815D01*
X117781239Y-93611239D01*
X117628815Y-93736329D01*
X117454922Y-93829277D01*
X117266228Y-93886517D01*
X117070000Y-93905843D01*
X116873773Y-93886517D01*
X116685079Y-93829277D01*
X116511186Y-93736329D01*
X116358762Y-93611239D01*
X116233672Y-93458815D01*
X116140722Y-93284919D01*
X116083483Y-93096231D01*
X116069000Y-92949175D01*
X116069000Y-91850826D01*
X116083483Y-91703773D01*
X116140723Y-91515079D01*
X116233671Y-91341185D01*
X116358761Y-91188761D01*
X116511185Y-91063671D01*
X116685078Y-90970723D01*
X116873772Y-90913483D01*
X117070000Y-90894157D01*
X117266227Y-90913483D01*
X117266227Y-90913483D01*
G37*
G36*
X104126228Y-90913483D02*
G01*
X104314922Y-90970723D01*
X104488815Y-91063671D01*
X104641239Y-91188761D01*
X104766329Y-91341185D01*
X104859277Y-91515078D01*
X104916517Y-91703772D01*
X104931000Y-91850825D01*
X104931000Y-92949175D01*
X104916517Y-93096228D01*
X104859277Y-93284922D01*
X104766329Y-93458815D01*
X104641239Y-93611239D01*
X104488815Y-93736329D01*
X104314921Y-93829277D01*
X104126227Y-93886517D01*
X103930000Y-93905843D01*
X103733772Y-93886517D01*
X103545078Y-93829277D01*
X103371185Y-93736329D01*
X103218761Y-93611239D01*
X103093671Y-93458815D01*
X103000723Y-93284921D01*
X102943483Y-93096227D01*
X102929000Y-92949174D01*
X102929000Y-91850825D01*
X102943483Y-91703769D01*
X103000722Y-91515081D01*
X103093672Y-91341185D01*
X103218762Y-91188761D01*
X103371186Y-91063671D01*
X103545079Y-90970723D01*
X103733773Y-90913483D01*
X103930000Y-90894157D01*
X104126228Y-90913483D01*
X104126228Y-90913483D01*
G37*
G36*
X90204473Y-92325938D02*
G01*
X90332049Y-92378782D01*
X90446859Y-92455495D01*
X90544505Y-92553141D01*
X90621218Y-92667951D01*
X90674062Y-92795527D01*
X90701000Y-92930956D01*
X90701000Y-93069044D01*
X90674062Y-93204473D01*
X90621218Y-93332049D01*
X90544505Y-93446859D01*
X90446859Y-93544505D01*
X90332049Y-93621218D01*
X90204473Y-93674062D01*
X90069044Y-93701000D01*
X89930956Y-93701000D01*
X89795527Y-93674062D01*
X89667951Y-93621218D01*
X89553141Y-93544505D01*
X89455495Y-93446859D01*
X89378782Y-93332049D01*
X89325938Y-93204473D01*
X89299000Y-93069044D01*
X89299000Y-92930956D01*
X89325938Y-92795527D01*
X89378782Y-92667951D01*
X89455495Y-92553141D01*
X89553141Y-92455495D01*
X89667951Y-92378782D01*
X89795527Y-92325938D01*
X89930956Y-92299000D01*
X90069044Y-92299000D01*
X90204473Y-92325938D01*
X90204473Y-92325938D01*
G37*
G36*
X87704473Y-92325938D02*
G01*
X87832049Y-92378782D01*
X87946859Y-92455495D01*
X88044505Y-92553141D01*
X88121218Y-92667951D01*
X88174062Y-92795527D01*
X88201000Y-92930956D01*
X88201000Y-93069044D01*
X88174062Y-93204473D01*
X88121218Y-93332049D01*
X88044505Y-93446859D01*
X87946859Y-93544505D01*
X87832049Y-93621218D01*
X87704473Y-93674062D01*
X87569044Y-93701000D01*
X87430956Y-93701000D01*
X87295527Y-93674062D01*
X87167951Y-93621218D01*
X87053141Y-93544505D01*
X86955495Y-93446859D01*
X86878782Y-93332049D01*
X86825938Y-93204473D01*
X86799000Y-93069044D01*
X86799000Y-92930956D01*
X86825938Y-92795527D01*
X86878782Y-92667951D01*
X86955495Y-92553141D01*
X87053141Y-92455495D01*
X87167951Y-92378782D01*
X87295527Y-92325938D01*
X87430956Y-92299000D01*
X87569044Y-92299000D01*
X87704473Y-92325938D01*
X87704473Y-92325938D01*
G37*
G36*
X83701000Y-93701000D02*
G01*
X82299000Y-93701000D01*
X82299000Y-92299000D01*
X83701000Y-92299000D01*
X83701000Y-93701000D01*
X83701000Y-93701000D01*
G37*
G36*
X130701000Y-93701000D02*
G01*
X129299000Y-93701000D01*
X129299000Y-92299000D01*
X130701000Y-92299000D01*
X130701000Y-93701000D01*
X130701000Y-93701000D01*
G37*
G36*
X132704473Y-92325938D02*
G01*
X132832049Y-92378782D01*
X132946859Y-92455495D01*
X133044505Y-92553141D01*
X133121218Y-92667951D01*
X133174062Y-92795527D01*
X133201000Y-92930956D01*
X133201000Y-93069044D01*
X133174062Y-93204473D01*
X133121218Y-93332049D01*
X133044505Y-93446859D01*
X132946859Y-93544505D01*
X132832049Y-93621218D01*
X132704473Y-93674062D01*
X132569044Y-93701000D01*
X132430956Y-93701000D01*
X132295527Y-93674062D01*
X132167951Y-93621218D01*
X132053141Y-93544505D01*
X131955495Y-93446859D01*
X131878782Y-93332049D01*
X131825938Y-93204473D01*
X131799000Y-93069044D01*
X131799000Y-92930956D01*
X131825938Y-92795527D01*
X131878782Y-92667951D01*
X131955495Y-92553141D01*
X132053141Y-92455495D01*
X132167951Y-92378782D01*
X132295527Y-92325938D01*
X132430956Y-92299000D01*
X132569044Y-92299000D01*
X132704473Y-92325938D01*
X132704473Y-92325938D01*
G37*
G36*
X134704473Y-92325938D02*
G01*
X134832049Y-92378782D01*
X134946859Y-92455495D01*
X135044505Y-92553141D01*
X135121218Y-92667951D01*
X135174062Y-92795527D01*
X135201000Y-92930956D01*
X135201000Y-93069044D01*
X135174062Y-93204473D01*
X135121218Y-93332049D01*
X135044505Y-93446859D01*
X134946859Y-93544505D01*
X134832049Y-93621218D01*
X134704473Y-93674062D01*
X134569044Y-93701000D01*
X134430956Y-93701000D01*
X134295527Y-93674062D01*
X134167951Y-93621218D01*
X134053141Y-93544505D01*
X133955495Y-93446859D01*
X133878782Y-93332049D01*
X133825938Y-93204473D01*
X133799000Y-93069044D01*
X133799000Y-92930956D01*
X133825938Y-92795527D01*
X133878782Y-92667951D01*
X133955495Y-92553141D01*
X134053141Y-92455495D01*
X134167951Y-92378782D01*
X134295527Y-92325938D01*
X134430956Y-92299000D01*
X134569044Y-92299000D01*
X134704473Y-92325938D01*
X134704473Y-92325938D01*
G37*
G36*
X137204473Y-92325938D02*
G01*
X137332049Y-92378782D01*
X137446859Y-92455495D01*
X137544505Y-92553141D01*
X137621218Y-92667951D01*
X137674062Y-92795527D01*
X137701000Y-92930956D01*
X137701000Y-93069044D01*
X137674062Y-93204473D01*
X137621218Y-93332049D01*
X137544505Y-93446859D01*
X137446859Y-93544505D01*
X137332049Y-93621218D01*
X137204473Y-93674062D01*
X137069044Y-93701000D01*
X136930956Y-93701000D01*
X136795527Y-93674062D01*
X136667951Y-93621218D01*
X136553141Y-93544505D01*
X136455495Y-93446859D01*
X136378782Y-93332049D01*
X136325938Y-93204473D01*
X136299000Y-93069044D01*
X136299000Y-92930956D01*
X136325938Y-92795527D01*
X136378782Y-92667951D01*
X136455495Y-92553141D01*
X136553141Y-92455495D01*
X136667951Y-92378782D01*
X136795527Y-92325938D01*
X136930956Y-92299000D01*
X137069044Y-92299000D01*
X137204473Y-92325938D01*
X137204473Y-92325938D01*
G37*
G36*
X107701000Y-93701000D02*
G01*
X106299000Y-93701000D01*
X106299000Y-92299000D01*
X107701000Y-92299000D01*
X107701000Y-93701000D01*
X107701000Y-93701000D01*
G37*
G36*
X109704473Y-92325938D02*
G01*
X109832049Y-92378782D01*
X109946859Y-92455495D01*
X110044505Y-92553141D01*
X110121218Y-92667951D01*
X110174062Y-92795527D01*
X110201000Y-92930956D01*
X110201000Y-93069044D01*
X110174062Y-93204473D01*
X110121218Y-93332049D01*
X110044505Y-93446859D01*
X109946859Y-93544505D01*
X109832049Y-93621218D01*
X109704473Y-93674062D01*
X109569044Y-93701000D01*
X109430956Y-93701000D01*
X109295527Y-93674062D01*
X109167951Y-93621218D01*
X109053141Y-93544505D01*
X108955495Y-93446859D01*
X108878782Y-93332049D01*
X108825938Y-93204473D01*
X108799000Y-93069044D01*
X108799000Y-92930956D01*
X108825938Y-92795527D01*
X108878782Y-92667951D01*
X108955495Y-92553141D01*
X109053141Y-92455495D01*
X109167951Y-92378782D01*
X109295527Y-92325938D01*
X109430956Y-92299000D01*
X109569044Y-92299000D01*
X109704473Y-92325938D01*
X109704473Y-92325938D01*
G37*
G36*
X111704473Y-92325938D02*
G01*
X111832049Y-92378782D01*
X111946859Y-92455495D01*
X112044505Y-92553141D01*
X112121218Y-92667951D01*
X112174062Y-92795527D01*
X112201000Y-92930956D01*
X112201000Y-93069044D01*
X112174062Y-93204473D01*
X112121218Y-93332049D01*
X112044505Y-93446859D01*
X111946859Y-93544505D01*
X111832049Y-93621218D01*
X111704473Y-93674062D01*
X111569044Y-93701000D01*
X111430956Y-93701000D01*
X111295527Y-93674062D01*
X111167951Y-93621218D01*
X111053141Y-93544505D01*
X110955495Y-93446859D01*
X110878782Y-93332049D01*
X110825938Y-93204473D01*
X110799000Y-93069044D01*
X110799000Y-92930956D01*
X110825938Y-92795527D01*
X110878782Y-92667951D01*
X110955495Y-92553141D01*
X111053141Y-92455495D01*
X111167951Y-92378782D01*
X111295527Y-92325938D01*
X111430956Y-92299000D01*
X111569044Y-92299000D01*
X111704473Y-92325938D01*
X111704473Y-92325938D01*
G37*
G36*
X114204473Y-92325938D02*
G01*
X114332049Y-92378782D01*
X114446859Y-92455495D01*
X114544505Y-92553141D01*
X114621218Y-92667951D01*
X114674062Y-92795527D01*
X114701000Y-92930956D01*
X114701000Y-93069044D01*
X114674062Y-93204473D01*
X114621218Y-93332049D01*
X114544505Y-93446859D01*
X114446859Y-93544505D01*
X114332049Y-93621218D01*
X114204473Y-93674062D01*
X114069044Y-93701000D01*
X113930956Y-93701000D01*
X113795527Y-93674062D01*
X113667951Y-93621218D01*
X113553141Y-93544505D01*
X113455495Y-93446859D01*
X113378782Y-93332049D01*
X113325938Y-93204473D01*
X113299000Y-93069044D01*
X113299000Y-92930956D01*
X113325938Y-92795527D01*
X113378782Y-92667951D01*
X113455495Y-92553141D01*
X113553141Y-92455495D01*
X113667951Y-92378782D01*
X113795527Y-92325938D01*
X113930956Y-92299000D01*
X114069044Y-92299000D01*
X114204473Y-92325938D01*
X114204473Y-92325938D01*
G37*
G36*
X85704473Y-92325938D02*
G01*
X85832049Y-92378782D01*
X85946859Y-92455495D01*
X86044505Y-92553141D01*
X86121218Y-92667951D01*
X86174062Y-92795527D01*
X86201000Y-92930956D01*
X86201000Y-93069044D01*
X86174062Y-93204473D01*
X86121218Y-93332049D01*
X86044505Y-93446859D01*
X85946859Y-93544505D01*
X85832049Y-93621218D01*
X85704473Y-93674062D01*
X85569044Y-93701000D01*
X85430956Y-93701000D01*
X85295527Y-93674062D01*
X85167951Y-93621218D01*
X85053141Y-93544505D01*
X84955495Y-93446859D01*
X84878782Y-93332049D01*
X84825938Y-93204473D01*
X84799000Y-93069044D01*
X84799000Y-92930956D01*
X84825938Y-92795527D01*
X84878782Y-92667951D01*
X84955495Y-92553141D01*
X85053141Y-92455495D01*
X85167951Y-92378782D01*
X85295527Y-92325938D01*
X85430956Y-92299000D01*
X85569044Y-92299000D01*
X85704473Y-92325938D01*
X85704473Y-92325938D01*
G37*
G36*
X45166823Y-91721313D02*
G01*
X45327242Y-91769976D01*
X45433926Y-91827000D01*
X45475078Y-91848996D01*
X45604659Y-91955341D01*
X45711004Y-92084922D01*
X45711005Y-92084924D01*
X45790024Y-92232758D01*
X45838687Y-92393177D01*
X45855117Y-92560000D01*
X45838687Y-92726823D01*
X45790024Y-92887242D01*
X45756920Y-92949175D01*
X45711004Y-93035078D01*
X45604659Y-93164659D01*
X45475078Y-93271004D01*
X45475076Y-93271005D01*
X45327242Y-93350024D01*
X45166823Y-93398687D01*
X45041804Y-93411000D01*
X44958196Y-93411000D01*
X44833177Y-93398687D01*
X44672758Y-93350024D01*
X44524924Y-93271005D01*
X44524922Y-93271004D01*
X44395341Y-93164659D01*
X44288996Y-93035078D01*
X44243080Y-92949175D01*
X44209976Y-92887242D01*
X44161313Y-92726823D01*
X44144883Y-92560000D01*
X44161313Y-92393177D01*
X44209976Y-92232758D01*
X44288995Y-92084924D01*
X44288996Y-92084922D01*
X44395341Y-91955341D01*
X44524922Y-91848996D01*
X44566074Y-91827000D01*
X44672758Y-91769976D01*
X44833177Y-91721313D01*
X44958196Y-91709000D01*
X45041804Y-91709000D01*
X45166823Y-91721313D01*
X45166823Y-91721313D01*
G37*
G36*
X60406823Y-91721313D02*
G01*
X60567242Y-91769976D01*
X60673926Y-91827000D01*
X60715078Y-91848996D01*
X60844659Y-91955341D01*
X60951004Y-92084922D01*
X60951005Y-92084924D01*
X61030024Y-92232758D01*
X61078687Y-92393177D01*
X61095117Y-92560000D01*
X61078687Y-92726823D01*
X61030024Y-92887242D01*
X60996920Y-92949175D01*
X60951004Y-93035078D01*
X60844659Y-93164659D01*
X60715078Y-93271004D01*
X60715076Y-93271005D01*
X60567242Y-93350024D01*
X60406823Y-93398687D01*
X60281804Y-93411000D01*
X60198196Y-93411000D01*
X60073177Y-93398687D01*
X59912758Y-93350024D01*
X59764924Y-93271005D01*
X59764922Y-93271004D01*
X59635341Y-93164659D01*
X59528996Y-93035078D01*
X59483080Y-92949175D01*
X59449976Y-92887242D01*
X59401313Y-92726823D01*
X59384883Y-92560000D01*
X59401313Y-92393177D01*
X59449976Y-92232758D01*
X59528995Y-92084924D01*
X59528996Y-92084922D01*
X59635341Y-91955341D01*
X59764922Y-91848996D01*
X59806074Y-91827000D01*
X59912758Y-91769976D01*
X60073177Y-91721313D01*
X60198196Y-91709000D01*
X60281804Y-91709000D01*
X60406823Y-91721313D01*
X60406823Y-91721313D01*
G37*
G36*
X69256938Y-91631716D02*
G01*
X69277557Y-91637971D01*
X69296553Y-91648124D01*
X69313208Y-91661792D01*
X69326876Y-91678447D01*
X69337029Y-91697443D01*
X69343284Y-91718062D01*
X69346000Y-91745640D01*
X69346000Y-92254360D01*
X69343284Y-92281938D01*
X69337029Y-92302557D01*
X69326876Y-92321553D01*
X69313208Y-92338208D01*
X69296553Y-92351876D01*
X69277557Y-92362029D01*
X69256938Y-92368284D01*
X69229360Y-92371000D01*
X68770640Y-92371000D01*
X68743062Y-92368284D01*
X68722443Y-92362029D01*
X68703447Y-92351876D01*
X68686792Y-92338208D01*
X68673124Y-92321553D01*
X68662971Y-92302557D01*
X68656716Y-92281938D01*
X68654000Y-92254360D01*
X68654000Y-91745640D01*
X68656716Y-91718062D01*
X68662971Y-91697443D01*
X68673124Y-91678447D01*
X68686792Y-91661792D01*
X68703447Y-91648124D01*
X68722443Y-91637971D01*
X68743062Y-91631716D01*
X68770640Y-91629000D01*
X69229360Y-91629000D01*
X69256938Y-91631716D01*
X69256938Y-91631716D01*
G37*
G36*
X68286938Y-91631716D02*
G01*
X68307557Y-91637971D01*
X68326553Y-91648124D01*
X68343208Y-91661792D01*
X68356876Y-91678447D01*
X68367029Y-91697443D01*
X68373284Y-91718062D01*
X68376000Y-91745640D01*
X68376000Y-92254360D01*
X68373284Y-92281938D01*
X68367029Y-92302557D01*
X68356876Y-92321553D01*
X68343208Y-92338208D01*
X68326553Y-92351876D01*
X68307557Y-92362029D01*
X68286938Y-92368284D01*
X68259360Y-92371000D01*
X67800640Y-92371000D01*
X67773062Y-92368284D01*
X67752443Y-92362029D01*
X67733447Y-92351876D01*
X67716792Y-92338208D01*
X67703124Y-92321553D01*
X67692971Y-92302557D01*
X67686716Y-92281938D01*
X67684000Y-92254360D01*
X67684000Y-91745640D01*
X67686716Y-91718062D01*
X67692971Y-91697443D01*
X67703124Y-91678447D01*
X67716792Y-91661792D01*
X67733447Y-91648124D01*
X67752443Y-91637971D01*
X67773062Y-91631716D01*
X67800640Y-91629000D01*
X68259360Y-91629000D01*
X68286938Y-91631716D01*
X68286938Y-91631716D01*
G37*
G36*
X73281938Y-91656716D02*
G01*
X73302557Y-91662971D01*
X73321553Y-91673124D01*
X73338208Y-91686792D01*
X73351876Y-91703447D01*
X73362029Y-91722443D01*
X73368284Y-91743062D01*
X73371000Y-91770640D01*
X73371000Y-92229360D01*
X73368284Y-92256938D01*
X73362029Y-92277557D01*
X73351876Y-92296553D01*
X73338208Y-92313208D01*
X73321553Y-92326876D01*
X73302557Y-92337029D01*
X73281938Y-92343284D01*
X73254360Y-92346000D01*
X72745640Y-92346000D01*
X72718062Y-92343284D01*
X72697443Y-92337029D01*
X72678447Y-92326876D01*
X72661792Y-92313208D01*
X72648124Y-92296553D01*
X72637971Y-92277557D01*
X72631716Y-92256938D01*
X72629000Y-92229360D01*
X72629000Y-91770640D01*
X72631716Y-91743062D01*
X72637971Y-91722443D01*
X72648124Y-91703447D01*
X72661792Y-91686792D01*
X72678447Y-91673124D01*
X72697443Y-91662971D01*
X72718062Y-91656716D01*
X72745640Y-91654000D01*
X73254360Y-91654000D01*
X73281938Y-91656716D01*
X73281938Y-91656716D01*
G37*
G36*
X73281938Y-90686716D02*
G01*
X73302557Y-90692971D01*
X73321553Y-90703124D01*
X73338208Y-90716792D01*
X73351876Y-90733447D01*
X73362029Y-90752443D01*
X73368284Y-90773062D01*
X73371000Y-90800640D01*
X73371000Y-91259360D01*
X73368284Y-91286938D01*
X73362029Y-91307557D01*
X73351876Y-91326553D01*
X73338208Y-91343208D01*
X73321553Y-91356876D01*
X73302557Y-91367029D01*
X73281938Y-91373284D01*
X73254360Y-91376000D01*
X72745640Y-91376000D01*
X72718062Y-91373284D01*
X72697443Y-91367029D01*
X72678447Y-91356876D01*
X72661792Y-91343208D01*
X72648124Y-91326553D01*
X72637971Y-91307557D01*
X72631716Y-91286938D01*
X72629000Y-91259360D01*
X72629000Y-90800640D01*
X72631716Y-90773062D01*
X72637971Y-90752443D01*
X72648124Y-90733447D01*
X72661792Y-90716792D01*
X72678447Y-90703124D01*
X72697443Y-90692971D01*
X72718062Y-90686716D01*
X72745640Y-90684000D01*
X73254360Y-90684000D01*
X73281938Y-90686716D01*
X73281938Y-90686716D01*
G37*
G36*
X45166823Y-89181313D02*
G01*
X45327242Y-89229976D01*
X45459906Y-89300886D01*
X45475078Y-89308996D01*
X45604659Y-89415341D01*
X45711004Y-89544922D01*
X45711005Y-89544924D01*
X45790024Y-89692758D01*
X45838687Y-89853177D01*
X45855117Y-90020000D01*
X45838687Y-90186823D01*
X45790024Y-90347242D01*
X45719114Y-90479906D01*
X45711004Y-90495078D01*
X45604659Y-90624659D01*
X45475078Y-90731004D01*
X45475076Y-90731005D01*
X45327242Y-90810024D01*
X45166823Y-90858687D01*
X45041804Y-90871000D01*
X44958196Y-90871000D01*
X44833177Y-90858687D01*
X44672758Y-90810024D01*
X44524924Y-90731005D01*
X44524922Y-90731004D01*
X44395341Y-90624659D01*
X44288996Y-90495078D01*
X44280886Y-90479906D01*
X44209976Y-90347242D01*
X44161313Y-90186823D01*
X44144883Y-90020000D01*
X44161313Y-89853177D01*
X44209976Y-89692758D01*
X44288995Y-89544924D01*
X44288996Y-89544922D01*
X44395341Y-89415341D01*
X44524922Y-89308996D01*
X44540094Y-89300886D01*
X44672758Y-89229976D01*
X44833177Y-89181313D01*
X44958196Y-89169000D01*
X45041804Y-89169000D01*
X45166823Y-89181313D01*
X45166823Y-89181313D01*
G37*
G36*
X60406823Y-89181313D02*
G01*
X60567242Y-89229976D01*
X60699906Y-89300886D01*
X60715078Y-89308996D01*
X60844659Y-89415341D01*
X60951004Y-89544922D01*
X60951005Y-89544924D01*
X61030024Y-89692758D01*
X61078687Y-89853177D01*
X61095117Y-90020000D01*
X61078687Y-90186823D01*
X61030024Y-90347242D01*
X60959114Y-90479906D01*
X60951004Y-90495078D01*
X60844659Y-90624659D01*
X60715078Y-90731004D01*
X60715076Y-90731005D01*
X60567242Y-90810024D01*
X60406823Y-90858687D01*
X60281804Y-90871000D01*
X60198196Y-90871000D01*
X60073177Y-90858687D01*
X59912758Y-90810024D01*
X59764924Y-90731005D01*
X59764922Y-90731004D01*
X59635341Y-90624659D01*
X59528996Y-90495078D01*
X59520886Y-90479906D01*
X59449976Y-90347242D01*
X59401313Y-90186823D01*
X59384883Y-90020000D01*
X59401313Y-89853177D01*
X59449976Y-89692758D01*
X59528995Y-89544924D01*
X59528996Y-89544922D01*
X59635341Y-89415341D01*
X59764922Y-89308996D01*
X59780094Y-89300886D01*
X59912758Y-89229976D01*
X60073177Y-89181313D01*
X60198196Y-89169000D01*
X60281804Y-89169000D01*
X60406823Y-89181313D01*
X60406823Y-89181313D01*
G37*
G36*
X87196228Y-87233483D02*
G01*
X87384922Y-87290723D01*
X87558815Y-87383671D01*
X87711239Y-87508761D01*
X87836329Y-87661185D01*
X87929277Y-87835078D01*
X87986517Y-88023772D01*
X88005843Y-88220000D01*
X87986517Y-88416228D01*
X87929277Y-88604922D01*
X87836329Y-88778815D01*
X87711239Y-88931239D01*
X87558815Y-89056329D01*
X87384922Y-89149277D01*
X87196228Y-89206517D01*
X87049175Y-89221000D01*
X85950825Y-89221000D01*
X85803772Y-89206517D01*
X85615078Y-89149277D01*
X85441185Y-89056329D01*
X85288761Y-88931239D01*
X85163671Y-88778815D01*
X85070723Y-88604922D01*
X85013483Y-88416228D01*
X84994157Y-88220000D01*
X85013483Y-88023772D01*
X85070723Y-87835078D01*
X85163671Y-87661185D01*
X85288761Y-87508761D01*
X85441185Y-87383671D01*
X85615078Y-87290723D01*
X85803772Y-87233483D01*
X85950825Y-87219000D01*
X87049175Y-87219000D01*
X87196228Y-87233483D01*
X87196228Y-87233483D01*
G37*
G36*
X111196228Y-87233483D02*
G01*
X111384922Y-87290723D01*
X111558815Y-87383671D01*
X111711239Y-87508761D01*
X111836329Y-87661185D01*
X111929277Y-87835078D01*
X111986517Y-88023772D01*
X112005843Y-88220000D01*
X111986517Y-88416228D01*
X111929277Y-88604922D01*
X111836329Y-88778815D01*
X111711239Y-88931239D01*
X111558815Y-89056329D01*
X111384922Y-89149277D01*
X111196228Y-89206517D01*
X111049175Y-89221000D01*
X109950825Y-89221000D01*
X109803772Y-89206517D01*
X109615078Y-89149277D01*
X109441185Y-89056329D01*
X109288761Y-88931239D01*
X109163671Y-88778815D01*
X109070723Y-88604922D01*
X109013483Y-88416228D01*
X108994157Y-88220000D01*
X109013483Y-88023772D01*
X109070723Y-87835078D01*
X109163671Y-87661185D01*
X109288761Y-87508761D01*
X109441185Y-87383671D01*
X109615078Y-87290723D01*
X109803772Y-87233483D01*
X109950825Y-87219000D01*
X111049175Y-87219000D01*
X111196228Y-87233483D01*
X111196228Y-87233483D01*
G37*
G36*
X134196228Y-87233483D02*
G01*
X134384922Y-87290723D01*
X134558815Y-87383671D01*
X134711239Y-87508761D01*
X134836329Y-87661185D01*
X134929277Y-87835078D01*
X134986517Y-88023772D01*
X135005843Y-88220000D01*
X134986517Y-88416228D01*
X134929277Y-88604922D01*
X134836329Y-88778815D01*
X134711239Y-88931239D01*
X134558815Y-89056329D01*
X134384922Y-89149277D01*
X134196228Y-89206517D01*
X134049175Y-89221000D01*
X132950825Y-89221000D01*
X132803772Y-89206517D01*
X132615078Y-89149277D01*
X132441185Y-89056329D01*
X132288761Y-88931239D01*
X132163671Y-88778815D01*
X132070723Y-88604922D01*
X132013483Y-88416228D01*
X131994157Y-88220000D01*
X132013483Y-88023772D01*
X132070723Y-87835078D01*
X132163671Y-87661185D01*
X132288761Y-87508761D01*
X132441185Y-87383671D01*
X132615078Y-87290723D01*
X132803772Y-87233483D01*
X132950825Y-87219000D01*
X134049175Y-87219000D01*
X134196228Y-87233483D01*
X134196228Y-87233483D01*
G37*
G36*
X72931000Y-88451000D02*
G01*
X71629000Y-88451000D01*
X71629000Y-86149000D01*
X72931000Y-86149000D01*
X72931000Y-88451000D01*
X72931000Y-88451000D01*
G37*
G36*
X68371000Y-88451000D02*
G01*
X67069000Y-88451000D01*
X67069000Y-86149000D01*
X68371000Y-86149000D01*
X68371000Y-88451000D01*
X68371000Y-88451000D01*
G37*
G36*
X60406823Y-86641313D02*
G01*
X60567242Y-86689976D01*
X60699906Y-86760886D01*
X60715078Y-86768996D01*
X60844659Y-86875341D01*
X60951004Y-87004922D01*
X60951005Y-87004924D01*
X61030024Y-87152758D01*
X61078687Y-87313177D01*
X61095117Y-87480000D01*
X61078687Y-87646823D01*
X61030024Y-87807242D01*
X60959114Y-87939906D01*
X60951004Y-87955078D01*
X60844659Y-88084659D01*
X60715078Y-88191004D01*
X60715076Y-88191005D01*
X60567242Y-88270024D01*
X60406823Y-88318687D01*
X60281804Y-88331000D01*
X60198196Y-88331000D01*
X60073177Y-88318687D01*
X59912758Y-88270024D01*
X59764924Y-88191005D01*
X59764922Y-88191004D01*
X59635341Y-88084659D01*
X59528996Y-87955078D01*
X59520886Y-87939906D01*
X59449976Y-87807242D01*
X59401313Y-87646823D01*
X59384883Y-87480000D01*
X59401313Y-87313177D01*
X59449976Y-87152758D01*
X59528995Y-87004924D01*
X59528996Y-87004922D01*
X59635341Y-86875341D01*
X59764922Y-86768996D01*
X59780094Y-86760886D01*
X59912758Y-86689976D01*
X60073177Y-86641313D01*
X60198196Y-86629000D01*
X60281804Y-86629000D01*
X60406823Y-86641313D01*
X60406823Y-86641313D01*
G37*
G36*
X45166823Y-86641313D02*
G01*
X45327242Y-86689976D01*
X45459906Y-86760886D01*
X45475078Y-86768996D01*
X45604659Y-86875341D01*
X45711004Y-87004922D01*
X45711005Y-87004924D01*
X45790024Y-87152758D01*
X45838687Y-87313177D01*
X45855117Y-87480000D01*
X45838687Y-87646823D01*
X45790024Y-87807242D01*
X45719114Y-87939906D01*
X45711004Y-87955078D01*
X45604659Y-88084659D01*
X45475078Y-88191004D01*
X45475076Y-88191005D01*
X45327242Y-88270024D01*
X45166823Y-88318687D01*
X45041804Y-88331000D01*
X44958196Y-88331000D01*
X44833177Y-88318687D01*
X44672758Y-88270024D01*
X44524924Y-88191005D01*
X44524922Y-88191004D01*
X44395341Y-88084659D01*
X44288996Y-87955078D01*
X44280886Y-87939906D01*
X44209976Y-87807242D01*
X44161313Y-87646823D01*
X44144883Y-87480000D01*
X44161313Y-87313177D01*
X44209976Y-87152758D01*
X44288995Y-87004924D01*
X44288996Y-87004922D01*
X44395341Y-86875341D01*
X44524922Y-86768996D01*
X44540094Y-86760886D01*
X44672758Y-86689976D01*
X44833177Y-86641313D01*
X44958196Y-86629000D01*
X45041804Y-86629000D01*
X45166823Y-86641313D01*
X45166823Y-86641313D01*
G37*
G36*
X60406823Y-84101313D02*
G01*
X60567242Y-84149976D01*
X60699906Y-84220886D01*
X60715078Y-84228996D01*
X60844659Y-84335341D01*
X60951004Y-84464922D01*
X60951005Y-84464924D01*
X61030024Y-84612758D01*
X61078687Y-84773177D01*
X61095117Y-84940000D01*
X61078687Y-85106823D01*
X61030024Y-85267242D01*
X60959114Y-85399906D01*
X60951004Y-85415078D01*
X60844659Y-85544659D01*
X60715078Y-85651004D01*
X60715076Y-85651005D01*
X60567242Y-85730024D01*
X60406823Y-85778687D01*
X60281804Y-85791000D01*
X60198196Y-85791000D01*
X60073177Y-85778687D01*
X59912758Y-85730024D01*
X59764924Y-85651005D01*
X59764922Y-85651004D01*
X59635341Y-85544659D01*
X59528996Y-85415078D01*
X59520886Y-85399906D01*
X59449976Y-85267242D01*
X59401313Y-85106823D01*
X59384883Y-84940000D01*
X59401313Y-84773177D01*
X59449976Y-84612758D01*
X59528995Y-84464924D01*
X59528996Y-84464922D01*
X59635341Y-84335341D01*
X59764922Y-84228996D01*
X59780094Y-84220886D01*
X59912758Y-84149976D01*
X60073177Y-84101313D01*
X60198196Y-84089000D01*
X60281804Y-84089000D01*
X60406823Y-84101313D01*
X60406823Y-84101313D01*
G37*
G36*
X45166823Y-84101313D02*
G01*
X45327242Y-84149976D01*
X45459906Y-84220886D01*
X45475078Y-84228996D01*
X45604659Y-84335341D01*
X45711004Y-84464922D01*
X45711005Y-84464924D01*
X45790024Y-84612758D01*
X45838687Y-84773177D01*
X45855117Y-84940000D01*
X45838687Y-85106823D01*
X45790024Y-85267242D01*
X45719114Y-85399906D01*
X45711004Y-85415078D01*
X45604659Y-85544659D01*
X45475078Y-85651004D01*
X45475076Y-85651005D01*
X45327242Y-85730024D01*
X45166823Y-85778687D01*
X45041804Y-85791000D01*
X44958196Y-85791000D01*
X44833177Y-85778687D01*
X44672758Y-85730024D01*
X44524924Y-85651005D01*
X44524922Y-85651004D01*
X44395341Y-85544659D01*
X44288996Y-85415078D01*
X44280886Y-85399906D01*
X44209976Y-85267242D01*
X44161313Y-85106823D01*
X44144883Y-84940000D01*
X44161313Y-84773177D01*
X44209976Y-84612758D01*
X44288995Y-84464924D01*
X44288996Y-84464922D01*
X44395341Y-84335341D01*
X44524922Y-84228996D01*
X44540094Y-84220886D01*
X44672758Y-84149976D01*
X44833177Y-84101313D01*
X44958196Y-84089000D01*
X45041804Y-84089000D01*
X45166823Y-84101313D01*
X45166823Y-84101313D01*
G37*
G36*
X72951000Y-84251000D02*
G01*
X67049000Y-84251000D01*
X67049000Y-77749000D01*
X72951000Y-77749000D01*
X72951000Y-84251000D01*
X72951000Y-84251000D01*
G37*
G36*
X60406823Y-81561313D02*
G01*
X60567242Y-81609976D01*
X60699906Y-81680886D01*
X60715078Y-81688996D01*
X60844659Y-81795341D01*
X60951004Y-81924922D01*
X60951005Y-81924924D01*
X61030024Y-82072758D01*
X61078687Y-82233177D01*
X61095117Y-82400000D01*
X61078687Y-82566823D01*
X61030024Y-82727242D01*
X60959114Y-82859906D01*
X60951004Y-82875078D01*
X60844659Y-83004659D01*
X60715078Y-83111004D01*
X60715076Y-83111005D01*
X60567242Y-83190024D01*
X60406823Y-83238687D01*
X60281804Y-83251000D01*
X60198196Y-83251000D01*
X60073177Y-83238687D01*
X59912758Y-83190024D01*
X59764924Y-83111005D01*
X59764922Y-83111004D01*
X59635341Y-83004659D01*
X59528996Y-82875078D01*
X59520886Y-82859906D01*
X59449976Y-82727242D01*
X59401313Y-82566823D01*
X59384883Y-82400000D01*
X59401313Y-82233177D01*
X59449976Y-82072758D01*
X59528995Y-81924924D01*
X59528996Y-81924922D01*
X59635341Y-81795341D01*
X59764922Y-81688996D01*
X59780094Y-81680886D01*
X59912758Y-81609976D01*
X60073177Y-81561313D01*
X60198196Y-81549000D01*
X60281804Y-81549000D01*
X60406823Y-81561313D01*
X60406823Y-81561313D01*
G37*
G36*
X45166823Y-81561313D02*
G01*
X45327242Y-81609976D01*
X45459906Y-81680886D01*
X45475078Y-81688996D01*
X45604659Y-81795341D01*
X45711004Y-81924922D01*
X45711005Y-81924924D01*
X45790024Y-82072758D01*
X45838687Y-82233177D01*
X45855117Y-82400000D01*
X45838687Y-82566823D01*
X45790024Y-82727242D01*
X45719114Y-82859906D01*
X45711004Y-82875078D01*
X45604659Y-83004659D01*
X45475078Y-83111004D01*
X45475076Y-83111005D01*
X45327242Y-83190024D01*
X45166823Y-83238687D01*
X45041804Y-83251000D01*
X44958196Y-83251000D01*
X44833177Y-83238687D01*
X44672758Y-83190024D01*
X44524924Y-83111005D01*
X44524922Y-83111004D01*
X44395341Y-83004659D01*
X44288996Y-82875078D01*
X44280886Y-82859906D01*
X44209976Y-82727242D01*
X44161313Y-82566823D01*
X44144883Y-82400000D01*
X44161313Y-82233177D01*
X44209976Y-82072758D01*
X44288995Y-81924924D01*
X44288996Y-81924922D01*
X44395341Y-81795341D01*
X44524922Y-81688996D01*
X44540094Y-81680886D01*
X44672758Y-81609976D01*
X44833177Y-81561313D01*
X44958196Y-81549000D01*
X45041804Y-81549000D01*
X45166823Y-81561313D01*
X45166823Y-81561313D01*
G37*
G36*
X60406823Y-79021313D02*
G01*
X60567242Y-79069976D01*
X60699906Y-79140886D01*
X60715078Y-79148996D01*
X60844659Y-79255341D01*
X60951004Y-79384922D01*
X60951005Y-79384924D01*
X61030024Y-79532758D01*
X61078687Y-79693177D01*
X61095117Y-79860000D01*
X61078687Y-80026823D01*
X61030024Y-80187242D01*
X60959114Y-80319906D01*
X60951004Y-80335078D01*
X60844659Y-80464659D01*
X60715078Y-80571004D01*
X60715076Y-80571005D01*
X60567242Y-80650024D01*
X60406823Y-80698687D01*
X60281804Y-80711000D01*
X60198196Y-80711000D01*
X60073177Y-80698687D01*
X59912758Y-80650024D01*
X59764924Y-80571005D01*
X59764922Y-80571004D01*
X59635341Y-80464659D01*
X59528996Y-80335078D01*
X59520886Y-80319906D01*
X59449976Y-80187242D01*
X59401313Y-80026823D01*
X59384883Y-79860000D01*
X59401313Y-79693177D01*
X59449976Y-79532758D01*
X59528995Y-79384924D01*
X59528996Y-79384922D01*
X59635341Y-79255341D01*
X59764922Y-79148996D01*
X59780094Y-79140886D01*
X59912758Y-79069976D01*
X60073177Y-79021313D01*
X60198196Y-79009000D01*
X60281804Y-79009000D01*
X60406823Y-79021313D01*
X60406823Y-79021313D01*
G37*
G36*
X45166823Y-79021313D02*
G01*
X45327242Y-79069976D01*
X45459906Y-79140886D01*
X45475078Y-79148996D01*
X45604659Y-79255341D01*
X45711004Y-79384922D01*
X45711005Y-79384924D01*
X45790024Y-79532758D01*
X45838687Y-79693177D01*
X45855117Y-79860000D01*
X45838687Y-80026823D01*
X45790024Y-80187242D01*
X45719114Y-80319906D01*
X45711004Y-80335078D01*
X45604659Y-80464659D01*
X45475078Y-80571004D01*
X45475076Y-80571005D01*
X45327242Y-80650024D01*
X45166823Y-80698687D01*
X45041804Y-80711000D01*
X44958196Y-80711000D01*
X44833177Y-80698687D01*
X44672758Y-80650024D01*
X44524924Y-80571005D01*
X44524922Y-80571004D01*
X44395341Y-80464659D01*
X44288996Y-80335078D01*
X44280886Y-80319906D01*
X44209976Y-80187242D01*
X44161313Y-80026823D01*
X44144883Y-79860000D01*
X44161313Y-79693177D01*
X44209976Y-79532758D01*
X44288995Y-79384924D01*
X44288996Y-79384922D01*
X44395341Y-79255341D01*
X44524922Y-79148996D01*
X44540094Y-79140886D01*
X44672758Y-79069976D01*
X44833177Y-79021313D01*
X44958196Y-79009000D01*
X45041804Y-79009000D01*
X45166823Y-79021313D01*
X45166823Y-79021313D01*
G37*
G36*
X35593312Y-70530887D02*
G01*
X35683039Y-70558106D01*
X35765731Y-70602306D01*
X35838211Y-70661789D01*
X35897694Y-70734269D01*
X35941894Y-70816961D01*
X35969113Y-70906688D01*
X35978303Y-71000000D01*
X35969113Y-71093312D01*
X35941894Y-71183039D01*
X35897694Y-71265731D01*
X35838211Y-71338211D01*
X35765731Y-71397694D01*
X35765726Y-71397697D01*
X35758808Y-71403374D01*
X35741481Y-71420701D01*
X35727867Y-71441075D01*
X35718490Y-71463714D01*
X35713709Y-71487747D01*
X35713709Y-71512251D01*
X35718489Y-71536285D01*
X35727866Y-71558924D01*
X35741480Y-71579298D01*
X35758808Y-71596626D01*
X35765726Y-71602303D01*
X35765731Y-71602306D01*
X35838211Y-71661789D01*
X35897694Y-71734269D01*
X35941894Y-71816961D01*
X35969113Y-71906688D01*
X35978303Y-72000000D01*
X35969113Y-72093312D01*
X35941894Y-72183039D01*
X35897694Y-72265731D01*
X35838211Y-72338211D01*
X35765731Y-72397694D01*
X35765726Y-72397697D01*
X35758808Y-72403374D01*
X35741481Y-72420701D01*
X35727867Y-72441075D01*
X35718490Y-72463714D01*
X35713709Y-72487747D01*
X35713709Y-72512251D01*
X35718489Y-72536285D01*
X35727866Y-72558924D01*
X35741480Y-72579298D01*
X35758808Y-72596626D01*
X35765726Y-72602303D01*
X35765731Y-72602306D01*
X35838211Y-72661789D01*
X35897694Y-72734269D01*
X35941894Y-72816961D01*
X35969113Y-72906688D01*
X35978303Y-73000000D01*
X35969113Y-73093312D01*
X35941894Y-73183039D01*
X35897694Y-73265731D01*
X35838211Y-73338211D01*
X35765731Y-73397694D01*
X35765726Y-73397697D01*
X35758808Y-73403374D01*
X35741481Y-73420701D01*
X35727867Y-73441075D01*
X35718490Y-73463714D01*
X35713709Y-73487747D01*
X35713709Y-73512251D01*
X35718489Y-73536285D01*
X35727866Y-73558924D01*
X35741480Y-73579298D01*
X35758808Y-73596626D01*
X35765726Y-73602303D01*
X35765731Y-73602306D01*
X35838211Y-73661789D01*
X35897694Y-73734269D01*
X35941894Y-73816961D01*
X35969113Y-73906688D01*
X35978303Y-74000000D01*
X35969113Y-74093312D01*
X35941894Y-74183039D01*
X35897694Y-74265731D01*
X35838211Y-74338211D01*
X35765731Y-74397694D01*
X35765726Y-74397697D01*
X35758808Y-74403374D01*
X35741481Y-74420701D01*
X35727867Y-74441075D01*
X35718490Y-74463714D01*
X35713709Y-74487747D01*
X35713709Y-74512251D01*
X35718489Y-74536285D01*
X35727866Y-74558924D01*
X35741480Y-74579298D01*
X35758808Y-74596626D01*
X35765726Y-74602303D01*
X35765731Y-74602306D01*
X35838211Y-74661789D01*
X35897694Y-74734269D01*
X35941894Y-74816961D01*
X35969113Y-74906688D01*
X35978303Y-75000000D01*
X35969113Y-75093312D01*
X35941894Y-75183039D01*
X35897694Y-75265731D01*
X35838211Y-75338211D01*
X35765731Y-75397694D01*
X35765726Y-75397697D01*
X35758808Y-75403374D01*
X35741481Y-75420701D01*
X35727867Y-75441075D01*
X35718490Y-75463714D01*
X35713709Y-75487747D01*
X35713709Y-75512251D01*
X35718489Y-75536285D01*
X35727866Y-75558924D01*
X35741480Y-75579298D01*
X35758808Y-75596626D01*
X35765726Y-75602303D01*
X35765731Y-75602306D01*
X35838211Y-75661789D01*
X35897694Y-75734269D01*
X35941894Y-75816961D01*
X35969113Y-75906688D01*
X35978303Y-76000000D01*
X35969113Y-76093312D01*
X35941894Y-76183039D01*
X35897694Y-76265731D01*
X35838211Y-76338211D01*
X35765731Y-76397694D01*
X35765726Y-76397697D01*
X35758808Y-76403374D01*
X35741481Y-76420701D01*
X35727867Y-76441075D01*
X35718490Y-76463714D01*
X35713709Y-76487747D01*
X35713709Y-76512251D01*
X35718489Y-76536285D01*
X35727866Y-76558924D01*
X35741480Y-76579298D01*
X35758808Y-76596626D01*
X35765726Y-76602303D01*
X35765731Y-76602306D01*
X35838211Y-76661789D01*
X35897694Y-76734269D01*
X35941894Y-76816961D01*
X35969113Y-76906688D01*
X35978303Y-77000000D01*
X35969113Y-77093312D01*
X35941894Y-77183039D01*
X35897694Y-77265731D01*
X35853394Y-77319711D01*
X35839786Y-77340077D01*
X35830408Y-77362716D01*
X35825628Y-77386749D01*
X35825628Y-77411253D01*
X35830408Y-77435286D01*
X35839786Y-77457925D01*
X35853400Y-77478300D01*
X35870727Y-77495627D01*
X35891101Y-77509240D01*
X35913740Y-77518618D01*
X35950025Y-77524000D01*
X35976000Y-77524000D01*
X35976000Y-78476000D01*
X35024000Y-78476000D01*
X35024000Y-77524000D01*
X35049975Y-77524000D01*
X35074361Y-77521598D01*
X35097810Y-77514485D01*
X35119421Y-77502934D01*
X35138363Y-77487389D01*
X35153908Y-77468447D01*
X35165459Y-77446836D01*
X35172572Y-77423387D01*
X35174974Y-77399001D01*
X35172572Y-77374615D01*
X35165459Y-77351166D01*
X35146604Y-77319708D01*
X35102306Y-77265731D01*
X35058106Y-77183039D01*
X35030887Y-77093312D01*
X35021697Y-77000000D01*
X35030887Y-76906688D01*
X35058106Y-76816961D01*
X35102306Y-76734269D01*
X35161789Y-76661789D01*
X35234269Y-76602306D01*
X35234274Y-76602303D01*
X35241192Y-76596626D01*
X35258519Y-76579299D01*
X35272133Y-76558925D01*
X35281510Y-76536286D01*
X35286291Y-76512253D01*
X35286291Y-76487749D01*
X35281511Y-76463715D01*
X35272134Y-76441076D01*
X35258520Y-76420702D01*
X35241192Y-76403374D01*
X35234274Y-76397697D01*
X35234269Y-76397694D01*
X35161789Y-76338211D01*
X35102306Y-76265731D01*
X35058106Y-76183039D01*
X35030887Y-76093312D01*
X35021697Y-76000000D01*
X35030887Y-75906688D01*
X35058106Y-75816961D01*
X35102306Y-75734269D01*
X35161789Y-75661789D01*
X35234269Y-75602306D01*
X35234274Y-75602303D01*
X35241192Y-75596626D01*
X35258519Y-75579299D01*
X35272133Y-75558925D01*
X35281510Y-75536286D01*
X35286291Y-75512253D01*
X35286291Y-75487749D01*
X35281511Y-75463715D01*
X35272134Y-75441076D01*
X35258520Y-75420702D01*
X35241192Y-75403374D01*
X35234274Y-75397697D01*
X35234269Y-75397694D01*
X35161789Y-75338211D01*
X35102306Y-75265731D01*
X35058106Y-75183039D01*
X35030887Y-75093312D01*
X35021697Y-75000000D01*
X35030887Y-74906688D01*
X35058106Y-74816961D01*
X35102306Y-74734269D01*
X35161789Y-74661789D01*
X35234269Y-74602306D01*
X35234274Y-74602303D01*
X35241192Y-74596626D01*
X35258519Y-74579299D01*
X35272133Y-74558925D01*
X35281510Y-74536286D01*
X35286291Y-74512253D01*
X35286291Y-74487749D01*
X35281511Y-74463715D01*
X35272134Y-74441076D01*
X35258520Y-74420702D01*
X35241192Y-74403374D01*
X35234274Y-74397697D01*
X35234269Y-74397694D01*
X35161789Y-74338211D01*
X35102306Y-74265731D01*
X35058106Y-74183039D01*
X35030887Y-74093312D01*
X35021697Y-74000000D01*
X35030887Y-73906688D01*
X35058106Y-73816961D01*
X35102306Y-73734269D01*
X35161789Y-73661789D01*
X35234269Y-73602306D01*
X35234274Y-73602303D01*
X35241192Y-73596626D01*
X35258519Y-73579299D01*
X35272133Y-73558925D01*
X35281510Y-73536286D01*
X35286291Y-73512253D01*
X35286291Y-73487749D01*
X35281511Y-73463715D01*
X35272134Y-73441076D01*
X35258520Y-73420702D01*
X35241192Y-73403374D01*
X35234274Y-73397697D01*
X35234269Y-73397694D01*
X35161789Y-73338211D01*
X35102306Y-73265731D01*
X35058106Y-73183039D01*
X35030887Y-73093312D01*
X35021697Y-73000000D01*
X35030887Y-72906688D01*
X35058106Y-72816961D01*
X35102306Y-72734269D01*
X35161789Y-72661789D01*
X35234269Y-72602306D01*
X35234274Y-72602303D01*
X35241192Y-72596626D01*
X35258519Y-72579299D01*
X35272133Y-72558925D01*
X35281510Y-72536286D01*
X35286291Y-72512253D01*
X35286291Y-72487749D01*
X35281511Y-72463715D01*
X35272134Y-72441076D01*
X35258520Y-72420702D01*
X35241192Y-72403374D01*
X35234274Y-72397697D01*
X35234269Y-72397694D01*
X35161789Y-72338211D01*
X35102306Y-72265731D01*
X35058106Y-72183039D01*
X35030887Y-72093312D01*
X35021697Y-72000000D01*
X35030887Y-71906688D01*
X35058106Y-71816961D01*
X35102306Y-71734269D01*
X35161789Y-71661789D01*
X35234269Y-71602306D01*
X35234274Y-71602303D01*
X35241192Y-71596626D01*
X35258519Y-71579299D01*
X35272133Y-71558925D01*
X35281510Y-71536286D01*
X35286291Y-71512253D01*
X35286291Y-71487749D01*
X35281511Y-71463715D01*
X35272134Y-71441076D01*
X35258520Y-71420702D01*
X35241192Y-71403374D01*
X35234274Y-71397697D01*
X35234269Y-71397694D01*
X35161789Y-71338211D01*
X35102306Y-71265731D01*
X35058106Y-71183039D01*
X35030887Y-71093312D01*
X35021697Y-71000000D01*
X35030887Y-70906688D01*
X35058106Y-70816961D01*
X35102306Y-70734269D01*
X35161789Y-70661789D01*
X35234269Y-70602306D01*
X35316961Y-70558106D01*
X35406688Y-70530887D01*
X35476616Y-70524000D01*
X35523384Y-70524000D01*
X35593312Y-70530887D01*
X35593312Y-70530887D01*
G37*
G36*
X60406823Y-76481313D02*
G01*
X60567242Y-76529976D01*
X60691935Y-76596626D01*
X60715078Y-76608996D01*
X60844659Y-76715341D01*
X60951004Y-76844922D01*
X60951005Y-76844924D01*
X61030024Y-76992758D01*
X61078687Y-77153177D01*
X61095117Y-77320000D01*
X61078687Y-77486823D01*
X61030024Y-77647242D01*
X60975633Y-77749000D01*
X60951004Y-77795078D01*
X60844659Y-77924659D01*
X60715078Y-78031004D01*
X60715076Y-78031005D01*
X60567242Y-78110024D01*
X60406823Y-78158687D01*
X60281804Y-78171000D01*
X60198196Y-78171000D01*
X60073177Y-78158687D01*
X59912758Y-78110024D01*
X59764924Y-78031005D01*
X59764922Y-78031004D01*
X59635341Y-77924659D01*
X59528996Y-77795078D01*
X59504367Y-77749000D01*
X59449976Y-77647242D01*
X59401313Y-77486823D01*
X59384883Y-77320000D01*
X59401313Y-77153177D01*
X59449976Y-76992758D01*
X59528995Y-76844924D01*
X59528996Y-76844922D01*
X59635341Y-76715341D01*
X59764922Y-76608996D01*
X59788065Y-76596626D01*
X59912758Y-76529976D01*
X60073177Y-76481313D01*
X60198196Y-76469000D01*
X60281804Y-76469000D01*
X60406823Y-76481313D01*
X60406823Y-76481313D01*
G37*
G36*
X45166823Y-76481313D02*
G01*
X45327242Y-76529976D01*
X45451935Y-76596626D01*
X45475078Y-76608996D01*
X45604659Y-76715341D01*
X45711004Y-76844922D01*
X45711005Y-76844924D01*
X45790024Y-76992758D01*
X45838687Y-77153177D01*
X45855117Y-77320000D01*
X45838687Y-77486823D01*
X45790024Y-77647242D01*
X45735633Y-77749000D01*
X45711004Y-77795078D01*
X45604659Y-77924659D01*
X45475078Y-78031004D01*
X45475076Y-78031005D01*
X45327242Y-78110024D01*
X45166823Y-78158687D01*
X45041804Y-78171000D01*
X44958196Y-78171000D01*
X44833177Y-78158687D01*
X44672758Y-78110024D01*
X44524924Y-78031005D01*
X44524922Y-78031004D01*
X44395341Y-77924659D01*
X44288996Y-77795078D01*
X44264367Y-77749000D01*
X44209976Y-77647242D01*
X44161313Y-77486823D01*
X44144883Y-77320000D01*
X44161313Y-77153177D01*
X44209976Y-76992758D01*
X44288995Y-76844924D01*
X44288996Y-76844922D01*
X44395341Y-76715341D01*
X44524922Y-76608996D01*
X44548065Y-76596626D01*
X44672758Y-76529976D01*
X44833177Y-76481313D01*
X44958196Y-76469000D01*
X45041804Y-76469000D01*
X45166823Y-76481313D01*
X45166823Y-76481313D01*
G37*
G36*
X80839694Y-76098633D02*
G01*
X81012095Y-76150931D01*
X81170983Y-76235858D01*
X81310249Y-76350151D01*
X81424542Y-76489417D01*
X81509469Y-76648305D01*
X81561767Y-76820706D01*
X81579425Y-77000000D01*
X81561767Y-77179294D01*
X81509469Y-77351695D01*
X81424542Y-77510583D01*
X81310249Y-77649849D01*
X81170983Y-77764142D01*
X81012095Y-77849069D01*
X80839694Y-77901367D01*
X80705331Y-77914600D01*
X79294669Y-77914600D01*
X79160306Y-77901367D01*
X78987905Y-77849069D01*
X78829017Y-77764142D01*
X78689751Y-77649849D01*
X78575458Y-77510583D01*
X78490531Y-77351695D01*
X78438233Y-77179294D01*
X78420575Y-77000000D01*
X78438233Y-76820706D01*
X78490531Y-76648305D01*
X78575458Y-76489417D01*
X78689751Y-76350151D01*
X78829017Y-76235858D01*
X78987905Y-76150931D01*
X79160306Y-76098633D01*
X79294669Y-76085400D01*
X80705331Y-76085400D01*
X80839694Y-76098633D01*
X80839694Y-76098633D01*
G37*
G36*
X93339694Y-76098633D02*
G01*
X93512095Y-76150931D01*
X93670983Y-76235858D01*
X93810249Y-76350151D01*
X93924542Y-76489417D01*
X94009469Y-76648305D01*
X94061767Y-76820706D01*
X94079425Y-77000000D01*
X94061767Y-77179294D01*
X94009469Y-77351695D01*
X93924542Y-77510583D01*
X93810249Y-77649849D01*
X93670983Y-77764142D01*
X93512095Y-77849069D01*
X93339694Y-77901367D01*
X93205331Y-77914600D01*
X91794669Y-77914600D01*
X91660306Y-77901367D01*
X91487905Y-77849069D01*
X91329017Y-77764142D01*
X91189751Y-77649849D01*
X91075458Y-77510583D01*
X90990531Y-77351695D01*
X90938233Y-77179294D01*
X90920575Y-77000000D01*
X90938233Y-76820706D01*
X90990531Y-76648305D01*
X91075458Y-76489417D01*
X91189751Y-76350151D01*
X91329017Y-76235858D01*
X91487905Y-76150931D01*
X91660306Y-76098633D01*
X91794669Y-76085400D01*
X93205331Y-76085400D01*
X93339694Y-76098633D01*
X93339694Y-76098633D01*
G37*
G36*
X60406823Y-73941313D02*
G01*
X60567242Y-73989976D01*
X60699906Y-74060886D01*
X60715078Y-74068996D01*
X60844659Y-74175341D01*
X60951004Y-74304922D01*
X60951005Y-74304924D01*
X61030024Y-74452758D01*
X61030025Y-74452761D01*
X61033348Y-74463715D01*
X61078687Y-74613177D01*
X61095117Y-74780000D01*
X61078687Y-74946823D01*
X61030024Y-75107242D01*
X60959114Y-75239906D01*
X60951004Y-75255078D01*
X60844659Y-75384659D01*
X60715078Y-75491004D01*
X60715076Y-75491005D01*
X60567242Y-75570024D01*
X60406823Y-75618687D01*
X60281804Y-75631000D01*
X60198196Y-75631000D01*
X60073177Y-75618687D01*
X59912758Y-75570024D01*
X59764924Y-75491005D01*
X59764922Y-75491004D01*
X59635341Y-75384659D01*
X59528996Y-75255078D01*
X59520886Y-75239906D01*
X59449976Y-75107242D01*
X59401313Y-74946823D01*
X59384883Y-74780000D01*
X59401313Y-74613177D01*
X59446652Y-74463715D01*
X59449975Y-74452761D01*
X59449976Y-74452758D01*
X59528995Y-74304924D01*
X59528996Y-74304922D01*
X59635341Y-74175341D01*
X59764922Y-74068996D01*
X59780094Y-74060886D01*
X59912758Y-73989976D01*
X60073177Y-73941313D01*
X60198196Y-73929000D01*
X60281804Y-73929000D01*
X60406823Y-73941313D01*
X60406823Y-73941313D01*
G37*
G36*
X45166823Y-73941313D02*
G01*
X45327242Y-73989976D01*
X45459906Y-74060886D01*
X45475078Y-74068996D01*
X45604659Y-74175341D01*
X45711004Y-74304922D01*
X45711005Y-74304924D01*
X45790024Y-74452758D01*
X45790025Y-74452761D01*
X45793348Y-74463715D01*
X45838687Y-74613177D01*
X45855117Y-74780000D01*
X45838687Y-74946823D01*
X45790024Y-75107242D01*
X45719114Y-75239906D01*
X45711004Y-75255078D01*
X45604659Y-75384659D01*
X45475078Y-75491004D01*
X45475076Y-75491005D01*
X45327242Y-75570024D01*
X45166823Y-75618687D01*
X45041804Y-75631000D01*
X44958196Y-75631000D01*
X44833177Y-75618687D01*
X44672758Y-75570024D01*
X44524924Y-75491005D01*
X44524922Y-75491004D01*
X44395341Y-75384659D01*
X44288996Y-75255078D01*
X44280886Y-75239906D01*
X44209976Y-75107242D01*
X44161313Y-74946823D01*
X44144883Y-74780000D01*
X44161313Y-74613177D01*
X44206652Y-74463715D01*
X44209975Y-74452761D01*
X44209976Y-74452758D01*
X44288995Y-74304924D01*
X44288996Y-74304922D01*
X44395341Y-74175341D01*
X44524922Y-74068996D01*
X44540094Y-74060886D01*
X44672758Y-73989976D01*
X44833177Y-73941313D01*
X44958196Y-73929000D01*
X45041804Y-73929000D01*
X45166823Y-73941313D01*
X45166823Y-73941313D01*
G37*
G36*
X71301000Y-71801000D02*
G01*
X71160445Y-71801000D01*
X71136059Y-71803402D01*
X71112610Y-71810515D01*
X71090999Y-71822066D01*
X71072057Y-71837611D01*
X71056512Y-71856553D01*
X71044961Y-71878164D01*
X71037848Y-71901613D01*
X71035446Y-71925999D01*
X71037848Y-71950385D01*
X71044961Y-71973834D01*
X71056512Y-71995445D01*
X71072057Y-72014387D01*
X71090999Y-72029932D01*
X71101521Y-72036238D01*
X71292555Y-72138347D01*
X71467818Y-72282182D01*
X71611653Y-72457445D01*
X71686046Y-72596626D01*
X71718530Y-72657400D01*
X71784346Y-72874365D01*
X71806569Y-73100000D01*
X71784346Y-73325635D01*
X71720446Y-73536285D01*
X71718529Y-73542602D01*
X71611653Y-73742555D01*
X71467818Y-73917818D01*
X71292555Y-74061653D01*
X71092602Y-74168529D01*
X71092600Y-74168530D01*
X70875635Y-74234346D01*
X70819271Y-74239897D01*
X70706545Y-74251000D01*
X69293455Y-74251000D01*
X69180729Y-74239897D01*
X69124365Y-74234346D01*
X68907400Y-74168530D01*
X68907398Y-74168529D01*
X68707445Y-74061653D01*
X68532182Y-73917818D01*
X68388347Y-73742555D01*
X68281471Y-73542602D01*
X68279555Y-73536285D01*
X68215654Y-73325635D01*
X68193431Y-73100000D01*
X68215654Y-72874365D01*
X68281470Y-72657400D01*
X68313954Y-72596626D01*
X68388347Y-72457445D01*
X68532182Y-72282182D01*
X68707445Y-72138347D01*
X68898479Y-72036238D01*
X68918853Y-72022625D01*
X68936180Y-72005298D01*
X68949794Y-71984923D01*
X68959172Y-71962285D01*
X68963952Y-71938251D01*
X68963952Y-71913747D01*
X68959172Y-71889714D01*
X68949794Y-71867075D01*
X68936181Y-71846701D01*
X68918854Y-71829374D01*
X68898479Y-71815760D01*
X68875841Y-71806382D01*
X68851807Y-71801602D01*
X68839555Y-71801000D01*
X68699000Y-71801000D01*
X68699000Y-70199000D01*
X71301000Y-70199000D01*
X71301000Y-71801000D01*
X71301000Y-71801000D01*
G37*
G36*
X60406823Y-71401313D02*
G01*
X60567242Y-71449976D01*
X60683750Y-71512251D01*
X60715078Y-71528996D01*
X60844659Y-71635341D01*
X60951004Y-71764922D01*
X60951005Y-71764924D01*
X61030024Y-71912758D01*
X61078687Y-72073177D01*
X61095117Y-72240000D01*
X61078687Y-72406823D01*
X61030024Y-72567242D01*
X60962400Y-72693757D01*
X60951004Y-72715078D01*
X60844659Y-72844659D01*
X60715078Y-72951004D01*
X60715076Y-72951005D01*
X60567242Y-73030024D01*
X60406823Y-73078687D01*
X60281804Y-73091000D01*
X60198196Y-73091000D01*
X60073177Y-73078687D01*
X59912758Y-73030024D01*
X59764924Y-72951005D01*
X59764922Y-72951004D01*
X59635341Y-72844659D01*
X59528996Y-72715078D01*
X59517600Y-72693757D01*
X59449976Y-72567242D01*
X59401313Y-72406823D01*
X59384883Y-72240000D01*
X59401313Y-72073177D01*
X59449976Y-71912758D01*
X59528995Y-71764924D01*
X59528996Y-71764922D01*
X59635341Y-71635341D01*
X59764922Y-71528996D01*
X59796250Y-71512251D01*
X59912758Y-71449976D01*
X60073177Y-71401313D01*
X60198196Y-71389000D01*
X60281804Y-71389000D01*
X60406823Y-71401313D01*
X60406823Y-71401313D01*
G37*
G36*
X45166823Y-71401313D02*
G01*
X45327242Y-71449976D01*
X45443750Y-71512251D01*
X45475078Y-71528996D01*
X45604659Y-71635341D01*
X45711004Y-71764922D01*
X45711005Y-71764924D01*
X45790024Y-71912758D01*
X45838687Y-72073177D01*
X45855117Y-72240000D01*
X45838687Y-72406823D01*
X45790024Y-72567242D01*
X45722400Y-72693757D01*
X45711004Y-72715078D01*
X45604659Y-72844659D01*
X45475078Y-72951004D01*
X45475076Y-72951005D01*
X45327242Y-73030024D01*
X45166823Y-73078687D01*
X45041804Y-73091000D01*
X44958196Y-73091000D01*
X44833177Y-73078687D01*
X44672758Y-73030024D01*
X44524924Y-72951005D01*
X44524922Y-72951004D01*
X44395341Y-72844659D01*
X44288996Y-72715078D01*
X44277600Y-72693757D01*
X44209976Y-72567242D01*
X44161313Y-72406823D01*
X44144883Y-72240000D01*
X44161313Y-72073177D01*
X44209976Y-71912758D01*
X44288995Y-71764924D01*
X44288996Y-71764922D01*
X44395341Y-71635341D01*
X44524922Y-71528996D01*
X44556250Y-71512251D01*
X44672758Y-71449976D01*
X44833177Y-71401313D01*
X44958196Y-71389000D01*
X45041804Y-71389000D01*
X45166823Y-71401313D01*
X45166823Y-71401313D01*
G37*
G36*
X80839694Y-71098633D02*
G01*
X81012095Y-71150931D01*
X81170983Y-71235858D01*
X81310249Y-71350151D01*
X81424542Y-71489417D01*
X81509469Y-71648305D01*
X81561767Y-71820706D01*
X81579425Y-72000000D01*
X81561767Y-72179294D01*
X81509469Y-72351695D01*
X81424542Y-72510583D01*
X81310249Y-72649849D01*
X81170983Y-72764142D01*
X81012095Y-72849069D01*
X80839694Y-72901367D01*
X80705331Y-72914600D01*
X79294669Y-72914600D01*
X79160306Y-72901367D01*
X78987905Y-72849069D01*
X78829017Y-72764142D01*
X78689751Y-72649849D01*
X78575458Y-72510583D01*
X78490531Y-72351695D01*
X78438233Y-72179294D01*
X78420575Y-72000000D01*
X78438233Y-71820706D01*
X78490531Y-71648305D01*
X78575458Y-71489417D01*
X78689751Y-71350151D01*
X78829017Y-71235858D01*
X78987905Y-71150931D01*
X79160306Y-71098633D01*
X79294669Y-71085400D01*
X80705331Y-71085400D01*
X80839694Y-71098633D01*
X80839694Y-71098633D01*
G37*
G36*
X93339694Y-71098633D02*
G01*
X93512095Y-71150931D01*
X93670983Y-71235858D01*
X93810249Y-71350151D01*
X93924542Y-71489417D01*
X94009469Y-71648305D01*
X94061767Y-71820706D01*
X94079425Y-72000000D01*
X94061767Y-72179294D01*
X94009469Y-72351695D01*
X93924542Y-72510583D01*
X93810249Y-72649849D01*
X93670983Y-72764142D01*
X93512095Y-72849069D01*
X93339694Y-72901367D01*
X93205331Y-72914600D01*
X91794669Y-72914600D01*
X91660306Y-72901367D01*
X91487905Y-72849069D01*
X91329017Y-72764142D01*
X91189751Y-72649849D01*
X91075458Y-72510583D01*
X90990531Y-72351695D01*
X90938233Y-72179294D01*
X90920575Y-72000000D01*
X90938233Y-71820706D01*
X90990531Y-71648305D01*
X91075458Y-71489417D01*
X91189751Y-71350151D01*
X91329017Y-71235858D01*
X91487905Y-71150931D01*
X91660306Y-71098633D01*
X91794669Y-71085400D01*
X93205331Y-71085400D01*
X93339694Y-71098633D01*
X93339694Y-71098633D01*
G37*
G36*
X138619142Y-71130242D02*
G01*
X138767101Y-71191529D01*
X138900255Y-71280499D01*
X139013501Y-71393745D01*
X139102471Y-71526899D01*
X139163758Y-71674858D01*
X139195000Y-71831925D01*
X139195000Y-71992075D01*
X139163758Y-72149142D01*
X139102471Y-72297101D01*
X139013501Y-72430255D01*
X138900255Y-72543501D01*
X138767101Y-72632471D01*
X138619142Y-72693758D01*
X138462075Y-72725000D01*
X138301925Y-72725000D01*
X138144858Y-72693758D01*
X137996899Y-72632471D01*
X137863745Y-72543501D01*
X137750499Y-72430255D01*
X137661529Y-72297101D01*
X137600242Y-72149142D01*
X137569000Y-71992075D01*
X137569000Y-71831925D01*
X137600242Y-71674858D01*
X137661529Y-71526899D01*
X137750499Y-71393745D01*
X137863745Y-71280499D01*
X137996899Y-71191529D01*
X138144858Y-71130242D01*
X138301925Y-71099000D01*
X138462075Y-71099000D01*
X138619142Y-71130242D01*
X138619142Y-71130242D01*
G37*
G36*
X60406823Y-68861313D02*
G01*
X60567242Y-68909976D01*
X60699906Y-68980886D01*
X60715078Y-68988996D01*
X60844659Y-69095341D01*
X60951004Y-69224922D01*
X60951005Y-69224924D01*
X61030024Y-69372758D01*
X61078687Y-69533177D01*
X61095117Y-69700000D01*
X61078687Y-69866823D01*
X61030024Y-70027242D01*
X60995158Y-70092471D01*
X60951004Y-70175078D01*
X60844659Y-70304659D01*
X60715078Y-70411004D01*
X60715076Y-70411005D01*
X60567242Y-70490024D01*
X60406823Y-70538687D01*
X60281804Y-70551000D01*
X60198196Y-70551000D01*
X60073177Y-70538687D01*
X59912758Y-70490024D01*
X59764924Y-70411005D01*
X59764922Y-70411004D01*
X59635341Y-70304659D01*
X59528996Y-70175078D01*
X59484842Y-70092471D01*
X59449976Y-70027242D01*
X59401313Y-69866823D01*
X59384883Y-69700000D01*
X59401313Y-69533177D01*
X59449976Y-69372758D01*
X59528995Y-69224924D01*
X59528996Y-69224922D01*
X59635341Y-69095341D01*
X59764922Y-68988996D01*
X59780094Y-68980886D01*
X59912758Y-68909976D01*
X60073177Y-68861313D01*
X60198196Y-68849000D01*
X60281804Y-68849000D01*
X60406823Y-68861313D01*
X60406823Y-68861313D01*
G37*
G36*
X45166823Y-68861313D02*
G01*
X45327242Y-68909976D01*
X45459906Y-68980886D01*
X45475078Y-68988996D01*
X45604659Y-69095341D01*
X45711004Y-69224922D01*
X45711005Y-69224924D01*
X45790024Y-69372758D01*
X45838687Y-69533177D01*
X45855117Y-69700000D01*
X45838687Y-69866823D01*
X45790024Y-70027242D01*
X45755158Y-70092471D01*
X45711004Y-70175078D01*
X45604659Y-70304659D01*
X45475078Y-70411004D01*
X45475076Y-70411005D01*
X45327242Y-70490024D01*
X45166823Y-70538687D01*
X45041804Y-70551000D01*
X44958196Y-70551000D01*
X44833177Y-70538687D01*
X44672758Y-70490024D01*
X44524924Y-70411005D01*
X44524922Y-70411004D01*
X44395341Y-70304659D01*
X44288996Y-70175078D01*
X44244842Y-70092471D01*
X44209976Y-70027242D01*
X44161313Y-69866823D01*
X44144883Y-69700000D01*
X44161313Y-69533177D01*
X44209976Y-69372758D01*
X44288995Y-69224924D01*
X44288996Y-69224922D01*
X44395341Y-69095341D01*
X44524922Y-68988996D01*
X44540094Y-68980886D01*
X44672758Y-68909976D01*
X44833177Y-68861313D01*
X44958196Y-68849000D01*
X45041804Y-68849000D01*
X45166823Y-68861313D01*
X45166823Y-68861313D01*
G37*
G36*
X138619142Y-68590242D02*
G01*
X138767101Y-68651529D01*
X138900255Y-68740499D01*
X139013501Y-68853745D01*
X139102471Y-68986899D01*
X139163758Y-69134858D01*
X139195000Y-69291925D01*
X139195000Y-69452075D01*
X139163758Y-69609142D01*
X139102471Y-69757101D01*
X139013501Y-69890255D01*
X138900255Y-70003501D01*
X138767101Y-70092471D01*
X138619142Y-70153758D01*
X138462075Y-70185000D01*
X138301925Y-70185000D01*
X138144858Y-70153758D01*
X137996899Y-70092471D01*
X137863745Y-70003501D01*
X137750499Y-69890255D01*
X137661529Y-69757101D01*
X137600242Y-69609142D01*
X137569000Y-69452075D01*
X137569000Y-69291925D01*
X137600242Y-69134858D01*
X137661529Y-68986899D01*
X137750499Y-68853745D01*
X137863745Y-68740499D01*
X137996899Y-68651529D01*
X138144858Y-68590242D01*
X138301925Y-68559000D01*
X138462075Y-68559000D01*
X138619142Y-68590242D01*
X138619142Y-68590242D01*
G37*
G36*
X70578571Y-68202863D02*
G01*
X70657023Y-68210590D01*
X70757682Y-68241125D01*
X70808013Y-68256392D01*
X70947165Y-68330771D01*
X71069133Y-68430867D01*
X71169229Y-68552835D01*
X71243608Y-68691987D01*
X71243608Y-68691988D01*
X71289410Y-68842977D01*
X71304875Y-69000000D01*
X71289410Y-69157023D01*
X71268813Y-69224922D01*
X71243608Y-69308013D01*
X71169229Y-69447165D01*
X71069133Y-69569133D01*
X70947165Y-69669229D01*
X70808013Y-69743608D01*
X70763535Y-69757100D01*
X70657023Y-69789410D01*
X70578571Y-69797137D01*
X70539346Y-69801000D01*
X69460654Y-69801000D01*
X69421429Y-69797137D01*
X69342977Y-69789410D01*
X69236465Y-69757100D01*
X69191987Y-69743608D01*
X69052835Y-69669229D01*
X68930867Y-69569133D01*
X68830771Y-69447165D01*
X68756392Y-69308013D01*
X68731187Y-69224922D01*
X68710590Y-69157023D01*
X68695125Y-69000000D01*
X68710590Y-68842977D01*
X68756392Y-68691988D01*
X68756392Y-68691987D01*
X68830771Y-68552835D01*
X68930867Y-68430867D01*
X69052835Y-68330771D01*
X69191987Y-68256392D01*
X69242318Y-68241125D01*
X69342977Y-68210590D01*
X69421429Y-68202863D01*
X69460654Y-68199000D01*
X70539346Y-68199000D01*
X70578571Y-68202863D01*
X70578571Y-68202863D01*
G37*
G36*
X60406823Y-66321313D02*
G01*
X60567242Y-66369976D01*
X60681161Y-66430867D01*
X60715078Y-66448996D01*
X60844659Y-66555341D01*
X60951004Y-66684922D01*
X60951005Y-66684924D01*
X61030024Y-66832758D01*
X61078687Y-66993177D01*
X61095117Y-67160000D01*
X61078687Y-67326823D01*
X61030024Y-67487242D01*
X60995158Y-67552471D01*
X60951004Y-67635078D01*
X60844659Y-67764659D01*
X60715078Y-67871004D01*
X60715076Y-67871005D01*
X60567242Y-67950024D01*
X60406823Y-67998687D01*
X60281804Y-68011000D01*
X60198196Y-68011000D01*
X60073177Y-67998687D01*
X59912758Y-67950024D01*
X59764924Y-67871005D01*
X59764922Y-67871004D01*
X59635341Y-67764659D01*
X59528996Y-67635078D01*
X59484842Y-67552471D01*
X59449976Y-67487242D01*
X59401313Y-67326823D01*
X59384883Y-67160000D01*
X59401313Y-66993177D01*
X59449976Y-66832758D01*
X59528995Y-66684924D01*
X59528996Y-66684922D01*
X59635341Y-66555341D01*
X59764922Y-66448996D01*
X59798839Y-66430867D01*
X59912758Y-66369976D01*
X60073177Y-66321313D01*
X60198196Y-66309000D01*
X60281804Y-66309000D01*
X60406823Y-66321313D01*
X60406823Y-66321313D01*
G37*
G36*
X45166823Y-66321313D02*
G01*
X45327242Y-66369976D01*
X45441161Y-66430867D01*
X45475078Y-66448996D01*
X45604659Y-66555341D01*
X45711004Y-66684922D01*
X45711005Y-66684924D01*
X45790024Y-66832758D01*
X45838687Y-66993177D01*
X45855117Y-67160000D01*
X45838687Y-67326823D01*
X45790024Y-67487242D01*
X45755158Y-67552471D01*
X45711004Y-67635078D01*
X45604659Y-67764659D01*
X45475078Y-67871004D01*
X45475076Y-67871005D01*
X45327242Y-67950024D01*
X45166823Y-67998687D01*
X45041804Y-68011000D01*
X44958196Y-68011000D01*
X44833177Y-67998687D01*
X44672758Y-67950024D01*
X44524924Y-67871005D01*
X44524922Y-67871004D01*
X44395341Y-67764659D01*
X44288996Y-67635078D01*
X44244842Y-67552471D01*
X44209976Y-67487242D01*
X44161313Y-67326823D01*
X44144883Y-67160000D01*
X44161313Y-66993177D01*
X44209976Y-66832758D01*
X44288995Y-66684924D01*
X44288996Y-66684922D01*
X44395341Y-66555341D01*
X44524922Y-66448996D01*
X44558839Y-66430867D01*
X44672758Y-66369976D01*
X44833177Y-66321313D01*
X44958196Y-66309000D01*
X45041804Y-66309000D01*
X45166823Y-66321313D01*
X45166823Y-66321313D01*
G37*
G36*
X70819271Y-63760103D02*
G01*
X70875635Y-63765654D01*
X71092600Y-63831470D01*
X71092602Y-63831471D01*
X71292555Y-63938347D01*
X71467818Y-64082182D01*
X71611653Y-64257445D01*
X71672923Y-64372075D01*
X71718530Y-64457400D01*
X71784346Y-64674365D01*
X71806569Y-64900000D01*
X71784346Y-65125635D01*
X71722048Y-65331004D01*
X71718529Y-65342602D01*
X71611653Y-65542555D01*
X71467818Y-65717818D01*
X71292555Y-65861653D01*
X71092602Y-65968529D01*
X71092600Y-65968530D01*
X70875635Y-66034346D01*
X70875631Y-66034346D01*
X70873516Y-66034988D01*
X70853803Y-66038909D01*
X70831164Y-66048285D01*
X70810790Y-66061899D01*
X70793462Y-66079225D01*
X70779848Y-66099599D01*
X70770470Y-66122238D01*
X70765689Y-66146271D01*
X70765689Y-66170775D01*
X70770469Y-66194809D01*
X70779845Y-66217448D01*
X70793459Y-66237822D01*
X70810785Y-66255150D01*
X70831161Y-66268765D01*
X70947165Y-66330771D01*
X71069133Y-66430867D01*
X71169229Y-66552835D01*
X71243608Y-66691987D01*
X71243608Y-66691988D01*
X71289410Y-66842977D01*
X71304875Y-67000000D01*
X71289410Y-67157023D01*
X71258875Y-67257682D01*
X71243608Y-67308013D01*
X71169229Y-67447165D01*
X71069133Y-67569133D01*
X70947165Y-67669229D01*
X70808013Y-67743608D01*
X70757682Y-67758875D01*
X70657023Y-67789410D01*
X70578571Y-67797137D01*
X70539346Y-67801000D01*
X69460654Y-67801000D01*
X69421429Y-67797137D01*
X69342977Y-67789410D01*
X69242318Y-67758875D01*
X69191987Y-67743608D01*
X69052835Y-67669229D01*
X68930867Y-67569133D01*
X68830771Y-67447165D01*
X68756392Y-67308013D01*
X68741125Y-67257682D01*
X68710590Y-67157023D01*
X68695125Y-67000000D01*
X68710590Y-66842977D01*
X68756392Y-66691988D01*
X68756392Y-66691987D01*
X68830771Y-66552835D01*
X68930867Y-66430867D01*
X69052835Y-66330771D01*
X69168839Y-66268765D01*
X69189213Y-66255151D01*
X69206540Y-66237824D01*
X69220154Y-66217450D01*
X69229531Y-66194811D01*
X69234311Y-66170777D01*
X69234311Y-66146273D01*
X69229530Y-66122240D01*
X69220153Y-66099601D01*
X69206539Y-66079227D01*
X69189212Y-66061900D01*
X69168838Y-66048286D01*
X69146199Y-66038909D01*
X69126484Y-66034988D01*
X69124369Y-66034346D01*
X69124365Y-66034346D01*
X68907400Y-65968530D01*
X68907398Y-65968529D01*
X68707445Y-65861653D01*
X68532182Y-65717818D01*
X68388347Y-65542555D01*
X68281471Y-65342602D01*
X68277953Y-65331004D01*
X68215654Y-65125635D01*
X68193431Y-64900000D01*
X68215654Y-64674365D01*
X68281470Y-64457400D01*
X68327077Y-64372075D01*
X68388347Y-64257445D01*
X68532182Y-64082182D01*
X68707445Y-63938347D01*
X68907398Y-63831471D01*
X68907400Y-63831470D01*
X69124365Y-63765654D01*
X69180729Y-63760103D01*
X69293455Y-63749000D01*
X70706545Y-63749000D01*
X70819271Y-63760103D01*
X70819271Y-63760103D01*
G37*
G36*
X138619142Y-66050242D02*
G01*
X138767101Y-66111529D01*
X138900255Y-66200499D01*
X139013501Y-66313745D01*
X139102471Y-66446899D01*
X139163758Y-66594858D01*
X139195000Y-66751925D01*
X139195000Y-66912075D01*
X139163758Y-67069142D01*
X139102471Y-67217101D01*
X139013501Y-67350255D01*
X138900255Y-67463501D01*
X138767101Y-67552471D01*
X138619142Y-67613758D01*
X138462075Y-67645000D01*
X138301925Y-67645000D01*
X138144858Y-67613758D01*
X137996899Y-67552471D01*
X137863745Y-67463501D01*
X137750499Y-67350255D01*
X137661529Y-67217101D01*
X137600242Y-67069142D01*
X137569000Y-66912075D01*
X137569000Y-66751925D01*
X137600242Y-66594858D01*
X137661529Y-66446899D01*
X137750499Y-66313745D01*
X137863745Y-66200499D01*
X137996899Y-66111529D01*
X138144858Y-66050242D01*
X138301925Y-66019000D01*
X138462075Y-66019000D01*
X138619142Y-66050242D01*
X138619142Y-66050242D01*
G37*
G36*
X60406823Y-63781313D02*
G01*
X60567242Y-63829976D01*
X60699906Y-63900886D01*
X60715078Y-63908996D01*
X60844659Y-64015341D01*
X60951004Y-64144922D01*
X60951005Y-64144924D01*
X61030024Y-64292758D01*
X61078687Y-64453177D01*
X61095117Y-64620000D01*
X61078687Y-64786823D01*
X61030024Y-64947242D01*
X60995158Y-65012471D01*
X60951004Y-65095078D01*
X60844659Y-65224659D01*
X60715078Y-65331004D01*
X60715076Y-65331005D01*
X60567242Y-65410024D01*
X60406823Y-65458687D01*
X60281804Y-65471000D01*
X60198196Y-65471000D01*
X60073177Y-65458687D01*
X59912758Y-65410024D01*
X59764924Y-65331005D01*
X59764922Y-65331004D01*
X59635341Y-65224659D01*
X59528996Y-65095078D01*
X59484842Y-65012471D01*
X59449976Y-64947242D01*
X59401313Y-64786823D01*
X59384883Y-64620000D01*
X59401313Y-64453177D01*
X59449976Y-64292758D01*
X59528995Y-64144924D01*
X59528996Y-64144922D01*
X59635341Y-64015341D01*
X59764922Y-63908996D01*
X59780094Y-63900886D01*
X59912758Y-63829976D01*
X60073177Y-63781313D01*
X60198196Y-63769000D01*
X60281804Y-63769000D01*
X60406823Y-63781313D01*
X60406823Y-63781313D01*
G37*
G36*
X45166823Y-63781313D02*
G01*
X45327242Y-63829976D01*
X45459906Y-63900886D01*
X45475078Y-63908996D01*
X45604659Y-64015341D01*
X45711004Y-64144922D01*
X45711005Y-64144924D01*
X45790024Y-64292758D01*
X45838687Y-64453177D01*
X45855117Y-64620000D01*
X45838687Y-64786823D01*
X45790024Y-64947242D01*
X45755158Y-65012471D01*
X45711004Y-65095078D01*
X45604659Y-65224659D01*
X45475078Y-65331004D01*
X45475076Y-65331005D01*
X45327242Y-65410024D01*
X45166823Y-65458687D01*
X45041804Y-65471000D01*
X44958196Y-65471000D01*
X44833177Y-65458687D01*
X44672758Y-65410024D01*
X44524924Y-65331005D01*
X44524922Y-65331004D01*
X44395341Y-65224659D01*
X44288996Y-65095078D01*
X44244842Y-65012471D01*
X44209976Y-64947242D01*
X44161313Y-64786823D01*
X44144883Y-64620000D01*
X44161313Y-64453177D01*
X44209976Y-64292758D01*
X44288995Y-64144924D01*
X44288996Y-64144922D01*
X44395341Y-64015341D01*
X44524922Y-63908996D01*
X44540094Y-63900886D01*
X44672758Y-63829976D01*
X44833177Y-63781313D01*
X44958196Y-63769000D01*
X45041804Y-63769000D01*
X45166823Y-63781313D01*
X45166823Y-63781313D01*
G37*
G36*
X138619142Y-63510242D02*
G01*
X138767101Y-63571529D01*
X138900255Y-63660499D01*
X139013501Y-63773745D01*
X139102471Y-63906899D01*
X139163758Y-64054858D01*
X139195000Y-64211925D01*
X139195000Y-64372075D01*
X139163758Y-64529142D01*
X139102471Y-64677101D01*
X139013501Y-64810255D01*
X138900255Y-64923501D01*
X138767101Y-65012471D01*
X138619142Y-65073758D01*
X138462075Y-65105000D01*
X138301925Y-65105000D01*
X138144858Y-65073758D01*
X137996899Y-65012471D01*
X137863745Y-64923501D01*
X137750499Y-64810255D01*
X137661529Y-64677101D01*
X137600242Y-64529142D01*
X137569000Y-64372075D01*
X137569000Y-64211925D01*
X137600242Y-64054858D01*
X137661529Y-63906899D01*
X137750499Y-63773745D01*
X137863745Y-63660499D01*
X137996899Y-63571529D01*
X138144858Y-63510242D01*
X138301925Y-63479000D01*
X138462075Y-63479000D01*
X138619142Y-63510242D01*
X138619142Y-63510242D01*
G37*
G36*
X80839694Y-63098633D02*
G01*
X81012095Y-63150931D01*
X81170983Y-63235858D01*
X81310249Y-63350151D01*
X81424542Y-63489417D01*
X81509469Y-63648305D01*
X81561767Y-63820706D01*
X81579425Y-64000000D01*
X81561767Y-64179294D01*
X81509469Y-64351695D01*
X81424542Y-64510583D01*
X81310249Y-64649849D01*
X81170983Y-64764142D01*
X81012095Y-64849069D01*
X80839694Y-64901367D01*
X80705331Y-64914600D01*
X79294669Y-64914600D01*
X79160306Y-64901367D01*
X78987905Y-64849069D01*
X78829017Y-64764142D01*
X78689751Y-64649849D01*
X78575458Y-64510583D01*
X78490531Y-64351695D01*
X78438233Y-64179294D01*
X78420575Y-64000000D01*
X78438233Y-63820706D01*
X78490531Y-63648305D01*
X78575458Y-63489417D01*
X78689751Y-63350151D01*
X78829017Y-63235858D01*
X78987905Y-63150931D01*
X79160306Y-63098633D01*
X79294669Y-63085400D01*
X80705331Y-63085400D01*
X80839694Y-63098633D01*
X80839694Y-63098633D01*
G37*
G36*
X93339694Y-63098633D02*
G01*
X93512095Y-63150931D01*
X93670983Y-63235858D01*
X93810249Y-63350151D01*
X93924542Y-63489417D01*
X94009469Y-63648305D01*
X94061767Y-63820706D01*
X94079425Y-64000000D01*
X94061767Y-64179294D01*
X94009469Y-64351695D01*
X93924542Y-64510583D01*
X93810249Y-64649849D01*
X93670983Y-64764142D01*
X93512095Y-64849069D01*
X93339694Y-64901367D01*
X93205331Y-64914600D01*
X91794669Y-64914600D01*
X91660306Y-64901367D01*
X91487905Y-64849069D01*
X91329017Y-64764142D01*
X91189751Y-64649849D01*
X91075458Y-64510583D01*
X90990531Y-64351695D01*
X90938233Y-64179294D01*
X90920575Y-64000000D01*
X90938233Y-63820706D01*
X90990531Y-63648305D01*
X91075458Y-63489417D01*
X91189751Y-63350151D01*
X91329017Y-63235858D01*
X91487905Y-63150931D01*
X91660306Y-63098633D01*
X91794669Y-63085400D01*
X93205331Y-63085400D01*
X93339694Y-63098633D01*
X93339694Y-63098633D01*
G37*
G36*
X45166823Y-61241313D02*
G01*
X45327242Y-61289976D01*
X45459906Y-61360886D01*
X45475078Y-61368996D01*
X45604659Y-61475341D01*
X45711004Y-61604922D01*
X45711005Y-61604924D01*
X45790024Y-61752758D01*
X45838687Y-61913177D01*
X45855117Y-62080000D01*
X45838687Y-62246823D01*
X45790024Y-62407242D01*
X45719114Y-62539906D01*
X45711004Y-62555078D01*
X45604659Y-62684659D01*
X45475078Y-62791004D01*
X45475076Y-62791005D01*
X45327242Y-62870024D01*
X45166823Y-62918687D01*
X45041804Y-62931000D01*
X44958196Y-62931000D01*
X44833177Y-62918687D01*
X44672758Y-62870024D01*
X44524924Y-62791005D01*
X44524922Y-62791004D01*
X44395341Y-62684659D01*
X44288996Y-62555078D01*
X44280886Y-62539906D01*
X44209976Y-62407242D01*
X44161313Y-62246823D01*
X44144883Y-62080000D01*
X44161313Y-61913177D01*
X44209976Y-61752758D01*
X44288995Y-61604924D01*
X44288996Y-61604922D01*
X44395341Y-61475341D01*
X44524922Y-61368996D01*
X44540094Y-61360886D01*
X44672758Y-61289976D01*
X44833177Y-61241313D01*
X44958196Y-61229000D01*
X45041804Y-61229000D01*
X45166823Y-61241313D01*
X45166823Y-61241313D01*
G37*
G36*
X60406823Y-61241313D02*
G01*
X60567242Y-61289976D01*
X60699906Y-61360886D01*
X60715078Y-61368996D01*
X60844659Y-61475341D01*
X60951004Y-61604922D01*
X60951005Y-61604924D01*
X61030024Y-61752758D01*
X61078687Y-61913177D01*
X61095117Y-62080000D01*
X61078687Y-62246823D01*
X61030024Y-62407242D01*
X60959114Y-62539906D01*
X60951004Y-62555078D01*
X60844659Y-62684659D01*
X60715078Y-62791004D01*
X60715076Y-62791005D01*
X60567242Y-62870024D01*
X60406823Y-62918687D01*
X60281804Y-62931000D01*
X60198196Y-62931000D01*
X60073177Y-62918687D01*
X59912758Y-62870024D01*
X59764924Y-62791005D01*
X59764922Y-62791004D01*
X59635341Y-62684659D01*
X59528996Y-62555078D01*
X59520886Y-62539906D01*
X59449976Y-62407242D01*
X59401313Y-62246823D01*
X59384883Y-62080000D01*
X59401313Y-61913177D01*
X59449976Y-61752758D01*
X59528995Y-61604924D01*
X59528996Y-61604922D01*
X59635341Y-61475341D01*
X59764922Y-61368996D01*
X59780094Y-61360886D01*
X59912758Y-61289976D01*
X60073177Y-61241313D01*
X60198196Y-61229000D01*
X60281804Y-61229000D01*
X60406823Y-61241313D01*
X60406823Y-61241313D01*
G37*
G36*
X60406823Y-58701313D02*
G01*
X60567242Y-58749976D01*
X60699568Y-58820706D01*
X60715078Y-58828996D01*
X60844659Y-58935341D01*
X60951004Y-59064922D01*
X60951005Y-59064924D01*
X61030024Y-59212758D01*
X61078687Y-59373177D01*
X61095117Y-59540000D01*
X61078687Y-59706823D01*
X61030024Y-59867242D01*
X60959114Y-59999906D01*
X60951004Y-60015078D01*
X60844659Y-60144659D01*
X60715078Y-60251004D01*
X60715076Y-60251005D01*
X60567242Y-60330024D01*
X60406823Y-60378687D01*
X60281804Y-60391000D01*
X60198196Y-60391000D01*
X60073177Y-60378687D01*
X59912758Y-60330024D01*
X59764924Y-60251005D01*
X59764922Y-60251004D01*
X59635341Y-60144659D01*
X59528996Y-60015078D01*
X59520886Y-59999906D01*
X59449976Y-59867242D01*
X59401313Y-59706823D01*
X59384883Y-59540000D01*
X59401313Y-59373177D01*
X59449976Y-59212758D01*
X59528995Y-59064924D01*
X59528996Y-59064922D01*
X59635341Y-58935341D01*
X59764922Y-58828996D01*
X59780432Y-58820706D01*
X59912758Y-58749976D01*
X60073177Y-58701313D01*
X60198196Y-58689000D01*
X60281804Y-58689000D01*
X60406823Y-58701313D01*
X60406823Y-58701313D01*
G37*
G36*
X45166823Y-58701313D02*
G01*
X45327242Y-58749976D01*
X45459568Y-58820706D01*
X45475078Y-58828996D01*
X45604659Y-58935341D01*
X45711004Y-59064922D01*
X45711005Y-59064924D01*
X45790024Y-59212758D01*
X45838687Y-59373177D01*
X45855117Y-59540000D01*
X45838687Y-59706823D01*
X45790024Y-59867242D01*
X45719114Y-59999906D01*
X45711004Y-60015078D01*
X45604659Y-60144659D01*
X45475078Y-60251004D01*
X45475076Y-60251005D01*
X45327242Y-60330024D01*
X45166823Y-60378687D01*
X45041804Y-60391000D01*
X44958196Y-60391000D01*
X44833177Y-60378687D01*
X44672758Y-60330024D01*
X44524924Y-60251005D01*
X44524922Y-60251004D01*
X44395341Y-60144659D01*
X44288996Y-60015078D01*
X44280886Y-59999906D01*
X44209976Y-59867242D01*
X44161313Y-59706823D01*
X44144883Y-59540000D01*
X44161313Y-59373177D01*
X44209976Y-59212758D01*
X44288995Y-59064924D01*
X44288996Y-59064922D01*
X44395341Y-58935341D01*
X44524922Y-58828996D01*
X44540432Y-58820706D01*
X44672758Y-58749976D01*
X44833177Y-58701313D01*
X44958196Y-58689000D01*
X45041804Y-58689000D01*
X45166823Y-58701313D01*
X45166823Y-58701313D01*
G37*
G36*
X80839694Y-58098633D02*
G01*
X81012095Y-58150931D01*
X81170983Y-58235858D01*
X81310249Y-58350151D01*
X81424542Y-58489417D01*
X81509469Y-58648305D01*
X81561767Y-58820706D01*
X81579425Y-59000000D01*
X81561767Y-59179294D01*
X81509469Y-59351695D01*
X81424542Y-59510583D01*
X81310249Y-59649849D01*
X81170983Y-59764142D01*
X81012095Y-59849069D01*
X80839694Y-59901367D01*
X80705331Y-59914600D01*
X79294669Y-59914600D01*
X79160306Y-59901367D01*
X78987905Y-59849069D01*
X78829017Y-59764142D01*
X78689751Y-59649849D01*
X78575458Y-59510583D01*
X78490531Y-59351695D01*
X78438233Y-59179294D01*
X78420575Y-59000000D01*
X78438233Y-58820706D01*
X78490531Y-58648305D01*
X78575458Y-58489417D01*
X78689751Y-58350151D01*
X78829017Y-58235858D01*
X78987905Y-58150931D01*
X79160306Y-58098633D01*
X79294669Y-58085400D01*
X80705331Y-58085400D01*
X80839694Y-58098633D01*
X80839694Y-58098633D01*
G37*
G36*
X93339694Y-58098633D02*
G01*
X93512095Y-58150931D01*
X93670983Y-58235858D01*
X93810249Y-58350151D01*
X93924542Y-58489417D01*
X94009469Y-58648305D01*
X94061767Y-58820706D01*
X94079425Y-59000000D01*
X94061767Y-59179294D01*
X94009469Y-59351695D01*
X93924542Y-59510583D01*
X93810249Y-59649849D01*
X93670983Y-59764142D01*
X93512095Y-59849069D01*
X93339694Y-59901367D01*
X93205331Y-59914600D01*
X91794669Y-59914600D01*
X91660306Y-59901367D01*
X91487905Y-59849069D01*
X91329017Y-59764142D01*
X91189751Y-59649849D01*
X91075458Y-59510583D01*
X90990531Y-59351695D01*
X90938233Y-59179294D01*
X90920575Y-59000000D01*
X90938233Y-58820706D01*
X90990531Y-58648305D01*
X91075458Y-58489417D01*
X91189751Y-58350151D01*
X91329017Y-58235858D01*
X91487905Y-58150931D01*
X91660306Y-58098633D01*
X91794669Y-58085400D01*
X93205331Y-58085400D01*
X93339694Y-58098633D01*
X93339694Y-58098633D01*
G37*
G36*
X60406823Y-56161313D02*
G01*
X60567242Y-56209976D01*
X60699906Y-56280886D01*
X60715078Y-56288996D01*
X60844659Y-56395341D01*
X60951004Y-56524922D01*
X60951005Y-56524924D01*
X61030024Y-56672758D01*
X61078687Y-56833177D01*
X61095117Y-57000000D01*
X61078687Y-57166823D01*
X61030024Y-57327242D01*
X60959114Y-57459906D01*
X60951004Y-57475078D01*
X60844659Y-57604659D01*
X60715078Y-57711004D01*
X60715076Y-57711005D01*
X60567242Y-57790024D01*
X60406823Y-57838687D01*
X60281804Y-57851000D01*
X60198196Y-57851000D01*
X60073177Y-57838687D01*
X59912758Y-57790024D01*
X59764924Y-57711005D01*
X59764922Y-57711004D01*
X59635341Y-57604659D01*
X59528996Y-57475078D01*
X59520886Y-57459906D01*
X59449976Y-57327242D01*
X59401313Y-57166823D01*
X59384883Y-57000000D01*
X59401313Y-56833177D01*
X59449976Y-56672758D01*
X59528995Y-56524924D01*
X59528996Y-56524922D01*
X59635341Y-56395341D01*
X59764922Y-56288996D01*
X59780094Y-56280886D01*
X59912758Y-56209976D01*
X60073177Y-56161313D01*
X60198196Y-56149000D01*
X60281804Y-56149000D01*
X60406823Y-56161313D01*
X60406823Y-56161313D01*
G37*
G36*
X45851000Y-57851000D02*
G01*
X44149000Y-57851000D01*
X44149000Y-56149000D01*
X45851000Y-56149000D01*
X45851000Y-57851000D01*
X45851000Y-57851000D01*
G37*
M02*
