G04 #@! TF.GenerationSoftware,KiCad,Pcbnew,5.1.1-8be2ce7~80~ubuntu16.04.1*
G04 #@! TF.CreationDate,2019-04-17T15:24:41+02:00*
G04 #@! TF.ProjectId,ConNano,436f6e4e-616e-46f2-9e6b-696361645f70,rev?*
G04 #@! TF.SameCoordinates,Original*
G04 #@! TF.FileFunction,Paste,Top*
G04 #@! TF.FilePolarity,Positive*
%FSLAX46Y46*%
G04 Gerber Fmt 4.6, Leading zero omitted, Abs format (unit mm)*
G04 Created by KiCad (PCBNEW 5.1.1-8be2ce7~80~ubuntu16.04.1) date 2019-04-17 15:24:41*
%MOMM*%
%LPD*%
G04 APERTURE LIST*
%ADD10C,0.100000*%
%ADD11C,0.590000*%
%ADD12R,1.200000X2.200000*%
%ADD13R,2.750000X3.050000*%
G04 APERTURE END LIST*
D10*
G36*
X68191958Y-91680710D02*
G01*
X68206276Y-91682834D01*
X68220317Y-91686351D01*
X68233946Y-91691228D01*
X68247031Y-91697417D01*
X68259447Y-91704858D01*
X68271073Y-91713481D01*
X68281798Y-91723202D01*
X68291519Y-91733927D01*
X68300142Y-91745553D01*
X68307583Y-91757969D01*
X68313772Y-91771054D01*
X68318649Y-91784683D01*
X68322166Y-91798724D01*
X68324290Y-91813042D01*
X68325000Y-91827500D01*
X68325000Y-92172500D01*
X68324290Y-92186958D01*
X68322166Y-92201276D01*
X68318649Y-92215317D01*
X68313772Y-92228946D01*
X68307583Y-92242031D01*
X68300142Y-92254447D01*
X68291519Y-92266073D01*
X68281798Y-92276798D01*
X68271073Y-92286519D01*
X68259447Y-92295142D01*
X68247031Y-92302583D01*
X68233946Y-92308772D01*
X68220317Y-92313649D01*
X68206276Y-92317166D01*
X68191958Y-92319290D01*
X68177500Y-92320000D01*
X67882500Y-92320000D01*
X67868042Y-92319290D01*
X67853724Y-92317166D01*
X67839683Y-92313649D01*
X67826054Y-92308772D01*
X67812969Y-92302583D01*
X67800553Y-92295142D01*
X67788927Y-92286519D01*
X67778202Y-92276798D01*
X67768481Y-92266073D01*
X67759858Y-92254447D01*
X67752417Y-92242031D01*
X67746228Y-92228946D01*
X67741351Y-92215317D01*
X67737834Y-92201276D01*
X67735710Y-92186958D01*
X67735000Y-92172500D01*
X67735000Y-91827500D01*
X67735710Y-91813042D01*
X67737834Y-91798724D01*
X67741351Y-91784683D01*
X67746228Y-91771054D01*
X67752417Y-91757969D01*
X67759858Y-91745553D01*
X67768481Y-91733927D01*
X67778202Y-91723202D01*
X67788927Y-91713481D01*
X67800553Y-91704858D01*
X67812969Y-91697417D01*
X67826054Y-91691228D01*
X67839683Y-91686351D01*
X67853724Y-91682834D01*
X67868042Y-91680710D01*
X67882500Y-91680000D01*
X68177500Y-91680000D01*
X68191958Y-91680710D01*
X68191958Y-91680710D01*
G37*
D11*
X68030000Y-92000000D03*
D10*
G36*
X69161958Y-91680710D02*
G01*
X69176276Y-91682834D01*
X69190317Y-91686351D01*
X69203946Y-91691228D01*
X69217031Y-91697417D01*
X69229447Y-91704858D01*
X69241073Y-91713481D01*
X69251798Y-91723202D01*
X69261519Y-91733927D01*
X69270142Y-91745553D01*
X69277583Y-91757969D01*
X69283772Y-91771054D01*
X69288649Y-91784683D01*
X69292166Y-91798724D01*
X69294290Y-91813042D01*
X69295000Y-91827500D01*
X69295000Y-92172500D01*
X69294290Y-92186958D01*
X69292166Y-92201276D01*
X69288649Y-92215317D01*
X69283772Y-92228946D01*
X69277583Y-92242031D01*
X69270142Y-92254447D01*
X69261519Y-92266073D01*
X69251798Y-92276798D01*
X69241073Y-92286519D01*
X69229447Y-92295142D01*
X69217031Y-92302583D01*
X69203946Y-92308772D01*
X69190317Y-92313649D01*
X69176276Y-92317166D01*
X69161958Y-92319290D01*
X69147500Y-92320000D01*
X68852500Y-92320000D01*
X68838042Y-92319290D01*
X68823724Y-92317166D01*
X68809683Y-92313649D01*
X68796054Y-92308772D01*
X68782969Y-92302583D01*
X68770553Y-92295142D01*
X68758927Y-92286519D01*
X68748202Y-92276798D01*
X68738481Y-92266073D01*
X68729858Y-92254447D01*
X68722417Y-92242031D01*
X68716228Y-92228946D01*
X68711351Y-92215317D01*
X68707834Y-92201276D01*
X68705710Y-92186958D01*
X68705000Y-92172500D01*
X68705000Y-91827500D01*
X68705710Y-91813042D01*
X68707834Y-91798724D01*
X68711351Y-91784683D01*
X68716228Y-91771054D01*
X68722417Y-91757969D01*
X68729858Y-91745553D01*
X68738481Y-91733927D01*
X68748202Y-91723202D01*
X68758927Y-91713481D01*
X68770553Y-91704858D01*
X68782969Y-91697417D01*
X68796054Y-91691228D01*
X68809683Y-91686351D01*
X68823724Y-91682834D01*
X68838042Y-91680710D01*
X68852500Y-91680000D01*
X69147500Y-91680000D01*
X69161958Y-91680710D01*
X69161958Y-91680710D01*
G37*
D11*
X69000000Y-92000000D03*
D10*
G36*
X73186958Y-91705710D02*
G01*
X73201276Y-91707834D01*
X73215317Y-91711351D01*
X73228946Y-91716228D01*
X73242031Y-91722417D01*
X73254447Y-91729858D01*
X73266073Y-91738481D01*
X73276798Y-91748202D01*
X73286519Y-91758927D01*
X73295142Y-91770553D01*
X73302583Y-91782969D01*
X73308772Y-91796054D01*
X73313649Y-91809683D01*
X73317166Y-91823724D01*
X73319290Y-91838042D01*
X73320000Y-91852500D01*
X73320000Y-92147500D01*
X73319290Y-92161958D01*
X73317166Y-92176276D01*
X73313649Y-92190317D01*
X73308772Y-92203946D01*
X73302583Y-92217031D01*
X73295142Y-92229447D01*
X73286519Y-92241073D01*
X73276798Y-92251798D01*
X73266073Y-92261519D01*
X73254447Y-92270142D01*
X73242031Y-92277583D01*
X73228946Y-92283772D01*
X73215317Y-92288649D01*
X73201276Y-92292166D01*
X73186958Y-92294290D01*
X73172500Y-92295000D01*
X72827500Y-92295000D01*
X72813042Y-92294290D01*
X72798724Y-92292166D01*
X72784683Y-92288649D01*
X72771054Y-92283772D01*
X72757969Y-92277583D01*
X72745553Y-92270142D01*
X72733927Y-92261519D01*
X72723202Y-92251798D01*
X72713481Y-92241073D01*
X72704858Y-92229447D01*
X72697417Y-92217031D01*
X72691228Y-92203946D01*
X72686351Y-92190317D01*
X72682834Y-92176276D01*
X72680710Y-92161958D01*
X72680000Y-92147500D01*
X72680000Y-91852500D01*
X72680710Y-91838042D01*
X72682834Y-91823724D01*
X72686351Y-91809683D01*
X72691228Y-91796054D01*
X72697417Y-91782969D01*
X72704858Y-91770553D01*
X72713481Y-91758927D01*
X72723202Y-91748202D01*
X72733927Y-91738481D01*
X72745553Y-91729858D01*
X72757969Y-91722417D01*
X72771054Y-91716228D01*
X72784683Y-91711351D01*
X72798724Y-91707834D01*
X72813042Y-91705710D01*
X72827500Y-91705000D01*
X73172500Y-91705000D01*
X73186958Y-91705710D01*
X73186958Y-91705710D01*
G37*
D11*
X73000000Y-92000000D03*
D10*
G36*
X73186958Y-90735710D02*
G01*
X73201276Y-90737834D01*
X73215317Y-90741351D01*
X73228946Y-90746228D01*
X73242031Y-90752417D01*
X73254447Y-90759858D01*
X73266073Y-90768481D01*
X73276798Y-90778202D01*
X73286519Y-90788927D01*
X73295142Y-90800553D01*
X73302583Y-90812969D01*
X73308772Y-90826054D01*
X73313649Y-90839683D01*
X73317166Y-90853724D01*
X73319290Y-90868042D01*
X73320000Y-90882500D01*
X73320000Y-91177500D01*
X73319290Y-91191958D01*
X73317166Y-91206276D01*
X73313649Y-91220317D01*
X73308772Y-91233946D01*
X73302583Y-91247031D01*
X73295142Y-91259447D01*
X73286519Y-91271073D01*
X73276798Y-91281798D01*
X73266073Y-91291519D01*
X73254447Y-91300142D01*
X73242031Y-91307583D01*
X73228946Y-91313772D01*
X73215317Y-91318649D01*
X73201276Y-91322166D01*
X73186958Y-91324290D01*
X73172500Y-91325000D01*
X72827500Y-91325000D01*
X72813042Y-91324290D01*
X72798724Y-91322166D01*
X72784683Y-91318649D01*
X72771054Y-91313772D01*
X72757969Y-91307583D01*
X72745553Y-91300142D01*
X72733927Y-91291519D01*
X72723202Y-91281798D01*
X72713481Y-91271073D01*
X72704858Y-91259447D01*
X72697417Y-91247031D01*
X72691228Y-91233946D01*
X72686351Y-91220317D01*
X72682834Y-91206276D01*
X72680710Y-91191958D01*
X72680000Y-91177500D01*
X72680000Y-90882500D01*
X72680710Y-90868042D01*
X72682834Y-90853724D01*
X72686351Y-90839683D01*
X72691228Y-90826054D01*
X72697417Y-90812969D01*
X72704858Y-90800553D01*
X72713481Y-90788927D01*
X72723202Y-90778202D01*
X72733927Y-90768481D01*
X72745553Y-90759858D01*
X72757969Y-90752417D01*
X72771054Y-90746228D01*
X72784683Y-90741351D01*
X72798724Y-90737834D01*
X72813042Y-90735710D01*
X72827500Y-90735000D01*
X73172500Y-90735000D01*
X73186958Y-90735710D01*
X73186958Y-90735710D01*
G37*
D11*
X73000000Y-91030000D03*
D12*
X67720000Y-87300000D03*
X72280000Y-87300000D03*
D13*
X71525000Y-79325000D03*
X68475000Y-82675000D03*
X68475000Y-79325000D03*
X71525000Y-82675000D03*
M02*
