G04 #@! TF.GenerationSoftware,KiCad,Pcbnew,5.1.1-8be2ce7~80~ubuntu16.04.1*
G04 #@! TF.CreationDate,2019-04-23T13:07:39+02:00*
G04 #@! TF.ProjectId,noname,6e6f6e61-6d65-42e6-9b69-6361645f7063,rev?*
G04 #@! TF.SameCoordinates,Original*
G04 #@! TF.FileFunction,Legend,Top*
G04 #@! TF.FilePolarity,Positive*
%FSLAX46Y46*%
G04 Gerber Fmt 4.6, Leading zero omitted, Abs format (unit mm)*
G04 Created by KiCad (PCBNEW 5.1.1-8be2ce7~80~ubuntu16.04.1) date 2019-04-23 13:07:39*
%MOMM*%
%LPD*%
G04 APERTURE LIST*
%ADD10C,0.120000*%
%ADD11C,0.150000*%
G04 APERTURE END LIST*
D10*
X185790000Y-96750000D02*
X185790000Y-97750000D01*
X186290000Y-97250000D02*
X185790000Y-96750000D01*
X185790000Y-97750000D02*
X186290000Y-97250000D01*
X191010000Y-90840000D02*
X190700000Y-90840000D01*
X191010000Y-99660000D02*
X190700000Y-99660000D01*
X186800000Y-99660000D02*
X186490000Y-99660000D01*
X191010000Y-90840000D02*
X191010000Y-99660000D01*
X186490000Y-90840000D02*
X186800000Y-90840000D01*
X186490000Y-99660000D02*
X186490000Y-90840000D01*
X191750000Y-83250000D02*
X191750000Y-81750000D01*
X190500000Y-79250000D02*
X186000000Y-79250000D01*
X184750000Y-81750000D02*
X184750000Y-83250000D01*
X186000000Y-85750000D02*
X190500000Y-85750000D01*
X191750000Y-72500000D02*
X191750000Y-71000000D01*
X190500000Y-68500000D02*
X186000000Y-68500000D01*
X184750000Y-71000000D02*
X184750000Y-72500000D01*
X186000000Y-75000000D02*
X190500000Y-75000000D01*
X222450000Y-117100000D02*
X209050000Y-117100000D01*
X222450000Y-111100000D02*
X217500000Y-111100000D01*
X222450000Y-111100000D02*
X222450000Y-113700000D01*
X209050000Y-111100000D02*
X209050000Y-113700000D01*
X209050000Y-111100000D02*
X214000000Y-111100000D01*
X195360000Y-104140000D02*
X275640000Y-104140000D01*
X275640000Y-104140000D02*
X275640000Y-67860000D01*
X275640000Y-67860000D02*
X196160000Y-67860000D01*
X195360000Y-67860000D02*
X195360000Y-104140000D01*
X195370000Y-67860000D02*
X196160000Y-67860000D01*
X202000000Y-67500000D02*
X205000000Y-67500000D01*
X203700000Y-78500000D02*
X267200000Y-78500000D01*
X203200280Y-92999320D02*
X203200280Y-79000000D01*
X267200660Y-93500000D02*
X203700000Y-93500000D01*
X267700000Y-79000000D02*
X267700000Y-93000000D01*
X267700000Y-79000000D02*
G75*
G03X267200000Y-78500000I-500000J0D01*
G01*
X267200660Y-93499700D02*
G75*
G03X267701040Y-92999320I0J500380D01*
G01*
X203200280Y-92999320D02*
G75*
G03X203700660Y-93499700I500380J0D01*
G01*
X203700660Y-78498460D02*
G75*
G03X203200280Y-78998840I0J-500380D01*
G01*
X198500000Y-73500000D02*
X271500000Y-73500000D01*
X271500000Y-73500000D02*
X271500000Y-98500000D01*
X271500000Y-98500000D02*
X198500000Y-98500000D01*
X198500000Y-98500000D02*
X198500000Y-73500000D01*
X261550000Y-111100000D02*
X266500000Y-111100000D01*
X261550000Y-111100000D02*
X261550000Y-113700000D01*
X274950000Y-111100000D02*
X274950000Y-113700000D01*
X274950000Y-111100000D02*
X270000000Y-111100000D01*
X274950000Y-117100000D02*
X261550000Y-117100000D01*
X236050000Y-111100000D02*
X241000000Y-111100000D01*
X236050000Y-111100000D02*
X236050000Y-113700000D01*
X249450000Y-111100000D02*
X249450000Y-113700000D01*
X249450000Y-111100000D02*
X244500000Y-111100000D01*
X249450000Y-117100000D02*
X236050000Y-117100000D01*
D11*
X185952380Y-99714285D02*
X184952380Y-99714285D01*
X185285714Y-99238095D02*
X185952380Y-99238095D01*
X185380952Y-99238095D02*
X185333333Y-99190476D01*
X185285714Y-99095238D01*
X185285714Y-98952380D01*
X185333333Y-98857142D01*
X185428571Y-98809523D01*
X185952380Y-98809523D01*
X185285714Y-98476190D02*
X185285714Y-98095238D01*
X184952380Y-98333333D02*
X185809523Y-98333333D01*
X185904761Y-98285714D01*
X185952380Y-98190476D01*
X185952380Y-98095238D01*
X185904761Y-97380952D02*
X185952380Y-97476190D01*
X185952380Y-97666666D01*
X185904761Y-97761904D01*
X185809523Y-97809523D01*
X185428571Y-97809523D01*
X185333333Y-97761904D01*
X185285714Y-97666666D01*
X185285714Y-97476190D01*
X185333333Y-97380952D01*
X185428571Y-97333333D01*
X185523809Y-97333333D01*
X185619047Y-97809523D01*
X185952380Y-96904761D02*
X185285714Y-96904761D01*
X185476190Y-96904761D02*
X185380952Y-96857142D01*
X185333333Y-96809523D01*
X185285714Y-96714285D01*
X185285714Y-96619047D01*
X185952380Y-96285714D02*
X185285714Y-96285714D01*
X185476190Y-96285714D02*
X185380952Y-96238095D01*
X185333333Y-96190476D01*
X185285714Y-96095238D01*
X185285714Y-96000000D01*
X185285714Y-95238095D02*
X185952380Y-95238095D01*
X185285714Y-95666666D02*
X185809523Y-95666666D01*
X185904761Y-95619047D01*
X185952380Y-95523809D01*
X185952380Y-95380952D01*
X185904761Y-95285714D01*
X185857142Y-95238095D01*
X185285714Y-94761904D02*
X186285714Y-94761904D01*
X185333333Y-94761904D02*
X185285714Y-94666666D01*
X185285714Y-94476190D01*
X185333333Y-94380952D01*
X185380952Y-94333333D01*
X185476190Y-94285714D01*
X185761904Y-94285714D01*
X185857142Y-94333333D01*
X185904761Y-94380952D01*
X185952380Y-94476190D01*
X185952380Y-94666666D01*
X185904761Y-94761904D01*
X185285714Y-94000000D02*
X185285714Y-93619047D01*
X184952380Y-93857142D02*
X185809523Y-93857142D01*
X185904761Y-93809523D01*
X185952380Y-93714285D01*
X185952380Y-93619047D01*
X185952380Y-93142857D02*
X185904761Y-93238095D01*
X185857142Y-93285714D01*
X185761904Y-93333333D01*
X185476190Y-93333333D01*
X185380952Y-93285714D01*
X185333333Y-93238095D01*
X185285714Y-93142857D01*
X185285714Y-93000000D01*
X185333333Y-92904761D01*
X185380952Y-92857142D01*
X185476190Y-92809523D01*
X185761904Y-92809523D01*
X185857142Y-92857142D01*
X185904761Y-92904761D01*
X185952380Y-93000000D01*
X185952380Y-93142857D01*
X185952380Y-92380952D02*
X185285714Y-92380952D01*
X185476190Y-92380952D02*
X185380952Y-92333333D01*
X185333333Y-92285714D01*
X185285714Y-92190476D01*
X185285714Y-92095238D01*
X185952380Y-91238095D02*
X185952380Y-91809523D01*
X185952380Y-91523809D02*
X184952380Y-91523809D01*
X185095238Y-91619047D01*
X185190476Y-91714285D01*
X185238095Y-91809523D01*
X184238095Y-77928571D02*
X184380952Y-77976190D01*
X184428571Y-78023809D01*
X184476190Y-78119047D01*
X184476190Y-78261904D01*
X184428571Y-78357142D01*
X184380952Y-78404761D01*
X184285714Y-78452380D01*
X183904761Y-78452380D01*
X183904761Y-77452380D01*
X184238095Y-77452380D01*
X184333333Y-77500000D01*
X184380952Y-77547619D01*
X184428571Y-77642857D01*
X184428571Y-77738095D01*
X184380952Y-77833333D01*
X184333333Y-77880952D01*
X184238095Y-77928571D01*
X183904761Y-77928571D01*
X185333333Y-77785714D02*
X185333333Y-78452380D01*
X184904761Y-77785714D02*
X184904761Y-78309523D01*
X184952380Y-78404761D01*
X185047619Y-78452380D01*
X185190476Y-78452380D01*
X185285714Y-78404761D01*
X185333333Y-78357142D01*
X185666666Y-77785714D02*
X186047619Y-77785714D01*
X185809523Y-77452380D02*
X185809523Y-78309523D01*
X185857142Y-78404761D01*
X185952380Y-78452380D01*
X186047619Y-78452380D01*
X186238095Y-77785714D02*
X186619047Y-77785714D01*
X186380952Y-77452380D02*
X186380952Y-78309523D01*
X186428571Y-78404761D01*
X186523809Y-78452380D01*
X186619047Y-78452380D01*
X187095238Y-78452380D02*
X187000000Y-78404761D01*
X186952380Y-78357142D01*
X186904761Y-78261904D01*
X186904761Y-77976190D01*
X186952380Y-77880952D01*
X187000000Y-77833333D01*
X187095238Y-77785714D01*
X187238095Y-77785714D01*
X187333333Y-77833333D01*
X187380952Y-77880952D01*
X187428571Y-77976190D01*
X187428571Y-78261904D01*
X187380952Y-78357142D01*
X187333333Y-78404761D01*
X187238095Y-78452380D01*
X187095238Y-78452380D01*
X187857142Y-77785714D02*
X187857142Y-78452380D01*
X187857142Y-77880952D02*
X187904761Y-77833333D01*
X188000000Y-77785714D01*
X188142857Y-77785714D01*
X188238095Y-77833333D01*
X188285714Y-77928571D01*
X188285714Y-78452380D01*
X188761904Y-78452380D02*
X188761904Y-77452380D01*
X189000000Y-77452380D01*
X189142857Y-77500000D01*
X189238095Y-77595238D01*
X189285714Y-77690476D01*
X189333333Y-77880952D01*
X189333333Y-78023809D01*
X189285714Y-78214285D01*
X189238095Y-78309523D01*
X189142857Y-78404761D01*
X189000000Y-78452380D01*
X188761904Y-78452380D01*
X189904761Y-78452380D02*
X189809523Y-78404761D01*
X189761904Y-78357142D01*
X189714285Y-78261904D01*
X189714285Y-77976190D01*
X189761904Y-77880952D01*
X189809523Y-77833333D01*
X189904761Y-77785714D01*
X190047619Y-77785714D01*
X190142857Y-77833333D01*
X190190476Y-77880952D01*
X190238095Y-77976190D01*
X190238095Y-78261904D01*
X190190476Y-78357142D01*
X190142857Y-78404761D01*
X190047619Y-78452380D01*
X189904761Y-78452380D01*
X190571428Y-77785714D02*
X190761904Y-78452380D01*
X190952380Y-77976190D01*
X191142857Y-78452380D01*
X191333333Y-77785714D01*
X191714285Y-77785714D02*
X191714285Y-78452380D01*
X191714285Y-77880952D02*
X191761904Y-77833333D01*
X191857142Y-77785714D01*
X192000000Y-77785714D01*
X192095238Y-77833333D01*
X192142857Y-77928571D01*
X192142857Y-78452380D01*
X193142857Y-78452380D02*
X192571428Y-78452380D01*
X192857142Y-78452380D02*
X192857142Y-77452380D01*
X192761904Y-77595238D01*
X192666666Y-77690476D01*
X192571428Y-77738095D01*
X184690476Y-66928571D02*
X184833333Y-66976190D01*
X184880952Y-67023809D01*
X184928571Y-67119047D01*
X184928571Y-67261904D01*
X184880952Y-67357142D01*
X184833333Y-67404761D01*
X184738095Y-67452380D01*
X184357142Y-67452380D01*
X184357142Y-66452380D01*
X184690476Y-66452380D01*
X184785714Y-66500000D01*
X184833333Y-66547619D01*
X184880952Y-66642857D01*
X184880952Y-66738095D01*
X184833333Y-66833333D01*
X184785714Y-66880952D01*
X184690476Y-66928571D01*
X184357142Y-66928571D01*
X185785714Y-66785714D02*
X185785714Y-67452380D01*
X185357142Y-66785714D02*
X185357142Y-67309523D01*
X185404761Y-67404761D01*
X185500000Y-67452380D01*
X185642857Y-67452380D01*
X185738095Y-67404761D01*
X185785714Y-67357142D01*
X186119047Y-66785714D02*
X186500000Y-66785714D01*
X186261904Y-66452380D02*
X186261904Y-67309523D01*
X186309523Y-67404761D01*
X186404761Y-67452380D01*
X186500000Y-67452380D01*
X186690476Y-66785714D02*
X187071428Y-66785714D01*
X186833333Y-66452380D02*
X186833333Y-67309523D01*
X186880952Y-67404761D01*
X186976190Y-67452380D01*
X187071428Y-67452380D01*
X187547619Y-67452380D02*
X187452380Y-67404761D01*
X187404761Y-67357142D01*
X187357142Y-67261904D01*
X187357142Y-66976190D01*
X187404761Y-66880952D01*
X187452380Y-66833333D01*
X187547619Y-66785714D01*
X187690476Y-66785714D01*
X187785714Y-66833333D01*
X187833333Y-66880952D01*
X187880952Y-66976190D01*
X187880952Y-67261904D01*
X187833333Y-67357142D01*
X187785714Y-67404761D01*
X187690476Y-67452380D01*
X187547619Y-67452380D01*
X188309523Y-66785714D02*
X188309523Y-67452380D01*
X188309523Y-66880952D02*
X188357142Y-66833333D01*
X188452380Y-66785714D01*
X188595238Y-66785714D01*
X188690476Y-66833333D01*
X188738095Y-66928571D01*
X188738095Y-67452380D01*
X189214285Y-66452380D02*
X189214285Y-67261904D01*
X189261904Y-67357142D01*
X189309523Y-67404761D01*
X189404761Y-67452380D01*
X189595238Y-67452380D01*
X189690476Y-67404761D01*
X189738095Y-67357142D01*
X189785714Y-67261904D01*
X189785714Y-66452380D01*
X190261904Y-66785714D02*
X190261904Y-67785714D01*
X190261904Y-66833333D02*
X190357142Y-66785714D01*
X190547619Y-66785714D01*
X190642857Y-66833333D01*
X190690476Y-66880952D01*
X190738095Y-66976190D01*
X190738095Y-67261904D01*
X190690476Y-67357142D01*
X190642857Y-67404761D01*
X190547619Y-67452380D01*
X190357142Y-67452380D01*
X190261904Y-67404761D01*
X191690476Y-67452380D02*
X191119047Y-67452380D01*
X191404761Y-67452380D02*
X191404761Y-66452380D01*
X191309523Y-66595238D01*
X191214285Y-66690476D01*
X191119047Y-66738095D01*
X212428571Y-109116666D02*
X212904761Y-109116666D01*
X212333333Y-109402380D02*
X212666666Y-108402380D01*
X213000000Y-109402380D01*
X213333333Y-109402380D02*
X213333333Y-108735714D01*
X213333333Y-108926190D02*
X213380952Y-108830952D01*
X213428571Y-108783333D01*
X213523809Y-108735714D01*
X213619047Y-108735714D01*
X214380952Y-109402380D02*
X214380952Y-108402380D01*
X214380952Y-109354761D02*
X214285714Y-109402380D01*
X214095238Y-109402380D01*
X214000000Y-109354761D01*
X213952380Y-109307142D01*
X213904761Y-109211904D01*
X213904761Y-108926190D01*
X213952380Y-108830952D01*
X214000000Y-108783333D01*
X214095238Y-108735714D01*
X214285714Y-108735714D01*
X214380952Y-108783333D01*
X215285714Y-108735714D02*
X215285714Y-109402380D01*
X214857142Y-108735714D02*
X214857142Y-109259523D01*
X214904761Y-109354761D01*
X215000000Y-109402380D01*
X215142857Y-109402380D01*
X215238095Y-109354761D01*
X215285714Y-109307142D01*
X215761904Y-109402380D02*
X215761904Y-108735714D01*
X215761904Y-108402380D02*
X215714285Y-108450000D01*
X215761904Y-108497619D01*
X215809523Y-108450000D01*
X215761904Y-108402380D01*
X215761904Y-108497619D01*
X216238095Y-108735714D02*
X216238095Y-109402380D01*
X216238095Y-108830952D02*
X216285714Y-108783333D01*
X216380952Y-108735714D01*
X216523809Y-108735714D01*
X216619047Y-108783333D01*
X216666666Y-108878571D01*
X216666666Y-109402380D01*
X217285714Y-109402380D02*
X217190476Y-109354761D01*
X217142857Y-109307142D01*
X217095238Y-109211904D01*
X217095238Y-108926190D01*
X217142857Y-108830952D01*
X217190476Y-108783333D01*
X217285714Y-108735714D01*
X217428571Y-108735714D01*
X217523809Y-108783333D01*
X217571428Y-108830952D01*
X217619047Y-108926190D01*
X217619047Y-109211904D01*
X217571428Y-109307142D01*
X217523809Y-109354761D01*
X217428571Y-109402380D01*
X217285714Y-109402380D01*
X218571428Y-109402380D02*
X218000000Y-109402380D01*
X218285714Y-109402380D02*
X218285714Y-108402380D01*
X218190476Y-108545238D01*
X218095238Y-108640476D01*
X218000000Y-108688095D01*
X231761904Y-67142380D02*
X231761904Y-66142380D01*
X232000000Y-66142380D01*
X232142857Y-66190000D01*
X232238095Y-66285238D01*
X232285714Y-66380476D01*
X232333333Y-66570952D01*
X232333333Y-66713809D01*
X232285714Y-66904285D01*
X232238095Y-66999523D01*
X232142857Y-67094761D01*
X232000000Y-67142380D01*
X231761904Y-67142380D01*
X232761904Y-67142380D02*
X232761904Y-66475714D01*
X232761904Y-66142380D02*
X232714285Y-66190000D01*
X232761904Y-66237619D01*
X232809523Y-66190000D01*
X232761904Y-66142380D01*
X232761904Y-66237619D01*
X233190476Y-67094761D02*
X233285714Y-67142380D01*
X233476190Y-67142380D01*
X233571428Y-67094761D01*
X233619047Y-66999523D01*
X233619047Y-66951904D01*
X233571428Y-66856666D01*
X233476190Y-66809047D01*
X233333333Y-66809047D01*
X233238095Y-66761428D01*
X233190476Y-66666190D01*
X233190476Y-66618571D01*
X233238095Y-66523333D01*
X233333333Y-66475714D01*
X233476190Y-66475714D01*
X233571428Y-66523333D01*
X234047619Y-66475714D02*
X234047619Y-67475714D01*
X234047619Y-66523333D02*
X234142857Y-66475714D01*
X234333333Y-66475714D01*
X234428571Y-66523333D01*
X234476190Y-66570952D01*
X234523809Y-66666190D01*
X234523809Y-66951904D01*
X234476190Y-67047142D01*
X234428571Y-67094761D01*
X234333333Y-67142380D01*
X234142857Y-67142380D01*
X234047619Y-67094761D01*
X235095238Y-67142380D02*
X235000000Y-67094761D01*
X234952380Y-66999523D01*
X234952380Y-66142380D01*
X235904761Y-67142380D02*
X235904761Y-66618571D01*
X235857142Y-66523333D01*
X235761904Y-66475714D01*
X235571428Y-66475714D01*
X235476190Y-66523333D01*
X235904761Y-67094761D02*
X235809523Y-67142380D01*
X235571428Y-67142380D01*
X235476190Y-67094761D01*
X235428571Y-66999523D01*
X235428571Y-66904285D01*
X235476190Y-66809047D01*
X235571428Y-66761428D01*
X235809523Y-66761428D01*
X235904761Y-66713809D01*
X236285714Y-66475714D02*
X236523809Y-67142380D01*
X236761904Y-66475714D02*
X236523809Y-67142380D01*
X236428571Y-67380476D01*
X236380952Y-67428095D01*
X236285714Y-67475714D01*
X238380952Y-67142380D02*
X237904761Y-67142380D01*
X237904761Y-66142380D01*
X239285714Y-67047142D02*
X239238095Y-67094761D01*
X239095238Y-67142380D01*
X239000000Y-67142380D01*
X238857142Y-67094761D01*
X238761904Y-66999523D01*
X238714285Y-66904285D01*
X238666666Y-66713809D01*
X238666666Y-66570952D01*
X238714285Y-66380476D01*
X238761904Y-66285238D01*
X238857142Y-66190000D01*
X239000000Y-66142380D01*
X239095238Y-66142380D01*
X239238095Y-66190000D01*
X239285714Y-66237619D01*
X239714285Y-67142380D02*
X239714285Y-66142380D01*
X239952380Y-66142380D01*
X240095238Y-66190000D01*
X240190476Y-66285238D01*
X240238095Y-66380476D01*
X240285714Y-66570952D01*
X240285714Y-66713809D01*
X240238095Y-66904285D01*
X240190476Y-66999523D01*
X240095238Y-67094761D01*
X239952380Y-67142380D01*
X239714285Y-67142380D01*
X259904761Y-108952380D02*
X259428571Y-108952380D01*
X259428571Y-107952380D01*
X260666666Y-108952380D02*
X260666666Y-108428571D01*
X260619047Y-108333333D01*
X260523809Y-108285714D01*
X260333333Y-108285714D01*
X260238095Y-108333333D01*
X260666666Y-108904761D02*
X260571428Y-108952380D01*
X260333333Y-108952380D01*
X260238095Y-108904761D01*
X260190476Y-108809523D01*
X260190476Y-108714285D01*
X260238095Y-108619047D01*
X260333333Y-108571428D01*
X260571428Y-108571428D01*
X260666666Y-108523809D01*
X261142857Y-108952380D02*
X261142857Y-107952380D01*
X261142857Y-108333333D02*
X261238095Y-108285714D01*
X261428571Y-108285714D01*
X261523809Y-108333333D01*
X261571428Y-108380952D01*
X261619047Y-108476190D01*
X261619047Y-108761904D01*
X261571428Y-108857142D01*
X261523809Y-108904761D01*
X261428571Y-108952380D01*
X261238095Y-108952380D01*
X261142857Y-108904761D01*
X262047619Y-108285714D02*
X262047619Y-109142857D01*
X262000000Y-109238095D01*
X261904761Y-109285714D01*
X261857142Y-109285714D01*
X262047619Y-107952380D02*
X262000000Y-108000000D01*
X262047619Y-108047619D01*
X262095238Y-108000000D01*
X262047619Y-107952380D01*
X262047619Y-108047619D01*
X262952380Y-108952380D02*
X262952380Y-108428571D01*
X262904761Y-108333333D01*
X262809523Y-108285714D01*
X262619047Y-108285714D01*
X262523809Y-108333333D01*
X262952380Y-108904761D02*
X262857142Y-108952380D01*
X262619047Y-108952380D01*
X262523809Y-108904761D01*
X262476190Y-108809523D01*
X262476190Y-108714285D01*
X262523809Y-108619047D01*
X262619047Y-108571428D01*
X262857142Y-108571428D01*
X262952380Y-108523809D01*
X263857142Y-108904761D02*
X263761904Y-108952380D01*
X263571428Y-108952380D01*
X263476190Y-108904761D01*
X263428571Y-108857142D01*
X263380952Y-108761904D01*
X263380952Y-108476190D01*
X263428571Y-108380952D01*
X263476190Y-108333333D01*
X263571428Y-108285714D01*
X263761904Y-108285714D01*
X263857142Y-108333333D01*
X264285714Y-108952380D02*
X264285714Y-107952380D01*
X264380952Y-108571428D02*
X264666666Y-108952380D01*
X264666666Y-108285714D02*
X264285714Y-108666666D01*
X265619047Y-108952380D02*
X265047619Y-108952380D01*
X265333333Y-108952380D02*
X265333333Y-107952380D01*
X265238095Y-108095238D01*
X265142857Y-108190476D01*
X265047619Y-108238095D01*
X239690476Y-109354761D02*
X239833333Y-109402380D01*
X240071428Y-109402380D01*
X240166666Y-109354761D01*
X240214285Y-109307142D01*
X240261904Y-109211904D01*
X240261904Y-109116666D01*
X240214285Y-109021428D01*
X240166666Y-108973809D01*
X240071428Y-108926190D01*
X239880952Y-108878571D01*
X239785714Y-108830952D01*
X239738095Y-108783333D01*
X239690476Y-108688095D01*
X239690476Y-108592857D01*
X239738095Y-108497619D01*
X239785714Y-108450000D01*
X239880952Y-108402380D01*
X240119047Y-108402380D01*
X240261904Y-108450000D01*
X241071428Y-109354761D02*
X240976190Y-109402380D01*
X240785714Y-109402380D01*
X240690476Y-109354761D01*
X240642857Y-109259523D01*
X240642857Y-108878571D01*
X240690476Y-108783333D01*
X240785714Y-108735714D01*
X240976190Y-108735714D01*
X241071428Y-108783333D01*
X241119047Y-108878571D01*
X241119047Y-108973809D01*
X240642857Y-109069047D01*
X241547619Y-108735714D02*
X241547619Y-109402380D01*
X241547619Y-108830952D02*
X241595238Y-108783333D01*
X241690476Y-108735714D01*
X241833333Y-108735714D01*
X241928571Y-108783333D01*
X241976190Y-108878571D01*
X241976190Y-109402380D01*
X242404761Y-109354761D02*
X242500000Y-109402380D01*
X242690476Y-109402380D01*
X242785714Y-109354761D01*
X242833333Y-109259523D01*
X242833333Y-109211904D01*
X242785714Y-109116666D01*
X242690476Y-109069047D01*
X242547619Y-109069047D01*
X242452380Y-109021428D01*
X242404761Y-108926190D01*
X242404761Y-108878571D01*
X242452380Y-108783333D01*
X242547619Y-108735714D01*
X242690476Y-108735714D01*
X242785714Y-108783333D01*
X243404761Y-109402380D02*
X243309523Y-109354761D01*
X243261904Y-109307142D01*
X243214285Y-109211904D01*
X243214285Y-108926190D01*
X243261904Y-108830952D01*
X243309523Y-108783333D01*
X243404761Y-108735714D01*
X243547619Y-108735714D01*
X243642857Y-108783333D01*
X243690476Y-108830952D01*
X243738095Y-108926190D01*
X243738095Y-109211904D01*
X243690476Y-109307142D01*
X243642857Y-109354761D01*
X243547619Y-109402380D01*
X243404761Y-109402380D01*
X244166666Y-109402380D02*
X244166666Y-108735714D01*
X244166666Y-108926190D02*
X244214285Y-108830952D01*
X244261904Y-108783333D01*
X244357142Y-108735714D01*
X244452380Y-108735714D01*
X245309523Y-109402380D02*
X244738095Y-109402380D01*
X245023809Y-109402380D02*
X245023809Y-108402380D01*
X244928571Y-108545238D01*
X244833333Y-108640476D01*
X244738095Y-108688095D01*
M02*
